<svg xmlns="http://www.w3.org/2000/svg" xmlns:xlink="http://www.w3.org/1999/xlink" width="1448.147" height="1068.414" viewBox="0 0 1448.147 1068.414"><defs><filter id="a" x="0" y="0" width="1448.147" height="1068.414" filterUnits="userSpaceOnUse"><feOffset input="SourceAlpha"/><feGaussianBlur stdDeviation="28" result="b"/><feFlood flood-opacity="0.22"/><feComposite operator="in" in2="b"/><feComposite in="SourceGraphic"/></filter><linearGradient id="c" x1="0.5" x2="0.5" y2="1" gradientUnits="objectBoundingBox"><stop offset="0" stop-color="#3a3a3d"/><stop offset="1" stop-color="#2e2e31"/></linearGradient><filter id="d" x="1294.147" y="59" width="37" height="23" filterUnits="userSpaceOnUse"><feOffset dy="-1" input="SourceAlpha"/><feGaussianBlur result="e"/><feFlood flood-color="#fff" flood-opacity="0.302"/><feComposite operator="in" in2="e"/><feComposite in="SourceGraphic"/></filter><filter id="f" x="1249.147" y="59" width="37" height="23" filterUnits="userSpaceOnUse"><feOffset dy="-1" input="SourceAlpha"/><feGaussianBlur result="g"/><feFlood flood-color="#fff" flood-opacity="0.302"/><feComposite operator="in" in2="g"/><feComposite in="SourceGraphic"/></filter><filter id="h" x="472.073" y="59" width="504" height="23" filterUnits="userSpaceOnUse"><feOffset dy="-1" input="SourceAlpha"/><feGaussianBlur result="i"/><feFlood flood-color="#fff" flood-opacity="0.302"/><feComposite operator="in" in2="i"/><feComposite in="SourceGraphic"/></filter><filter id="j" x="223" y="59" width="37" height="23" filterUnits="userSpaceOnUse"><feOffset dy="-1" input="SourceAlpha"/><feGaussianBlur result="k"/><feFlood flood-color="#fff" flood-opacity="0.302"/><feComposite operator="in" in2="k"/><feComposite in="SourceGraphic"/></filter><filter id="l" x="188" y="59" width="25" height="23" filterUnits="userSpaceOnUse"><feOffset dy="-1" input="SourceAlpha"/><feGaussianBlur result="m"/><feFlood flood-color="#fff" flood-opacity="0.302"/><feComposite operator="in" in2="m"/><feComposite in="SourceGraphic"/></filter><filter id="n" x="162" y="59" width="25" height="23" filterUnits="userSpaceOnUse"><feOffset dy="-1" input="SourceAlpha"/><feGaussianBlur result="o"/><feFlood flood-color="#fff" flood-opacity="0.302"/><feComposite operator="in" in2="o"/><feComposite in="SourceGraphic"/></filter><linearGradient id="p" x1="0.152" y1="0.263" x2="0.5" y2="1" gradientUnits="objectBoundingBox"><stop offset="0" stop-color="#8d70d2"/><stop offset="1" stop-color="#473869"/></linearGradient></defs><g transform="translate(-1198.097 -18220.586)"><g transform="translate(962.097 18092.586)"><g transform="matrix(1, 0, 0, 1, 236, 128)" filter="url(#a)"><rect width="1280.147" height="900.414" rx="8" transform="translate(84 84)" fill="#fff"/></g><rect width="1280.147" height="932.414" rx="6" transform="translate(320 180)" fill="#2c2d30"/><path d="M0,0H1280.147a0,0,0,0,1,0,0V888.414a6,6,0,0,1-6,6H6a6,6,0,0,1-6-6V0A0,0,0,0,1,0,0Z" transform="translate(320 218)" fill="#2c2d30"/><g transform="translate(320 180)"><path d="M6,0H1274.147a6,6,0,0,1,6,6V38a0,0,0,0,1,0,0H0a0,0,0,0,1,0,0V6A6,6,0,0,1,6,0Z" fill="url(#c)"/><rect width="1280.147" height="1" transform="translate(0 37)"/><g transform="translate(1255.147 12)"><rect width="24" height="24" transform="translate(1 1)" fill="#232326"/><path d="M5,11V6H0V5H5V0H6V5h5V6H6v5Z" transform="translate(7 8)" fill="#9a9a9b"/><path d="M0,25V0H25V1H1V25Z" fill="#58585a"/></g><g transform="translate(1210.147 8)"><g transform="matrix(1, 0, 0, 1, -1294.15, -60)" filter="url(#d)"><rect width="37" height="22" rx="4" transform="translate(1294.15 60)" fill="#626263"/></g><g transform="translate(13 5)"><g transform="translate(0 3)" fill="none" stroke="#e8e8ea" stroke-width="1"><rect width="9" height="9" rx="1" stroke="none"/><rect x="0.5" y="0.5" width="8" height="8" rx="0.5" fill="none"/></g><path d="M8,9H7V8H8V1H1V2H0V1A1,1,0,0,1,1,0H8A1,1,0,0,1,9,1V8A1,1,0,0,1,8,9Z" transform="translate(3)" fill="#e8e8ea"/></g></g><g transform="translate(1165.147 8)"><g transform="matrix(1, 0, 0, 1, -1249.15, -60)" filter="url(#f)"><rect width="37" height="22" rx="4" transform="translate(1249.15 60)" fill="#626263"/></g><g transform="translate(13 4.003)"><path d="M10,10H1A1,1,0,0,1,0,9V1A1,1,0,0,1,1,0H4V1H1V9h9V1H7V0h3a1,1,0,0,1,1,1V9A1,1,0,0,1,10,10Z" transform="translate(0 4.997)" fill="#848485"/><path d="M2.5,10V1.938L.888,3.923a.5.5,0,1,1-.777-.629L2.549.284A.5.5,0,0,1,2.686.112a.527.527,0,0,1,.646,0,.513.513,0,0,1,.137.173l2.437,3.01a.5.5,0,0,1-.778.629L3.5,1.908V10Z" transform="translate(2.503)" fill="#848485"/></g></g><g transform="translate(388.073 8)"><g transform="matrix(1, 0, 0, 1, -472.07, -60)" filter="url(#h)"><rect width="504" height="22" rx="4" transform="translate(472.07 60)" fill="#626263"/></g><path d="M2.672-.762c-.732,0-1.219-.381-1.219-.961s.469-.937,1.289-.99l1.629-.1v.5A1.6,1.6,0,0,1,2.672-.762ZM2.443.105A2.222,2.222,0,0,0,4.4-1.049h.023V0h.967V-4.213c0-1.213-.9-1.986-2.332-1.986A2.151,2.151,0,0,0,.645-4.336h.984A1.279,1.279,0,0,1,3.035-5.3c.844,0,1.336.445,1.336,1.189v.51l-1.746.1C1.219-3.422.416-2.766.416-1.723A1.83,1.83,0,0,0,2.443.105Zm7.2-6.3A2.187,2.187,0,0,0,7.676-5.062H7.652V-6.094H6.686V2.033h1.02V-.99h.023A2.141,2.141,0,0,0,9.668.105c1.535,0,2.584-1.242,2.584-3.152S11.2-6.2,9.645-6.2Zm-.2,5.408C8.4-.791,7.7-1.687,7.7-3.047S8.4-5.3,9.445-5.3c1.084,0,1.764.879,1.764,2.256S10.529-.791,9.445-.791ZM16.236-6.2a2.187,2.187,0,0,0-1.969,1.137h-.023V-6.094h-.967V2.033H14.3V-.99h.023A2.141,2.141,0,0,0,16.26.105c1.535,0,2.584-1.242,2.584-3.152S17.789-6.2,16.236-6.2Zm-.2,5.408c-1.043,0-1.746-.9-1.746-2.256s.7-2.256,1.746-2.256c1.084,0,1.764.879,1.764,2.256S17.121-.791,16.037-.791ZM19.922,0h1.02V-8.455h-1.02Zm4.84-5.314a1.63,1.63,0,0,1,1.623,1.746H23.074A1.712,1.712,0,0,1,24.762-5.314Zm1.6,3.568a1.471,1.471,0,0,1-1.512.967,1.742,1.742,0,0,1-1.781-1.934v-.059h4.371v-.387C27.439-5,26.426-6.2,24.779-6.2c-1.682,0-2.76,1.283-2.76,3.176,0,1.916,1.061,3.129,2.807,3.129a2.413,2.413,0,0,0,2.537-1.852Zm2.965,1.8a.66.66,0,0,0,.668-.668.66.66,0,0,0-.668-.668.66.66,0,0,0-.668.668A.66.66,0,0,0,29.326.059Zm6.9-4.154a2.427,2.427,0,0,0-2.561-2.1c-1.682,0-2.8,1.23-2.8,3.152,0,1.963,1.125,3.152,2.813,3.152a2.427,2.427,0,0,0,2.561-2.068h-1A1.47,1.47,0,0,1,33.68-.791c-1.055,0-1.781-.838-1.781-2.256,0-1.383.715-2.256,1.77-2.256A1.5,1.5,0,0,1,35.227-4.1ZM39.7.105c1.682,0,2.818-1.213,2.818-3.152S41.379-6.2,39.7-6.2s-2.824,1.207-2.824,3.152S38.01.105,39.7.105Zm0-.9c-1.078,0-1.787-.82-1.787-2.256S38.619-5.3,39.7-5.3s1.781.82,1.781,2.256S40.775-.791,39.7-.791ZM43.541,0h1.02V-3.82A1.4,1.4,0,0,1,45.955-5.3,1.157,1.157,0,0,1,47.2-4.084V0h1.02V-3.873A1.348,1.348,0,0,1,49.6-5.3a1.185,1.185,0,0,1,1.266,1.324V0h1.02V-4.207A1.866,1.866,0,0,0,49.9-6.2a2.039,2.039,0,0,0-1.91,1.16h-.023A1.705,1.705,0,0,0,46.254-6.2a1.822,1.822,0,0,0-1.729,1.078H44.5v-.973h-.961Z" transform="translate(231 15)" fill="#e9e9e9"/><path d="M0,10V4H1V3A3,3,0,0,1,7,3V4H8v6ZM6,4V3A2,2,0,0,0,2,3V4Z" transform="translate(218 6)" fill="#e9e9e9"/></g><g transform="translate(139 8)"><g transform="matrix(1, 0, 0, 1, -223, -60)" filter="url(#j)"><rect width="37" height="22" rx="4" transform="translate(223 60)" fill="#626263"/></g><g transform="translate(11 5)"><path d="M14,12H1a1,1,0,0,1-1-1V1A1,1,0,0,1,1,0H14a1,1,0,0,1,1,1V11A1,1,0,0,1,14,12ZM6,1V11h8V1ZM1,1V11H5V1Z" fill="#e9e9eb"/><rect width="2" height="1" transform="translate(2 2)" fill="#b5b5b6"/><rect width="2" height="1" transform="translate(2 4)" fill="#b5b5b6"/><rect width="2" height="1" transform="translate(2 6)" fill="#b5b5b6"/></g></g><g transform="translate(104 8)"><g transform="matrix(1, 0, 0, 1, -188, -60)" filter="url(#l)"><rect width="25" height="22" rx="4" transform="translate(188 60)" fill="#626263"/></g><g transform="translate(3.5 4.6)"><path d="M.75,9A.75.75,0,0,1,0,8.25V.75a.75.75,0,0,1,1.5,0V7.5H8.25a.75.75,0,0,1,0,1.5Z" transform="translate(6.364 12.728) rotate(-135)" fill="#848486"/></g></g><g transform="translate(78 8)"><g transform="matrix(1, 0, 0, 1, -162, -60)" filter="url(#n)"><rect width="25" height="22" rx="4" transform="translate(162 60)" fill="#626263"/></g><g transform="translate(8.8 4.6)"><path d="M0,8.25V.75A.75.75,0,0,1,.75,0h7.5a.75.75,0,0,1,0,1.5H1.5V8.25a.75.75,0,0,1-1.5,0Z" transform="translate(0 6.364) rotate(-45)" fill="#848486"/></g></g><g transform="translate(13 13)"><circle cx="6" cy="6" r="6" fill="#ff5f57"/><circle cx="6" cy="6" r="6" transform="translate(20)" fill="#ffbd2e"/><circle cx="6" cy="6" r="6" transform="translate(40)" fill="#27c940"/></g></g></g><g transform="translate(-1593 -10)"><path d="M31,0H1226a31,31,0,0,1,31,31V848a31,31,0,0,1-31,31H31A31,31,0,0,1,0,848V31A31,31,0,0,1,31,0Z" transform="translate(2889 18326)" fill="url(#p)"/><g transform="translate(2889 18326)" fill="#fff" stroke="#707070" stroke-width="1"><path d="M28,0H1229a28,28,0,0,1,28,28v90a0,0,0,0,1,0,0H0a0,0,0,0,1,0,0V28A28,28,0,0,1,28,0Z" stroke="none"/><path d="M28,.5H1229A27.5,27.5,0,0,1,1256.5,28v89a.5.5,0,0,1-.5.5H1a.5.5,0,0,1-.5-.5V28A27.5,27.5,0,0,1,28,.5Z" fill="none"/></g><path d="M51.821,34.8H18.02v7.4h33.8Zm6.76-25.9H55.2V1.5h-6.76V8.9H21.4V1.5H14.64V8.9H11.26c-3.752,0-6.726,3.33-6.726,7.4L4.5,68.1c0,4.07,3.008,7.4,6.76,7.4H58.581c3.718,0,6.76-3.33,6.76-7.4V16.3C65.341,12.23,62.3,8.9,58.581,8.9Zm0,59.2H11.26V27.4H58.581Zm-16.9-18.5H18.02V57H41.681Z" transform="translate(2908.5 18346.5)" fill="#1f76e6"/><text transform="translate(2998 18405)" fill="#1f76e6" font-size="47" font-family="SegoeUI-Bold, Segoe UI" font-weight="700"><tspan x="0" y="0">Anecdotes</tspan></text><g transform="translate(1099)"><g transform="translate(1844 18492)" fill="#fff" stroke="#707070" stroke-width="1"><rect width="398" height="153" rx="28" stroke="none"/><rect x="0.5" y="0.5" width="397" height="152" rx="27.5" fill="none"/></g><g transform="translate(1874.665 18515)" fill="#827d7d" stroke="#707070" stroke-width="1"><rect width="92" height="16" rx="8" stroke="none"/><rect x="0.5" y="0.5" width="91" height="15" rx="7.5" fill="none"/></g><g transform="translate(1971.665 18515)" fill="#827d7d" stroke="#707070" stroke-width="1"><rect width="236" height="16" rx="8" stroke="none"/><rect x="0.5" y="0.5" width="235" height="15" rx="7.5" fill="none"/></g><g transform="translate(1874.665 18537)" fill="#827d7d" stroke="#707070" stroke-width="1"><rect width="179" height="16" rx="8" stroke="none"/><rect x="0.5" y="0.5" width="178" height="15" rx="7.5" fill="none"/></g><g transform="translate(1883.165 18573)" fill="#f3f3f3" stroke="#c9c7c7" stroke-width="1"><rect width="45" height="11" rx="5.5" stroke="none"/><rect x="0.5" y="0.5" width="44" height="10" rx="5" fill="none"/></g><g transform="translate(1879.165 18602)" fill="#0027c5" stroke="#0027c5" stroke-width="1"><rect width="53" height="20" rx="6" stroke="none"/><rect x="0.5" y="0.5" width="52" height="19" rx="5.5" fill="none"/></g><g transform="translate(1937.665 18602)" fill="#827d7d" stroke="#827d7d" stroke-width="1"><rect width="53" height="20" rx="6" stroke="none"/><rect x="0.5" y="0.5" width="52" height="19" rx="5.5" fill="none"/></g></g><g transform="translate(1099 183)"><g transform="translate(1844 18492)" fill="#fff" stroke="#707070" stroke-width="1"><rect width="398" height="153" rx="28" stroke="none"/><rect x="0.5" y="0.5" width="397" height="152" rx="27.5" fill="none"/></g><g transform="translate(1874.665 18515)" fill="#827d7d" stroke="#707070" stroke-width="1"><rect width="92" height="16" rx="8" stroke="none"/><rect x="0.5" y="0.5" width="91" height="15" rx="7.5" fill="none"/></g><g transform="translate(1971.665 18515)" fill="#827d7d" stroke="#707070" stroke-width="1"><rect width="236" height="16" rx="8" stroke="none"/><rect x="0.5" y="0.5" width="235" height="15" rx="7.5" fill="none"/></g><g transform="translate(1874.665 18537)" fill="#827d7d" stroke="#707070" stroke-width="1"><rect width="179" height="16" rx="8" stroke="none"/><rect x="0.5" y="0.5" width="178" height="15" rx="7.5" fill="none"/></g><g transform="translate(1883.165 18573)" fill="#f3f3f3" stroke="#c9c7c7" stroke-width="1"><rect width="45" height="11" rx="5.5" stroke="none"/><rect x="0.5" y="0.5" width="44" height="10" rx="5" fill="none"/></g><g transform="translate(1879.165 18602)" fill="#0027c5" stroke="#0027c5" stroke-width="1"><rect width="53" height="20" rx="6" stroke="none"/><rect x="0.5" y="0.5" width="52" height="19" rx="5.5" fill="none"/></g><g transform="translate(1937.665 18602)" fill="#827d7d" stroke="#827d7d" stroke-width="1"><rect width="53" height="20" rx="6" stroke="none"/><rect x="0.5" y="0.5" width="52" height="19" rx="5.5" fill="none"/></g></g><g transform="translate(1099 366)"><g transform="translate(1844 18492)" fill="#fff" stroke="#707070" stroke-width="1"><rect width="398" height="153" rx="28" stroke="none"/><rect x="0.5" y="0.5" width="397" height="152" rx="27.5" fill="none"/></g><g transform="translate(1874.665 18515)" fill="#827d7d" stroke="#707070" stroke-width="1"><rect width="92" height="16" rx="8" stroke="none"/><rect x="0.5" y="0.5" width="91" height="15" rx="7.5" fill="none"/></g><g transform="translate(1971.665 18515)" fill="#827d7d" stroke="#707070" stroke-width="1"><rect width="236" height="16" rx="8" stroke="none"/><rect x="0.5" y="0.5" width="235" height="15" rx="7.5" fill="none"/></g><g transform="translate(1874.665 18537)" fill="#827d7d" stroke="#707070" stroke-width="1"><rect width="179" height="16" rx="8" stroke="none"/><rect x="0.5" y="0.5" width="178" height="15" rx="7.5" fill="none"/></g><g transform="translate(1883.165 18573)" fill="#f3f3f3" stroke="#c9c7c7" stroke-width="1"><rect width="45" height="11" rx="5.5" stroke="none"/><rect x="0.5" y="0.5" width="44" height="10" rx="5" fill="none"/></g><g transform="translate(1879.165 18602)" fill="#0027c5" stroke="#0027c5" stroke-width="1"><rect width="53" height="20" rx="6" stroke="none"/><rect x="0.5" y="0.5" width="52" height="19" rx="5.5" fill="none"/></g><g transform="translate(1937.665 18602)" fill="#827d7d" stroke="#827d7d" stroke-width="1"><rect width="53" height="20" rx="6" stroke="none"/><rect x="0.5" y="0.5" width="52" height="19" rx="5.5" fill="none"/></g></g><g transform="translate(1099 549)"><g transform="translate(1844 18492)" fill="#fff" stroke="#707070" stroke-width="1"><path d="M28,0H370a28,28,0,0,1,28,28V136a0,0,0,0,1,0,0H0a0,0,0,0,1,0,0V28A28,28,0,0,1,28,0Z" stroke="none"/><path d="M28,.5H370A27.5,27.5,0,0,1,397.5,28V135a.5.5,0,0,1-.5.5H1a.5.5,0,0,1-.5-.5V28A27.5,27.5,0,0,1,28,.5Z" fill="none"/></g><g transform="translate(1874.665 18515)" fill="#827d7d" stroke="#707070" stroke-width="1"><rect width="92" height="16" rx="8" stroke="none"/><rect x="0.5" y="0.5" width="91" height="15" rx="7.5" fill="none"/></g><g transform="translate(1971.665 18515)" fill="#827d7d" stroke="#707070" stroke-width="1"><rect width="236" height="16" rx="8" stroke="none"/><rect x="0.5" y="0.5" width="235" height="15" rx="7.5" fill="none"/></g><g transform="translate(1874.665 18537)" fill="#827d7d" stroke="#707070" stroke-width="1"><rect width="179" height="16" rx="8" stroke="none"/><rect x="0.5" y="0.5" width="178" height="15" rx="7.5" fill="none"/></g><g transform="translate(1883.165 18573)" fill="#f3f3f3" stroke="#c9c7c7" stroke-width="1"><rect width="45" height="11" rx="5.5" stroke="none"/><rect x="0.5" y="0.5" width="44" height="10" rx="5" fill="none"/></g><g transform="translate(1879.165 18602)" fill="#0027c5" stroke="#0027c5" stroke-width="1"><rect width="53" height="20" rx="6" stroke="none"/><rect x="0.5" y="0.5" width="52" height="19" rx="5.5" fill="none"/></g><g transform="translate(1937.665 18602)" fill="#827d7d" stroke="#827d7d" stroke-width="1"><rect width="53" height="20" rx="6" stroke="none"/><rect x="0.5" y="0.5" width="52" height="19" rx="5.5" fill="none"/></g></g><g transform="translate(1224.402 -182)"><g transform="translate(2258.598 18660)"><g fill="#fff" stroke="#707070" stroke-width="1"><rect width="565" height="197" rx="28" stroke="none"/><rect x="0.5" y="0.5" width="564" height="196" rx="27.5" fill="none"/></g><g transform="translate(50.375 141.965)" fill="#0027c5" stroke="#0027c5" stroke-width="1"><rect width="75.219" height="25.812" rx="6" stroke="none"/><rect x="0.5" y="0.5" width="74.219" height="24.812" rx="5.5" fill="none"/></g></g><g transform="translate(2305.902 18723.885)" fill="#827d7d" stroke="#707070" stroke-width="1"><rect width="254.04" height="20.65" rx="10" stroke="none"/><rect x="0.5" y="0.5" width="253.04" height="19.65" rx="9.5" fill="none"/></g><g transform="translate(2305.598 18679.359)"><g transform="translate(0 -0.359)" fill="#fff" stroke="#d3d7dc" stroke-width="1"><rect width="342" height="31" rx="5" stroke="none"/><rect x="0.5" y="0.5" width="341" height="30" rx="4.5" fill="none"/></g><text transform="translate(15 17.641)" fill="#868e96" font-size="11" font-family="ArialMT, Arial"><tspan x="0" y="0">Search</tspan></text></g><g transform="translate(2305.598 18758.086)"><g transform="translate(0 -0.086)" fill="#fff" stroke="#d3d7dc" stroke-width="1"><rect width="342" height="31" rx="5" stroke="none"/><rect x="0.5" y="0.5" width="341" height="30" rx="4.5" fill="none"/></g><text transform="translate(15 17.914)" fill="#868e96" font-size="11" font-family="ArialMT, Arial"><tspan x="0" y="0">Create New Anecdote</tspan></text></g></g><g transform="translate(3406.468 18722.387)"><path d="M243.9,651.822s-88.086-39.379-57.141-66.687S243.9,651.822,243.9,651.822Z" transform="translate(-163.192 -247.889)" fill="#e6e6e6"/><path d="M255.773,647.753S215.286,518.568,274.9,524.746,255.773,647.753,255.773,647.753Z" transform="translate(-176.601 -234.632)" fill="#e6e6e6"/><path d="M221.829,671.266l1.7,21.61.027.373a96.45,96.45,0,0,0,.526,10.1c2.306,22.042,12.219,32.088,23.8,32.088s21.066-10.045,23.372-32.088a96.424,96.424,0,0,0,.526-10.1l.013-.3.007-.072,1.706-21.61Z" transform="translate(-172.177 -269.601)" fill="#e6e6e6"/><path d="M272.271,699.637l-.007.072-.014.3a96.442,96.442,0,0,1-.526,10.1H224.549a96.448,96.448,0,0,1-.526-10.1l-.027-.373Z" transform="translate(-172.644 -276.363)" fill="#fff"/><path d="M980.342,674.235s-68.2-30.488-44.24-51.63S980.342,674.235,980.342,674.235Z" transform="translate(-325.12 -257.087)" fill="#e6e6e6"/><path d="M989.536,671.085s-31.346-100.018,14.812-95.234S989.536,671.085,989.536,671.085Z" transform="translate(-335.502 -246.823)" fill="#e6e6e6"/><path d="M963.256,689.289l1.316,16.731.021.289a74.651,74.651,0,0,0,.407,7.823c1.785,17.066,9.46,24.843,18.429,24.843s16.31-7.777,18.1-24.843a74.653,74.653,0,0,0,.407-7.823l.01-.233.005-.056,1.321-16.731Z" transform="translate(-332.076 -273.897)" fill="#e6e6e6"/><path d="M1002.312,711.255l-.005.056-.01.233a74.667,74.667,0,0,1-.407,7.823H965.361a74.686,74.686,0,0,1-.407-7.823l-.021-.289Z" transform="translate(-332.438 -279.132)" fill="#fff"/><path d="M448.868,317.317V287.926h-4.706v29.391a6.061,6.061,0,0,0-3.806,6.813,6.312,6.312,0,0,0,12.318,0A6.061,6.061,0,0,0,448.868,317.317Z" transform="translate(-219.28 -178.244)" fill="#e6e6e6"/><path d="M436.125,597.243H403.968V217.926H391.418V597.243H359.26c-16.028,0-29.02,12.618-29.02,28.182H465.146c0-15.565-12.993-28.182-29.02-28.182Z" transform="translate(-195.557 -161.562)" fill="#e6e6e6"/><path d="M330.323,256.655H465.1l-8.241-100.039a14.113,14.113,0,0,0-14.154-12.69H352.719a14.113,14.113,0,0,0-14.154,12.689Z" transform="translate(-195.575 -143.926)" fill="#6c63ff"/><path d="M565.462,522.406h0a9.926,9.926,0,0,0-7.287,1.667,9.385,9.385,0,0,0-3.9,6.208l-3.794,24.182,12.91,3.325,9.46-22.531a9.18,9.18,0,0,0-.514-8.152A9.7,9.7,0,0,0,565.462,522.406Z" transform="translate(-243.056 -234.095)" fill="#a0616a"/><path d="M544.506,562.2c7.165,27.651,4.081,52.941-22.6,72.8-32-8.566-53.284-29.235-66.269-59.272a14.6,14.6,0,0,1,.079-11.785,15.26,15.26,0,0,1,8.826-8.089h0A15.735,15.735,0,0,1,481.53,560.1l31.4,35.193,14.73-35.486Z" transform="translate(-222.342 -241.877)" fill="#6c63ff"/><path d="M764.078,742.54c-29.219-1.507-47.37-11.25-51.766-31.229l4.706-8.378,53.88,23.836a7.241,7.241,0,0,1-.53,13.532Z" transform="translate(-277.957 -277.148)" fill="#e6e6e6"/><path d="M731.365,740.834c-15.182-.446-29.782-.308-43.616.6a9.157,9.157,0,0,1-9.841-8.238l-.831-10.082-11.765-18.28,10.2-9.9c17.135,16.573,35.928,30.494,58.247,38.769a3.849,3.849,0,0,1,1.552,4.435,4.019,4.019,0,0,1-3.943,2.7Z" transform="translate(-267.821 -275.242)" fill="#e6e6e6"/><path d="M607.326,648.653c-19.386,33.686-38.452,56.4-63.531,68.551-30.855,9.89-53.406-3.213-70.982-30.086l50.982-32.752,7.451,7.236,67.53-49.9a8.805,8.805,0,0,1,12.129.262l57.6,68.684-7.059,11.425Z" transform="translate(-226.305 -254.859)" fill="#2f2e41"/><path d="M500.455,553.04l-26.667-39.607,6.275-11.425,35.3,35.8Z" transform="translate(-102.179 -119.638)" fill="#2f2e41"/><ellipse cx="26.667" cy="25.897" rx="26.667" ry="25.897" transform="translate(217.879 255.168)" fill="#a0616a"/><path d="M471.117,565.685l-29.8-9.9a35.124,35.124,0,0,0,5.49-22.851h24.314C469.734,544.555,469.527,555.578,471.117,565.685Z" transform="translate(-219.512 -236.634)" fill="#a0616a"/><path d="M529.871,640.48c-4.468,1.782-4.795,7.558-9.02,9.521-20.424,9.49-42.032,17.19-56.864,30.848-34.662-22.858-66.79-93.852-25.1-124.916,14.231,8.087,26.943,13.874,26.667,0Z" transform="translate(-214.734 -242.115)" fill="#6c63ff"/><path d="M513.552,617.087l-14.51-4.951-28.628,21.708-12.833-44.865c-.89-3.112-2.332-1.535-4.4.627a15.773,15.773,0,0,0-16.337-2.863,15.005,15.005,0,0,0-9.548,13.188c-1.527,32.544,8.579,60.077,33.71,81.137,32.869-6.835,46.819-28.4,52.55-56.364L512,623.7Q512.858,620.456,513.552,617.087Z" transform="translate(-216.456 -249.19)" opacity="0.2"/><path d="M463.747,467.979c8.8,1.952,18.808,4.717,19.37,7.287,9.049,2.214,15.879,7.518,17.273,15.6a4.746,4.746,0,0,1-1.151,3.942,5.053,5.053,0,0,1-3.852,1.674c-4.921-.062-12.308-.519-17.186-2.5-14.17,8.867-16.549,31.928-10.361,47.626l-9.738-.867-10.075-28.641-2.573,27.515-22.222-2.853,2.862-35.087a51.311,51.311,0,0,1,8.454-23.18,19.823,19.823,0,0,1,1.591-2,28.761,28.761,0,0,1,27.609-8.522Z" transform="translate(-215.612 -220.981)" fill="#2f2e41"/><path d="M380.285,424.9l24.406,27.865,36.61-41.958-24.736-29.146Z" transform="translate(-82.014 -90.957)" fill="#3f3d56"/><path d="M600.632,557.032,571.608,533.97c1.649-3.844,9.565-2.562,9.565-2.562l22.719,22.367a12.1,12.1,0,0,1,2.017,2.615h0Z" transform="translate(-247.612 -236.222)" fill="#f2f2f2"/><path d="M591.16,555.193l-32.982-24.982-36.61,53.809,34.466,22.58c3.3,1.281,6.6-.961,6.6-.961l33.641-49.965Z" transform="translate(-236.82 -235.985)" fill="#3f3d56"/><path d="M.092,0,.617.011.972,25.75l-.524-.007Z" transform="matrix(0.584, -0.812, 0.812, 0.584, 325.104, 302.52)" fill="#6c63ff"/><path d="M0,.175,49.216.843l.007.53L.012.705Z" transform="matrix(0.552, -0.834, 0.834, 0.552, 319.012, 362.853)" fill="#6c63ff"/><path d="M.1,0,.624.011l.384,27.555-.525-.007Z" transform="translate(293.433 348.639) rotate(-53.656)" fill="#6c63ff"/><path d="M0,.178l49.252.68.007.529L.012.708Z" transform="translate(292.625 342.665) rotate(-55.162)" fill="#6c63ff"/><path d="M.133,0l.324,0,.51,34.956-.324,0Z" transform="translate(330.018 295.201) rotate(-47.455)" fill="#b3b3b3"/><path d="M.136,0l.325,0L.982,35.932l-.325,0Z" transform="translate(327.85 295.408) rotate(-48.561)" fill="#b3b3b3"/><path d="M.136,0l.324,0L.984,36.434l-.324,0Z" transform="matrix(0.64, -0.768, 0.768, 0.64, 326.149, 295.884)" fill="#b3b3b3"/><path d="M547.994,592.566h0a9.933,9.933,0,0,0-7.319-1.528,9.726,9.726,0,0,0-6.26,3.987l-14.1,20.268,10.2,8.379L549,607.254a9.256,9.256,0,0,0-1.006-14.688Z" transform="translate(-236.549 -250.444)" fill="#a0616a"/><path d="M513.552,618.7c-5.732,27.964-19.681,49.53-52.55,56.364-25.13-21.06-35.236-48.593-33.71-81.136a14.831,14.831,0,0,1,5.273-10.615,15.74,15.74,0,0,1,11.545-3.634h0A15.32,15.32,0,0,1,457.581,590.6l12.833,44.865,28.971-25.929Z" transform="translate(-216.456 -247.761)" fill="#6c63ff"/><path d="M692.22,611.628H0v-1.662H692.53Z" transform="translate(0 -145.367)" fill="#3f3d56"/><path d="M619.381,235.433a1.548,1.548,0,0,0-1.569,1.523V355.779a1.548,1.548,0,0,0,1.569,1.523H721.344a1.548,1.548,0,0,0,1.569-1.523V236.956a1.548,1.548,0,0,0-1.569-1.523Z" transform="translate(-257.577 -165.734)" fill="#e6e6e6"/><path d="M633.312,349.19H714.1V250.933H633.312Z" transform="translate(-260.919 -169.428)" fill="#fff"/><path d="M835.987,276.433a.924.924,0,0,0-.936.909v59.116a.924.924,0,0,0,.936.91h73.049a.924.924,0,0,0,.936-.909V277.342a.924.924,0,0,0-.937-.909Z" transform="translate(-304.427 -175.505)" fill="#e6e6e6"/><path d="M844.305,285.687v46.837h60.406V285.687Z" transform="translate(-306.423 -177.71)" fill="#fff"/><path d="M694.075,236.543H665.546a3.936,3.936,0,0,1-3.4-1.9,3.705,3.705,0,0,1,.008-3.813l14.264-23.993.036-.059a3.888,3.888,0,0,1,2.97-1.827l.021,0c.122-.011.245-.016.37-.016a3.9,3.9,0,0,1,3.4,1.9l14.264,23.993a3.714,3.714,0,0,1,0,3.808,3.945,3.945,0,0,1-3.4,1.9Zm-29.316-3.812a.767.767,0,0,0,.108.385.776.776,0,0,0,.679.381h28.529a.775.775,0,0,0,.679-.381.766.766,0,0,0,.108-.384.735.735,0,0,0-.108-.377L680.49,208.36a.8.8,0,0,0-1.359,0l-14.264,23.993A.731.731,0,0,0,664.758,232.731Z" transform="translate(-267.024 -158.465)" fill="#e6e6e6"/><ellipse cx="2.353" cy="2.285" rx="2.353" ry="2.285" transform="translate(410.433 49.134)" fill="#e6e6e6"/><path d="M887.833,273.571H872.366a2.134,2.134,0,0,1-1.846-1.03,2.009,2.009,0,0,1,0-2.067l7.734-13.008.019-.032a2.108,2.108,0,0,1,1.61-.99h.011c.066-.006.133-.009.2-.009a2.117,2.117,0,0,1,1.841,1.032l7.734,13.008a2.013,2.013,0,0,1,0,2.065,2.139,2.139,0,0,1-1.841,1.032ZM871.939,271.5a.42.42,0,0,0,.427.415h15.467a.42.42,0,0,0,.368-.206.415.415,0,0,0,.059-.208.4.4,0,0,0-.059-.2l-7.733-13.008a.432.432,0,0,0-.737,0L872,271.3a.4.4,0,0,0-.059.2Z" transform="translate(-312.016 -170.739)" fill="#e6e6e6"/><ellipse cx="1.276" cy="1.239" rx="1.276" ry="1.239" transform="translate(566.809 87.14)" fill="#e6e6e6"/><path d="M633.842,326.262a20.541,20.541,0,0,1,11.971-10.913,21.084,21.084,0,0,1,17.108,1.034c6.121,3.155,11.014,8.114,17.23,11.133a45.14,45.14,0,0,0,19.441,4.447,44.529,44.529,0,0,0,21.8-5.495,1.124,1.124,0,0,0,.388-1.544,1.2,1.2,0,0,0-1.576-.429,42.937,42.937,0,0,1-39.554.7c-6.236-3.175-11.178-8.3-17.531-11.278a23.768,23.768,0,0,0-31.545,11.732C631,327.016,633.278,327.609,633.842,326.262Z" transform="translate(-260.525 -183.914)" fill="#e6e6e6"/><path d="M631.716,356.578a92.174,92.174,0,0,1,39.64.133c11.582,2.608,23.537,7.3,35.479,3.8,5.335-1.564,10.224-4.691,12.965-9.5a1.17,1.17,0,0,0-2.032-1.153c-5.16,9.062-17.249,10.591-26.8,9.1-6.38-.993-12.529-2.986-18.809-4.411a94.329,94.329,0,0,0-41.071-.174c-1.477.32-.852,2.524.626,2.2Z" transform="translate(-260.258 -192.869)" fill="#e6e6e6"/><path d="M630.633,290.684a95.744,95.744,0,0,1,37.681,1.3c11.526,2.742,22.792,9.008,34.979,7.926,5.642-.5,11.228-2.516,15.061-6.708,1-1.1-.656-2.718-1.664-1.616a20.143,20.143,0,0,1-12.956,6c-5.633.584-11.167-.55-16.529-2.16-5.935-1.782-11.7-4.04-17.733-5.514a98.058,98.058,0,0,0-39.465-1.43c-1.49.247-.858,2.449.625,2.2Z" transform="translate(-260.023 -178.053)" fill="#e6e6e6"/><path d="M857.622,284.062a39.493,39.493,0,0,1,10.763,19.489,38.52,38.52,0,0,1-8.759,33.408c-.975,1.115.682,2.739,1.664,1.616a41.633,41.633,0,0,0,9.96-21.84,40.928,40.928,0,0,0-11.963-34.289C858.224,281.394,856.561,283.01,857.622,284.062Z" transform="translate(-309.222 -176.857)" fill="#e6e6e6"/><path d="M899.46,278.2a29.2,29.2,0,0,0-11.816,22c-.591,8.922,2.913,17.538,8.555,24.466a48.524,48.524,0,0,0,11.646,10.209c1.271.807,2.451-1.17,1.188-1.973-7.2-4.577-13.368-11.08-16.642-18.883a29.742,29.742,0,0,1-.068-23.412,25.128,25.128,0,0,1,8.325-10.435c1.209-.861.036-2.845-1.188-1.973Z" transform="translate(-315.756 -175.876)" fill="#e6e6e6"/><ellipse cx="10.981" cy="10.664" rx="10.981" ry="10.664" transform="translate(407.296 103.975)" fill="#e6e6e6"/></g></g></g></svg>