<svg xmlns="http://www.w3.org/2000/svg" xmlns:xlink="http://www.w3.org/1999/xlink" width="1442" height="1064" viewBox="0 0 1442 1064"><defs><filter id="a" x="0" y="0" width="1442" height="1064" filterUnits="userSpaceOnUse"><feOffset input="SourceAlpha"/><feGaussianBlur stdDeviation="28" result="b"/><feFlood flood-opacity="0.22"/><feComposite operator="in" in2="b"/><feComposite in="SourceGraphic"/></filter><linearGradient id="c" x1="0.5" x2="0.5" y2="1" gradientUnits="objectBoundingBox"><stop offset="0" stop-color="#3a3a3d"/><stop offset="1" stop-color="#2e2e31"/></linearGradient><filter id="d" x="1288" y="59" width="37" height="23" filterUnits="userSpaceOnUse"><feOffset dy="-1" input="SourceAlpha"/><feGaussianBlur result="e"/><feFlood flood-color="#fff" flood-opacity="0.302"/><feComposite operator="in" in2="e"/><feComposite in="SourceGraphic"/></filter><filter id="f" x="1243" y="59" width="37" height="23" filterUnits="userSpaceOnUse"><feOffset dy="-1" input="SourceAlpha"/><feGaussianBlur result="g"/><feFlood flood-color="#fff" flood-opacity="0.302"/><feComposite operator="in" in2="g"/><feComposite in="SourceGraphic"/></filter><filter id="h" x="469" y="59" width="504" height="23" filterUnits="userSpaceOnUse"><feOffset dy="-1" input="SourceAlpha"/><feGaussianBlur result="i"/><feFlood flood-color="#fff" flood-opacity="0.302"/><feComposite operator="in" in2="i"/><feComposite in="SourceGraphic"/></filter><filter id="j" x="223" y="59" width="37" height="23" filterUnits="userSpaceOnUse"><feOffset dy="-1" input="SourceAlpha"/><feGaussianBlur result="k"/><feFlood flood-color="#fff" flood-opacity="0.302"/><feComposite operator="in" in2="k"/><feComposite in="SourceGraphic"/></filter><filter id="l" x="188" y="59" width="25" height="23" filterUnits="userSpaceOnUse"><feOffset dy="-1" input="SourceAlpha"/><feGaussianBlur result="m"/><feFlood flood-color="#fff" flood-opacity="0.302"/><feComposite operator="in" in2="m"/><feComposite in="SourceGraphic"/></filter><filter id="n" x="162" y="59" width="25" height="23" filterUnits="userSpaceOnUse"><feOffset dy="-1" input="SourceAlpha"/><feGaussianBlur result="o"/><feFlood flood-color="#fff" flood-opacity="0.302"/><feComposite operator="in" in2="o"/><feComposite in="SourceGraphic"/></filter></defs><g transform="translate(2915 -20324)"><g transform="translate(-3150.829 20195.645)"><g transform="matrix(1, 0, 0, 1, 235.83, 128.36)" filter="url(#a)"><rect width="1274" height="896" rx="8" transform="translate(84 84)" fill="#fff"/></g><rect width="1274" height="928" rx="6" transform="translate(319.829 180.355)" fill="#2c2d30"/><path d="M0,0H1274a0,0,0,0,1,0,0V884a6,6,0,0,1-6,6H6a6,6,0,0,1-6-6V0A0,0,0,0,1,0,0Z" transform="translate(319.829 218.355)" fill="#2c2d30"/><g transform="translate(319.829 180.355)"><path d="M6,0H1268a6,6,0,0,1,6,6V38a0,0,0,0,1,0,0H0a0,0,0,0,1,0,0V6A6,6,0,0,1,6,0Z" fill="url(#c)"/><rect width="1274" height="1" transform="translate(0 37)"/><g transform="translate(1248.704 12)"><rect width="24" height="24" transform="translate(1.296 1)" fill="#232326"/><path d="M5,11V6H0V5H5V0H6V5h5V6H6v5Z" transform="translate(7.296 8)" fill="#9a9a9b"/><path d="M0,25V0H25V1H1V25Z" transform="translate(0.296)" fill="#58585a"/></g><g transform="translate(1203.704 8)"><g transform="matrix(1, 0, 0, 1, -1287.7, -60)" filter="url(#d)"><rect width="37" height="22" rx="4" transform="translate(1288 60)" fill="#626263"/></g><g transform="translate(13 5)"><g transform="translate(0.296 3)" fill="none" stroke="#e8e8ea" stroke-width="1"><rect width="9" height="9" rx="1" stroke="none"/><rect x="0.5" y="0.5" width="8" height="8" rx="0.5" fill="none"/></g><path d="M8,9H7V8H8V1H1V2H0V1A1,1,0,0,1,1,0H8A1,1,0,0,1,9,1V8A1,1,0,0,1,8,9Z" transform="translate(3.296)" fill="#e8e8ea"/></g></g><g transform="translate(1158.704 8)"><g transform="matrix(1, 0, 0, 1, -1242.7, -60)" filter="url(#f)"><rect width="37" height="22" rx="4" transform="translate(1243 60)" fill="#626263"/></g><g transform="translate(13 3.648)"><path d="M10,10H1A1,1,0,0,1,0,9V1A1,1,0,0,1,1,0H4V1H1V9h9V1H7V0h3a1,1,0,0,1,1,1V9A1,1,0,0,1,10,10Z" transform="translate(0.296 5.352)" fill="#848485"/><path d="M2.5,10V1.937L.888,3.923a.5.5,0,1,1-.777-.629L2.549.284a.511.511,0,0,1,.919,0L5.906,3.294a.5.5,0,0,1-.778.629L3.5,1.908V10Z" transform="translate(2.503)" fill="#848485"/></g></g><g transform="translate(384.852 8)"><g transform="matrix(1, 0, 0, 1, -468.85, -60)" filter="url(#h)"><rect width="504" height="22" rx="4" transform="translate(469 60)" fill="#626263"/></g><path d="M2.672-.762c-.732,0-1.219-.381-1.219-.961s.469-.937,1.289-.99l1.629-.1v.5A1.6,1.6,0,0,1,2.672-.762ZM2.443.105A2.222,2.222,0,0,0,4.4-1.049h.023V0h.967V-4.213c0-1.213-.9-1.986-2.332-1.986A2.151,2.151,0,0,0,.645-4.336h.984A1.279,1.279,0,0,1,3.035-5.3c.844,0,1.336.445,1.336,1.189v.51l-1.746.1C1.219-3.422.416-2.766.416-1.723A1.83,1.83,0,0,0,2.443.105Zm7.2-6.3A2.187,2.187,0,0,0,7.676-5.062H7.652V-6.094H6.686V2.033h1.02V-.99h.023A2.141,2.141,0,0,0,9.668.105c1.535,0,2.584-1.242,2.584-3.152S11.2-6.2,9.645-6.2Zm-.2,5.408C8.4-.791,7.7-1.687,7.7-3.047S8.4-5.3,9.445-5.3c1.084,0,1.764.879,1.764,2.256S10.529-.791,9.445-.791ZM16.236-6.2a2.187,2.187,0,0,0-1.969,1.137h-.023V-6.094h-.967V2.033H14.3V-.99h.023A2.141,2.141,0,0,0,16.26.105c1.535,0,2.584-1.242,2.584-3.152S17.789-6.2,16.236-6.2Zm-.2,5.408c-1.043,0-1.746-.9-1.746-2.256s.7-2.256,1.746-2.256c1.084,0,1.764.879,1.764,2.256S17.121-.791,16.037-.791ZM19.922,0h1.02V-8.455h-1.02Zm4.84-5.314a1.63,1.63,0,0,1,1.623,1.746H23.074A1.712,1.712,0,0,1,24.762-5.314Zm1.6,3.568a1.471,1.471,0,0,1-1.512.967,1.742,1.742,0,0,1-1.781-1.934v-.059h4.371v-.387C27.439-5,26.426-6.2,24.779-6.2c-1.682,0-2.76,1.283-2.76,3.176,0,1.916,1.061,3.129,2.807,3.129a2.413,2.413,0,0,0,2.537-1.852Zm2.965,1.8a.66.66,0,0,0,.668-.668.66.66,0,0,0-.668-.668.66.66,0,0,0-.668.668A.66.66,0,0,0,29.326.059Zm6.9-4.154a2.427,2.427,0,0,0-2.561-2.1c-1.682,0-2.8,1.23-2.8,3.152,0,1.963,1.125,3.152,2.813,3.152a2.427,2.427,0,0,0,2.561-2.068h-1A1.47,1.47,0,0,1,33.68-.791c-1.055,0-1.781-.838-1.781-2.256,0-1.383.715-2.256,1.77-2.256A1.5,1.5,0,0,1,35.227-4.1ZM39.7.105c1.682,0,2.818-1.213,2.818-3.152S41.379-6.2,39.7-6.2s-2.824,1.207-2.824,3.152S38.01.105,39.7.105Zm0-.9c-1.078,0-1.787-.82-1.787-2.256S38.619-5.3,39.7-5.3s1.781.82,1.781,2.256S40.775-.791,39.7-.791ZM43.541,0h1.02V-3.82A1.4,1.4,0,0,1,45.955-5.3,1.157,1.157,0,0,1,47.2-4.084V0h1.02V-3.873A1.348,1.348,0,0,1,49.6-5.3a1.185,1.185,0,0,1,1.266,1.324V0h1.02V-4.207A1.866,1.866,0,0,0,49.9-6.2a2.039,2.039,0,0,0-1.91,1.16h-.023A1.705,1.705,0,0,0,46.254-6.2a1.822,1.822,0,0,0-1.729,1.078H44.5v-.973h-.961Z" transform="translate(231.085 14.645)" fill="#e9e9e9"/><path d="M0,10V4H1V3A3,3,0,1,1,7,3V4H8v6ZM6,4V3A2,2,0,0,0,2,3V4Z" transform="translate(218.148 6)" fill="#e9e9e9"/></g><g transform="translate(139 8)"><g transform="matrix(1, 0, 0, 1, -223, -60)" filter="url(#j)"><rect width="37" height="22" rx="4" transform="translate(223 60)" fill="#626263"/></g><g transform="translate(11 5)"><path d="M14,12H1a1,1,0,0,1-1-1V1A1,1,0,0,1,1,0H14a1,1,0,0,1,1,1V11A1,1,0,0,1,14,12ZM6,1V11h8V1ZM1,1V11H5V1Z" fill="#e9e9eb"/><rect width="2" height="1" transform="translate(2 2)" fill="#b5b5b6"/><rect width="2" height="1" transform="translate(2 4)" fill="#b5b5b6"/><rect width="2" height="1" transform="translate(2 6)" fill="#b5b5b6"/></g></g><g transform="translate(104 8)"><g transform="matrix(1, 0, 0, 1, -188, -60)" filter="url(#l)"><rect width="25" height="22" rx="4" transform="translate(188 60)" fill="#626263"/></g><g transform="translate(3.671 4.245)"><path d="M.75,9A.75.75,0,0,1,0,8.25V.75a.75.75,0,0,1,1.5,0V7.5H8.25a.75.75,0,0,1,0,1.5Z" transform="translate(6.364 12.728) rotate(-135)" fill="#848486"/></g></g><g transform="translate(78 8)"><g transform="matrix(1, 0, 0, 1, -162, -60)" filter="url(#n)"><rect width="25" height="22" rx="4" transform="translate(162 60)" fill="#626263"/></g><g transform="translate(8.971 4.245)"><path d="M0,8.25V.75A.75.75,0,0,1,.75,0h7.5a.75.75,0,0,1,0,1.5H1.5V8.25a.75.75,0,0,1-1.5,0Z" transform="translate(0 6.364) rotate(-45)" fill="#848486"/></g></g><g transform="translate(13 13)"><circle cx="6" cy="6" r="6" fill="#ff5f57"/><circle cx="6" cy="6" r="6" transform="translate(20)" fill="#ffbd2e"/><circle cx="6" cy="6" r="6" transform="translate(40)" fill="#27c940"/></g></g></g><g transform="translate(-3249 191)"><g transform="translate(426 20227)" fill="#fff" stroke="#707070" stroke-width="1"><rect width="1257" height="879" rx="26" stroke="none"/><rect x="0.5" y="0.5" width="1256" height="878" rx="25.5" fill="none"/></g><g transform="translate(426 20227)"><path d="M15,0H1242a15,15,0,0,1,15,15v89a0,0,0,0,1,0,0H0a0,0,0,0,1,0,0V15A15,15,0,0,1,15,0Z" fill="#17a2b8"/><text transform="translate(130 62)" fill="#fff" font-size="37" font-family="SegoeUI, Segoe UI"><tspan x="0" y="0">BlogList</tspan></text><g transform="translate(105 28)"><g transform="translate(185)"><rect width="76" height="38" rx="4" fill="none"/><text transform="translate(38 28)" fill="#fff" font-size="24" font-family="ArialMT, Arial"><tspan x="-32.01" y="0">Home</tspan></text></g></g><g transform="translate(508 22)"><g transform="translate(-13)"><g fill="#fff" stroke="#ced4da" stroke-width="1"><rect width="351" height="50" rx="4" stroke="none"/><rect x="0.5" y="0.5" width="350" height="49" rx="3.5" fill="none"/></g><text transform="translate(13 34)" fill="#868e96" font-size="25" font-family="ArialMT, Arial"><tspan x="0" y="0">Search</tspan></text></g></g><path d="M59.279,49.368V3.291A3.227,3.227,0,0,0,56.1,0H12.7A12.943,12.943,0,0,0,0,13.165V57.048A12.943,12.943,0,0,0,12.7,70.213H56.1a3.227,3.227,0,0,0,3.176-3.291V64.728A3.364,3.364,0,0,0,58.1,62.163a31.679,31.679,0,0,1,0-10.244A3.314,3.314,0,0,0,59.279,49.368ZM16.937,18.376a.811.811,0,0,1,.794-.823H45.783a.811.811,0,0,1,.794.823v2.743a.811.811,0,0,1-.794.823H17.731a.811.811,0,0,1-.794-.823Zm0,8.777a.811.811,0,0,1,.794-.823H45.783a.811.811,0,0,1,.794.823V29.9a.811.811,0,0,1-.794.823H17.731a.811.811,0,0,1-.794-.823Zm33.53,34.284H12.7a4.391,4.391,0,0,1,0-8.777H50.467A51.159,51.159,0,0,0,50.467,61.436Z" transform="translate(32.721 16.894)" fill="#cbf3f0" stroke="#7a7a7a" stroke-width="0.5"/><g transform="translate(211 28)"><g transform="translate(185)"><rect width="76" height="39" rx="4" fill="none"/><text transform="translate(38 28)" fill="#fff" font-size="23" font-family="ArialMT, Arial"><tspan x="-30.03" y="0">Users</tspan></text></g></g></g><g transform="translate(1381 20259)"><rect width="76" height="38" rx="4" fill="none"/><text transform="translate(76 29)" fill="#fff" font-size="28" font-family="ArialMT, Arial"><tspan x="-66.145" y="0">Hello Alex!</tspan></text></g><g transform="translate(1544 20256)"><path d="M6.453,0H114.547C118.111,0,121,2.369,121,5.29V35.71c0,2.922-2.889,5.29-6.453,5.29H6.453C2.889,41,0,38.631,0,35.71V5.29C0,2.369,2.889,0,6.453,0Z" fill="#cbf3f0"/><text transform="translate(16 28)" fill="#17a2b8" font-size="23" font-family="ArialMT, Arial"><tspan x="0" y="0">Sign Out</tspan></text></g><g transform="translate(466 20372.5)"><rect width="498.271" height="71.167" fill="#fff"/><rect width="498.271" height="1" transform="translate(0 70.167)" fill="rgba(0,0,0,0.12)"/><text transform="translate(21 30.187)" fill="#212529" font-size="20" font-family="SegoeUI, Segoe UI"><tspan x="0" y="22">React patterns</tspan></text><g transform="translate(0 142.335)" style="isolation:isolate"><rect width="498.271" height="71.167" fill="#fff"/><rect width="498.271" height="1" transform="translate(0 70.167)" fill="rgba(0,0,0,0.12)"/><text transform="translate(21 30.187)" fill="#212529" font-size="20" font-family="SegoeUI, Segoe UI"><tspan x="0" y="22">Canonical string reduction</tspan></text></g><g transform="translate(0 284.667)"><rect width="498.271" height="71.167" fill="#fff"/><rect width="498.271" height="1" transform="translate(0 70.167)" fill="rgba(0,0,0,0.12)"/><text transform="translate(21 30.187)" fill="#212529" font-size="20" font-family="SegoeUI, Segoe UI"><tspan x="0" y="22">TDD harms architecture</tspan></text></g><g transform="translate(0 71.167)" style="isolation:isolate"><rect width="498.271" height="71.167" fill="#fff"/><rect width="498.271" height="1" transform="translate(0 70.167)" fill="rgba(0,0,0,0.12)"/><text transform="translate(21 30.187)" fill="#212529" font-size="20" font-family="SegoeUI, Segoe UI"><tspan x="0" y="22">Go To Statement Considered Harmful</tspan></text></g><g transform="translate(0 213.502)"><rect width="498.271" height="71.167" fill="#fff"/><rect width="498.271" height="1" transform="translate(0 70.167)" fill="rgba(0,0,0,0.12)"/><text transform="translate(21 30.187)" fill="#212529" font-size="20" font-family="SegoeUI, Segoe UI"><tspan x="0" y="22">First class tests</tspan></text></g><g transform="translate(0 355.837)"><rect width="498.271" height="71.167" fill="#fff"/><rect width="498.271" height="1" transform="translate(0 70.167)" fill="rgba(0,0,0,0.12)"/><text transform="translate(21 30.187)" fill="#212529" font-size="20" font-family="SegoeUI, Segoe UI"><tspan x="0" y="22">Type wars</tspan></text></g></g><g transform="translate(912.341 20567.963)"><ellipse cx="41.223" cy="41.013" rx="41.223" ry="41.013" transform="translate(641.948 18.664)" fill="#ff6584"/><path d="M760.256,307.719l-32.3-63.094,32.4,55.216.294-22.584-22.195-45.609,22.277,39.638.528-40.615-24.129-36.5,24.209,30.115,1.763-74.14.009-.308v.313l-.278,94.07,26.638-38.08L762.909,252.2l1.052,45.406.109-1.2,30.717-40.173-30.753,44.423.133,5.679.051.09-.038.464,1.393,60.1q-3.015.125-6.091.1l.059-4.675-28.025-46.018L759.6,357.938Z" transform="translate(-231.579 -139.993)" fill="#3f3d56"/><path d="M586.861,349.469l-32.3-63.094,32.4,55.216.294-22.584-22.2-45.609,22.277,39.638.528-40.615-24.129-36.5,24.209,30.115,1.763-74.14.009-.308v.313l-.278,94.07,26.639-38.08-26.563,46.057,1.052,45.406.109-1.2,30.717-40.173L590.639,342.4l.133,5.679.051.09-.038.464,1.393,60.1q-3.015.125-6.091.1l.059-4.675L558.121,358.14,586.2,399.689Z" transform="translate(-208.666 -145.694)" fill="#cbcbcb"/><path d="M909.483,296.318l-32.3-63.094,32.4,55.215.294-22.584-22.2-45.609,22.277,39.638.528-40.615-24.129-36.5,24.209,30.115,1.763-74.14.009-.308v.313l-.278,94.07,26.638-38.08-26.563,46.056,1.052,45.406.109-1.2,30.717-40.173L913.26,289.251l.133,5.679.051.09-.038.464,1.393,60.1q-3.015.125-6.091.1l.059-4.675-28.025-46.019,28.082,41.549Z" transform="translate(-251.298 -138.436)" fill="#3f3d56"/><path d="M258.184,546.344a518.973,518.973,0,0,1,59.054-37.464c57.365-31.494,127.91-58.422,208.11-79.283q8.267-2.157,16.672-4.217,17.85-4.4,36.292-8.37,4.556-.978,9.136-1.947,25.666-5.369,52.355-9.913c.357-.065.715-.121,1.08-.178q6.265-1.079,12.587-2.085c84.212-13.614,175.473-21.1,270.819-21.217.788-.008,1.584-.008,2.371-.008V709.686H156C156,650.214,193.176,594.441,258.184,546.344Z" transform="translate(-156 -171.65)" fill="#f1f1f1"/><path d="M438.187,595.644c32.84-24.295,74.889-46.053,124.126-64.4q8.2-3.066,16.664-5.987c.788-.275,1.583-.549,2.379-.824q10.78-3.684,21.975-7.175,18.917-5.882,38.906-11.117,14.309-3.761,29.121-7.166,4.759-1.107,9.558-2.149,10.91-2.416,22.08-4.621c76.132-15.093,161.026-23.52,250.541-23.52V721.569H359.407C359.407,675.719,388.073,632.72,438.187,595.644Z" transform="translate(-182.878 -183.533)" fill="#ffc107"/><path d="M432.234,714.482l1.47.695a158.028,158.028,0,0,1,18.174-28.965l-1.283-.994A160.135,160.135,0,0,0,432.234,714.482Zm41.83-54.633,1.113,1.18A290.715,290.715,0,0,1,500.27,640.3c.487-.364.983-.727,1.478-1.091l-.966-1.3c-.5.364-.991.727-1.486,1.1a293.618,293.618,0,0,0-25.23,20.845Zm55.571-41.019.836,1.381c9.469-5.688,19.628-11.279,30.185-16.619l-.739-1.446C549.327,607.511,539.136,613.126,529.635,618.83ZM591.247,587.5l.641,1.479c10.257-4.436,21.033-8.766,32.012-12.863l-.568-1.511c-11.012,4.1-21.8,8.443-32.085,12.9ZM656,563.252l.5,1.535c2.875-.929,5.758-1.842,8.673-2.755,7.942-2.464,16.144-4.888,24.387-7.183l-.438-1.559c-8.259,2.3-16.477,4.726-24.435,7.207q-4.369,1.362-8.681,2.755ZM732.767,542.2c-3.4.776-6.829,1.584-10.175,2.392l.382,1.568c3.346-.8,6.765-1.608,10.167-2.392,3.224-.743,6.432-1.47,9.542-2.141,4.637-1.026,9.347-2.036,13.992-2.989l-.325-1.584c-4.661.961-9.371,1.963-14.016,2.989-3.11.679-6.334,1.406-9.566,2.157Zm57.56-11.594.284,1.592c11.182-1.947,22.665-3.773,34.115-5.421l-.236-1.6c-11.466,1.656-22.958,3.482-34.164,5.429Zm68.474-9.881.187,1.608c11.32-1.309,22.884-2.488,34.375-3.515l-.146-1.608c-11.5,1.026-23.079,2.205-34.416,3.514Zm68.921-6.124.1,1.616c11.4-.719,23.014-1.3,34.513-1.729l-.057-1.616c-11.525.436-23.146,1.018-34.558,1.728Z" transform="translate(-192.502 -189.567)" fill="#fff"/><path d="M620.128,645.475c71.755-53.091,206.364-88.834,360.577-88.834v176.94H565C565,701.505,585.062,671.418,620.128,645.475Z" transform="translate(-210.046 -195.544)" fill="#f1f1f1"/><path d="M258.184,572.389,411.309,609.8l154.773,37.82,360.577,88.106H156C156,676.259,193.176,620.486,258.184,572.389Z" transform="translate(-156 -197.695)" opacity="0.2"/><path d="M223.823,391.566h-5.2L216.144,371.6h7.68Z" transform="translate(-28.561 -50.744)" fill="#ffb7b7"/><path d="M379.966,537.91H363.189V537.7a6.514,6.514,0,0,1,6.53-6.5h10.248Z" transform="translate(-183.378 -192.07)" fill="#2f2e41"/><path d="M276.037,387.257l-5.026,1.343-7.595-18.647,7.418-1.981Z" transform="translate(-34.808 -50.249)" fill="#ffb7b7"/><path d="M434.432,532.935l-16.2,4.327-.055-.2a6.494,6.494,0,0,1,4.614-7.959h0l9.9-2.643Z" transform="translate(-190.614 -191.422)" fill="#2f2e41"/><path d="M355.936,424.964c-3.007,3.847,6.444,35.905,6.874,36.333s-.43,2.992-.43,2.992a2.1,2.1,0,0,0,.43,1.282c.43.427,0,.855,0,1.71s0,.855.859,2.565a6.77,6.77,0,0,1,.43,3.847l5.585,32.486a2.131,2.131,0,0,0-1.289,2.137c0,1.71,8.593,2.565,11.6,2.137s-2.148-38.47-2.148-38.47,0-9.831.859-10.686,0-.855,0-2.565-1.289-4.274-.859-5.557.859-19.662.859-19.662,9.881,18.38,9.881,20.945S391.6,461.3,391.6,461.3l19.763,40.111s-1.289,2.565,0,4.7,6.874.427,12.459-1.71-2.148-5.557-2.148-5.557l-12.03-34.127a21.7,21.7,0,0,1,.43-3.847c.43-2.137-1.289-1.282-2.578-2.137s-.859-.855,0-2.565-1.289-5.557-1.289-5.557l-5.585-31.631S358.943,421.117,355.936,424.964Z" transform="translate(-182.342 -176.746)" fill="#2f2e41"/><ellipse cx="11.17" cy="11.114" rx="11.17" ry="11.114" transform="translate(176.266 148.941)" fill="#ffb8b8"/><path d="M364.654,340.325s-15.239,6.947-16.528,10.367,8.129,35.085,8.129,35.085.571,13.314-1.147,18.443-1.431,5.921-1.431,5.921v3.847c0,2.137,13.748.427,20.622-1.71s24.489-1.71,26.207-2.137-2.874-5.921-2.874-5.921c6.015-.427,0-12.952,0-12.952s-.615-40.542-2.333-46.1-17.627-6.571-17.627-6.571l-8.1,2.724Z" transform="translate(-181.372 -165.769)" fill="#ffc107"/><path d="M383.249,318.28a10.778,10.778,0,0,0-1.521-8.059,12.107,12.107,0,0,0-8.186-5.29,16,16,0,0,0-9.574,1.613c-1.783.87-3.711,2.037-5.578,1.4l.548.979-1.388.016.507,1.145-1.325.188,1.025.612a23.318,23.318,0,0,0-2.727,7.832,5.362,5.362,0,0,0,.245,3.266,1.839,1.839,0,0,0,2.625.873c.52-.422.7-1.163,1.061-1.742s1.2-.984,1.637-.462l1.121-2.229.9.727a23.357,23.357,0,0,1,7.354-4.357,2.445,2.445,0,0,1,2.135-.058c1,.638.856,2.271,1.55,3.274,1.128,1.631,3.9.954,4.973,2.63a7.37,7.37,0,0,1,.629,2.1c.191.712.651,1.46,1.341,1.506C382.052,322.754,382.607,320.683,383.249,318.28Z" transform="translate(-182.28 -161.15)" fill="#2f2e41"/><path d="M417.379,419.142a4.674,4.674,0,0,1-.736-7.152L409.132,397.1l8.642,1.018,5.808,13.985a4.7,4.7,0,0,1,.041,6.261,4.755,4.755,0,0,1-6.244.779Z" transform="translate(-189.449 -173.758)" fill="#ffb8b8"/><path d="M408.557,400.9l-8.757-28.2-9.995-21.561a6.61,6.61,0,0,1,4.766-9.264h0a6.69,6.69,0,0,1,7.547,4.306l18.226,51.757a2.1,2.1,0,0,1-1.55,2.746l-7.782,1.651a2.165,2.165,0,0,1-.449.047,2.1,2.1,0,0,1-2.006-1.48Z" transform="translate(-186.814 -166.2)" fill="#ffc107"/><path d="M347.908,430.222a4.674,4.674,0,0,0-.85-7.139l4.065-16.163-8.211,2.869-2.6,14.909a4.7,4.7,0,0,0,1.332,6.119,4.756,4.756,0,0,0,6.265-.6Z" transform="translate(-180.274 -175.099)" fill="#ffb8b8"/><path d="M349.93,412.56a2.167,2.167,0,0,1-.448.051l-7.957.078a2.114,2.114,0,0,1-1.59-.7,2.091,2.091,0,0,1-.525-1.647l6.438-54.466a6.672,6.672,0,0,1,6.421-5.84h0a6.664,6.664,0,0,1,5.3,2.387,6.591,6.591,0,0,1,1.385,5.619l-5.026,23.211-2.362,29.424A2.089,2.089,0,0,1,349.93,412.56Z" transform="translate(-180.234 -167.331)" fill="#ffc107"/></g></g><path d="M32.505,4.4a9.615,9.615,0,0,0-13.12.956L18,6.785,16.615,5.358A9.615,9.615,0,0,0,3.495,4.4,10.1,10.1,0,0,0,2.8,19.02L16.4,33.068a2.2,2.2,0,0,0,3.185,0L33.195,19.02A10.09,10.09,0,0,0,32.505,4.4Z" transform="translate(-2363 20652.002)" fill="rgba(118,132,146,0.88)"/><path d="M32.505,4.4a9.615,9.615,0,0,0-13.12.956L18,6.785,16.615,5.358A9.615,9.615,0,0,0,3.495,4.4,10.1,10.1,0,0,0,2.8,19.02L16.4,33.068a2.2,2.2,0,0,0,3.185,0L33.195,19.02A10.09,10.09,0,0,0,32.505,4.4Z" transform="translate(-2363 20796.002)" fill="rgba(118,132,146,0.88)"/><path d="M32.505,4.4a9.615,9.615,0,0,0-13.12.956L18,6.785,16.615,5.358A9.615,9.615,0,0,0,3.495,4.4,10.1,10.1,0,0,0,2.8,19.02L16.4,33.068a2.2,2.2,0,0,0,3.185,0L33.195,19.02A10.09,10.09,0,0,0,32.505,4.4Z" transform="translate(-2363 20724.002)" fill="rgba(118,132,146,0.88)"/><path d="M32.505,4.4a9.615,9.615,0,0,0-13.12.956L18,6.785,16.615,5.358A9.615,9.615,0,0,0,3.495,4.4,10.1,10.1,0,0,0,2.8,19.02L16.4,33.068a2.2,2.2,0,0,0,3.185,0L33.195,19.02A10.09,10.09,0,0,0,32.505,4.4Z" transform="translate(-2363 20575.002)" fill="rgba(118,132,146,0.88)"/><g transform="translate(-728 -765)"><rect width="938" height="244" rx="64" transform="translate(-1921 21325)" fill="rgba(255,255,255,0.89)"/><text transform="translate(-1865 21432)" fill="#212529" font-size="55" font-family="SegoeUI-Bold, Segoe UI" font-weight="700"><tspan x="0" y="0">Gather the worlds knowledge </tspan><tspan x="0" y="68">and share it with your fingertips</tspan></text></g><path d="M32.505,4.4a9.615,9.615,0,0,0-13.12.956L18,6.785,16.615,5.358A9.615,9.615,0,0,0,3.495,4.4,10.1,10.1,0,0,0,2.8,19.02L16.4,33.068a2.2,2.2,0,0,0,3.185,0L33.195,19.02A10.09,10.09,0,0,0,32.505,4.4Z" transform="translate(-2363 20940.002)" fill="#dc3545"/><path d="M21.248,23.142H13.789L17.714,32.7a1.306,1.306,0,0,1-.664,1.687L13.593,35.9a1.244,1.244,0,0,1-1.641-.683l-3.73-9.08L2.129,32.4A1.244,1.244,0,0,1,0,31.5V1.287a1.244,1.244,0,0,1,2.129-.9l20,20.569A1.289,1.289,0,0,1,21.248,23.142Z" transform="translate(-2345 20958)"/><path d="M32.505,4.4a9.615,9.615,0,0,0-13.12.956L18,6.785,16.615,5.358A9.615,9.615,0,0,0,3.495,4.4,10.1,10.1,0,0,0,2.8,19.02L16.4,33.068a2.2,2.2,0,0,0,3.185,0L33.195,19.02A10.09,10.09,0,0,0,32.505,4.4Z" transform="translate(-2363 20868.002)" fill="rgba(118,132,146,0.88)"/></g></svg>