<svg xmlns="http://www.w3.org/2000/svg" xmlns:xlink="http://www.w3.org/1999/xlink" width="1448.147" height="1068.414" viewBox="0 0 1448.147 1068.414"><defs><filter id="a" x="0" y="0" width="1448.147" height="1068.414" filterUnits="userSpaceOnUse"><feOffset input="SourceAlpha"/><feGaussianBlur stdDeviation="28" result="b"/><feFlood flood-opacity="0.22"/><feComposite operator="in" in2="b"/><feComposite in="SourceGraphic"/></filter><linearGradient id="c" x1="0.5" x2="0.5" y2="1" gradientUnits="objectBoundingBox"><stop offset="0" stop-color="#3a3a3d"/><stop offset="1" stop-color="#2e2e31"/></linearGradient><filter id="d" x="1294.147" y="59" width="37" height="23" filterUnits="userSpaceOnUse"><feOffset dy="-1" input="SourceAlpha"/><feGaussianBlur result="e"/><feFlood flood-color="#fff" flood-opacity="0.302"/><feComposite operator="in" in2="e"/><feComposite in="SourceGraphic"/></filter><filter id="f" x="1249.147" y="59" width="37" height="23" filterUnits="userSpaceOnUse"><feOffset dy="-1" input="SourceAlpha"/><feGaussianBlur result="g"/><feFlood flood-color="#fff" flood-opacity="0.302"/><feComposite operator="in" in2="g"/><feComposite in="SourceGraphic"/></filter><filter id="h" x="472.073" y="59" width="504" height="23" filterUnits="userSpaceOnUse"><feOffset dy="-1" input="SourceAlpha"/><feGaussianBlur result="i"/><feFlood flood-color="#fff" flood-opacity="0.302"/><feComposite operator="in" in2="i"/><feComposite in="SourceGraphic"/></filter><filter id="j" x="223" y="59" width="37" height="23" filterUnits="userSpaceOnUse"><feOffset dy="-1" input="SourceAlpha"/><feGaussianBlur result="k"/><feFlood flood-color="#fff" flood-opacity="0.302"/><feComposite operator="in" in2="k"/><feComposite in="SourceGraphic"/></filter><filter id="l" x="188" y="59" width="25" height="23" filterUnits="userSpaceOnUse"><feOffset dy="-1" input="SourceAlpha"/><feGaussianBlur result="m"/><feFlood flood-color="#fff" flood-opacity="0.302"/><feComposite operator="in" in2="m"/><feComposite in="SourceGraphic"/></filter><filter id="n" x="162" y="59" width="25" height="23" filterUnits="userSpaceOnUse"><feOffset dy="-1" input="SourceAlpha"/><feGaussianBlur result="o"/><feFlood flood-color="#fff" flood-opacity="0.302"/><feComposite operator="in" in2="o"/><feComposite in="SourceGraphic"/></filter></defs><g transform="translate(-4214.136 -18220.586)"><g transform="translate(3016.039)"><g transform="translate(962.097 18092.586)"><g transform="matrix(1, 0, 0, 1, 236, 128)" filter="url(#a)"><rect width="1280.147" height="900.414" rx="8" transform="translate(84 84)" fill="#fff"/></g><rect width="1280.147" height="932.414" rx="6" transform="translate(320 180)" fill="#2c2d30"/><path d="M0,0H1280.147a0,0,0,0,1,0,0V888.414a6,6,0,0,1-6,6H6a6,6,0,0,1-6-6V0A0,0,0,0,1,0,0Z" transform="translate(320 218)" fill="#2c2d30"/><g transform="translate(320 180)"><path d="M6,0H1274.147a6,6,0,0,1,6,6V38a0,0,0,0,1,0,0H0a0,0,0,0,1,0,0V6A6,6,0,0,1,6,0Z" fill="url(#c)"/><rect width="1280.147" height="1" transform="translate(0 37)"/><g transform="translate(1255.147 12)"><rect width="24" height="24" transform="translate(1 1)" fill="#232326"/><path d="M5,11V6H0V5H5V0H6V5h5V6H6v5Z" transform="translate(7 8)" fill="#9a9a9b"/><path d="M0,25V0H25V1H1V25Z" fill="#58585a"/></g><g transform="translate(1210.147 8)"><g transform="matrix(1, 0, 0, 1, -1294.15, -60)" filter="url(#d)"><rect width="37" height="22" rx="4" transform="translate(1294.15 60)" fill="#626263"/></g><g transform="translate(13 5)"><g transform="translate(0 3)" fill="none" stroke="#e8e8ea" stroke-width="1"><rect width="9" height="9" rx="1" stroke="none"/><rect x="0.5" y="0.5" width="8" height="8" rx="0.5" fill="none"/></g><path d="M8,9H7V8H8V1H1V2H0V1A1,1,0,0,1,1,0H8A1,1,0,0,1,9,1V8A1,1,0,0,1,8,9Z" transform="translate(3)" fill="#e8e8ea"/></g></g><g transform="translate(1165.147 8)"><g transform="matrix(1, 0, 0, 1, -1249.15, -60)" filter="url(#f)"><rect width="37" height="22" rx="4" transform="translate(1249.15 60)" fill="#626263"/></g><g transform="translate(13 4.003)"><path d="M10,10H1A1,1,0,0,1,0,9V1A1,1,0,0,1,1,0H4V1H1V9h9V1H7V0h3a1,1,0,0,1,1,1V9A1,1,0,0,1,10,10Z" transform="translate(0 4.997)" fill="#848485"/><path d="M2.5,10V1.938L.888,3.923a.5.5,0,1,1-.777-.629L2.549.284A.5.5,0,0,1,2.686.112a.527.527,0,0,1,.646,0,.513.513,0,0,1,.137.173l2.437,3.01a.5.5,0,0,1-.778.629L3.5,1.908V10Z" transform="translate(2.503)" fill="#848485"/></g></g><g transform="translate(388.073 8)"><g transform="matrix(1, 0, 0, 1, -472.07, -60)" filter="url(#h)"><rect width="504" height="22" rx="4" transform="translate(472.07 60)" fill="#626263"/></g><path d="M2.672-.762c-.732,0-1.219-.381-1.219-.961s.469-.937,1.289-.99l1.629-.1v.5A1.6,1.6,0,0,1,2.672-.762ZM2.443.105A2.222,2.222,0,0,0,4.4-1.049h.023V0h.967V-4.213c0-1.213-.9-1.986-2.332-1.986A2.151,2.151,0,0,0,.645-4.336h.984A1.279,1.279,0,0,1,3.035-5.3c.844,0,1.336.445,1.336,1.189v.51l-1.746.1C1.219-3.422.416-2.766.416-1.723A1.83,1.83,0,0,0,2.443.105Zm7.2-6.3A2.187,2.187,0,0,0,7.676-5.062H7.652V-6.094H6.686V2.033h1.02V-.99h.023A2.141,2.141,0,0,0,9.668.105c1.535,0,2.584-1.242,2.584-3.152S11.2-6.2,9.645-6.2Zm-.2,5.408C8.4-.791,7.7-1.687,7.7-3.047S8.4-5.3,9.445-5.3c1.084,0,1.764.879,1.764,2.256S10.529-.791,9.445-.791ZM16.236-6.2a2.187,2.187,0,0,0-1.969,1.137h-.023V-6.094h-.967V2.033H14.3V-.99h.023A2.141,2.141,0,0,0,16.26.105c1.535,0,2.584-1.242,2.584-3.152S17.789-6.2,16.236-6.2Zm-.2,5.408c-1.043,0-1.746-.9-1.746-2.256s.7-2.256,1.746-2.256c1.084,0,1.764.879,1.764,2.256S17.121-.791,16.037-.791ZM19.922,0h1.02V-8.455h-1.02Zm4.84-5.314a1.63,1.63,0,0,1,1.623,1.746H23.074A1.712,1.712,0,0,1,24.762-5.314Zm1.6,3.568a1.471,1.471,0,0,1-1.512.967,1.742,1.742,0,0,1-1.781-1.934v-.059h4.371v-.387C27.439-5,26.426-6.2,24.779-6.2c-1.682,0-2.76,1.283-2.76,3.176,0,1.916,1.061,3.129,2.807,3.129a2.413,2.413,0,0,0,2.537-1.852Zm2.965,1.8a.66.66,0,0,0,.668-.668.66.66,0,0,0-.668-.668.66.66,0,0,0-.668.668A.66.66,0,0,0,29.326.059Zm6.9-4.154a2.427,2.427,0,0,0-2.561-2.1c-1.682,0-2.8,1.23-2.8,3.152,0,1.963,1.125,3.152,2.813,3.152a2.427,2.427,0,0,0,2.561-2.068h-1A1.47,1.47,0,0,1,33.68-.791c-1.055,0-1.781-.838-1.781-2.256,0-1.383.715-2.256,1.77-2.256A1.5,1.5,0,0,1,35.227-4.1ZM39.7.105c1.682,0,2.818-1.213,2.818-3.152S41.379-6.2,39.7-6.2s-2.824,1.207-2.824,3.152S38.01.105,39.7.105Zm0-.9c-1.078,0-1.787-.82-1.787-2.256S38.619-5.3,39.7-5.3s1.781.82,1.781,2.256S40.775-.791,39.7-.791ZM43.541,0h1.02V-3.82A1.4,1.4,0,0,1,45.955-5.3,1.157,1.157,0,0,1,47.2-4.084V0h1.02V-3.873A1.348,1.348,0,0,1,49.6-5.3a1.185,1.185,0,0,1,1.266,1.324V0h1.02V-4.207A1.866,1.866,0,0,0,49.9-6.2a2.039,2.039,0,0,0-1.91,1.16h-.023A1.705,1.705,0,0,0,46.254-6.2a1.822,1.822,0,0,0-1.729,1.078H44.5v-.973h-.961Z" transform="translate(231 15)" fill="#e9e9e9"/><path d="M0,10V4H1V3A3,3,0,0,1,7,3V4H8v6ZM6,4V3A2,2,0,0,0,2,3V4Z" transform="translate(218 6)" fill="#e9e9e9"/></g><g transform="translate(139 8)"><g transform="matrix(1, 0, 0, 1, -223, -60)" filter="url(#j)"><rect width="37" height="22" rx="4" transform="translate(223 60)" fill="#626263"/></g><g transform="translate(11 5)"><path d="M14,12H1a1,1,0,0,1-1-1V1A1,1,0,0,1,1,0H14a1,1,0,0,1,1,1V11A1,1,0,0,1,14,12ZM6,1V11h8V1ZM1,1V11H5V1Z" fill="#e9e9eb"/><rect width="2" height="1" transform="translate(2 2)" fill="#b5b5b6"/><rect width="2" height="1" transform="translate(2 4)" fill="#b5b5b6"/><rect width="2" height="1" transform="translate(2 6)" fill="#b5b5b6"/></g></g><g transform="translate(104 8)"><g transform="matrix(1, 0, 0, 1, -188, -60)" filter="url(#l)"><rect width="25" height="22" rx="4" transform="translate(188 60)" fill="#626263"/></g><g transform="translate(3.5 4.6)"><path d="M.75,9A.75.75,0,0,1,0,8.25V.75a.75.75,0,0,1,1.5,0V7.5H8.25a.75.75,0,0,1,0,1.5Z" transform="translate(6.364 12.728) rotate(-135)" fill="#848486"/></g></g><g transform="translate(78 8)"><g transform="matrix(1, 0, 0, 1, -162, -60)" filter="url(#n)"><rect width="25" height="22" rx="4" transform="translate(162 60)" fill="#626263"/></g><g transform="translate(8.8 4.6)"><path d="M0,8.25V.75A.75.75,0,0,1,.75,0h7.5a.75.75,0,0,1,0,1.5H1.5V8.25a.75.75,0,0,1-1.5,0Z" transform="translate(0 6.364) rotate(-45)" fill="#848486"/></g></g><g transform="translate(13 13)"><circle cx="6" cy="6" r="6" fill="#ff5f57"/><circle cx="6" cy="6" r="6" transform="translate(20)" fill="#ffbd2e"/><circle cx="6" cy="6" r="6" transform="translate(40)" fill="#27c940"/></g></g></g></g><g transform="translate(3869.731 -1954)"><g transform="translate(440 20266)" fill="#35383e" stroke="#000" stroke-width="1"><rect width="1257" height="879" rx="26" stroke="none"/><rect x="0.5" y="0.5" width="1256" height="878" rx="25.5" fill="none"/></g></g><g transform="translate(5300.688 18312)" fill="#2f3137" stroke="#000" stroke-width="1"><path d="M0,0H240a26,26,0,0,1,26,26V853a26,26,0,0,1-26,26H0a0,0,0,0,1,0,0V0A0,0,0,0,1,0,0Z" stroke="none"/><path d="M1,.5H240A25.5,25.5,0,0,1,265.5,26V853A25.5,25.5,0,0,1,240,878.5H1a.5.5,0,0,1-.5-.5V1A.5.5,0,0,1,1,.5Z" fill="none"/></g><g transform="translate(5566.731 18312) rotate(90)" fill="#2f3137" stroke="#000" stroke-width="1"><path d="M26,0H70.543a0,0,0,0,1,0,0V944.043a0,0,0,0,1,0,0H0a0,0,0,0,1,0,0V26A26,26,0,0,1,26,0Z" stroke="none"/><path d="M26,.5H69.543a.5.5,0,0,1,.5.5V943.043a.5.5,0,0,1-.5.5H1a.5.5,0,0,1-.5-.5V26A25.5,25.5,0,0,1,26,.5Z" fill="none"/></g><g transform="translate(4409.688 18312)" fill="#2f3137" stroke="#000" stroke-width="1"><rect width="220" height="879" stroke="none"/><rect x="0.5" y="0.5" width="219" height="878" fill="none"/></g><g transform="translate(4309.688 18312)" fill="#202226" stroke="#000" stroke-width="1"><path d="M26,0h74a0,0,0,0,1,0,0V879a0,0,0,0,1,0,0H26A26,26,0,0,1,0,853V26A26,26,0,0,1,26,0Z" stroke="none"/><path d="M26,.5H99a.5.5,0,0,1,.5.5V878a.5.5,0,0,1-.5.5H26A25.5,25.5,0,0,1,.5,853V26A25.5,25.5,0,0,1,26,.5Z" fill="none"/></g><line x2="220" transform="translate(4409.688 18382.543)" fill="none" stroke="#000" stroke-width="1"/><g transform="translate(4671.688 19131)" fill="#464954" stroke="#464954" stroke-width="1"><rect width="598" height="31" rx="8" stroke="none"/><rect x="0.5" y="0.5" width="597" height="30" rx="7.5" fill="none"/></g><ellipse cx="28" cy="29.5" rx="28" ry="29.5" transform="translate(4331.688 18324)" fill="#5a6268"/><ellipse cx="28" cy="29.5" rx="28" ry="29.5" transform="translate(4331.688 18393)" fill="#5a6268"/><ellipse cx="28" cy="29.5" rx="28" ry="29.5" transform="translate(4331.688 18462)" fill="#5a6268"/><ellipse cx="28" cy="29.5" rx="28" ry="29.5" transform="translate(4331.688 18531)" fill="#5a6268"/><ellipse cx="28" cy="29.5" rx="28" ry="29.5" transform="translate(4331.688 18600)" fill="#5a6268"/><ellipse cx="28" cy="29.5" rx="28" ry="29.5" transform="translate(4331.688 18669)" fill="#5a6268"/><g transform="translate(4651.688 18629)" fill="#35383e" stroke="#35383e" stroke-width="1"><rect width="627" height="81" stroke="none"/><rect x="0.5" y="0.5" width="626" height="80" fill="none"/></g><g transform="translate(4656.688 18634)" fill="#ffc107" stroke="#ffc107" stroke-width="1"><ellipse cx="24" cy="25.5" rx="24" ry="25.5" stroke="none"/><ellipse cx="24" cy="25.5" rx="23.5" ry="25" fill="none"/></g><g transform="translate(4717.688 18636)" fill="#ffc107" stroke="#ffc107" stroke-width="1"><rect width="186" height="23" rx="8" stroke="none"/><rect x="0.5" y="0.5" width="185" height="22" rx="7.5" fill="none"/></g><g transform="translate(4717.688 18670)" fill="#929397" stroke="#929397" stroke-width="1"><rect width="105" height="23" rx="8" stroke="none"/><rect x="0.5" y="0.5" width="104" height="22" rx="7.5" fill="none"/></g><g transform="translate(4835.688 18670)" fill="#929397" stroke="#929397" stroke-width="1"><rect width="187" height="23" rx="8" stroke="none"/><rect x="0.5" y="0.5" width="186" height="22" rx="7.5" fill="none"/></g><g transform="translate(5035.688 18670)" fill="#929397" stroke="#929397" stroke-width="1"><rect width="105" height="23" rx="8" stroke="none"/><rect x="0.5" y="0.5" width="104" height="22" rx="7.5" fill="none"/></g><g transform="translate(4651.688 18729)" fill="#35383e" stroke="#35383e" stroke-width="1"><rect width="627" height="81" stroke="none"/><rect x="0.5" y="0.5" width="626" height="80" fill="none"/></g><g transform="translate(4656.688 18734)" fill="#218838" stroke="#1c7530" stroke-width="1"><ellipse cx="24" cy="25.5" rx="24" ry="25.5" stroke="none"/><ellipse cx="24" cy="25.5" rx="23.5" ry="25" fill="none"/></g><g transform="translate(4717.688 18736)" fill="#218838"><path d="M 178 22.5 L 8 22.5 C 3.864476203918457 22.5 0.5 19.13552474975586 0.5 15 L 0.5 8 C 0.5 3.864476203918457 3.864476203918457 0.5 8 0.5 L 178 0.5 C 182.1355285644531 0.5 185.5 3.864476203918457 185.5 8 L 185.5 15 C 185.5 19.13552474975586 182.1355285644531 22.5 178 22.5 Z" stroke="none"/><path d="M 8 1 C 4.14019775390625 1 1 4.140190124511719 1 8 L 1 15 C 1 18.85980987548828 4.14019775390625 22 8 22 L 178 22 C 181.8598022460938 22 185 18.85980987548828 185 15 L 185 8 C 185 4.140190124511719 181.8598022460938 1 178 1 L 8 1 M 8 0 L 178 0 C 182.4182586669922 0 186 3.581714630126953 186 8 L 186 15 C 186 19.41828536987305 182.4182586669922 23 178 23 L 8 23 C 3.581710815429688 23 0 19.41828536987305 0 15 L 0 8 C 0 3.581714630126953 3.581710815429688 0 8 0 Z" stroke="none" fill="#218838"/></g><g transform="translate(4717.688 18770)" fill="#929397" stroke="#929397" stroke-width="1"><rect width="187" height="23" rx="8" stroke="none"/><rect x="0.5" y="0.5" width="186" height="22" rx="7.5" fill="none"/></g><g transform="translate(5063.688 18770)" fill="#929397" stroke="#929397" stroke-width="1"><rect width="201" height="23" rx="8" stroke="none"/><rect x="0.5" y="0.5" width="200" height="22" rx="7.5" fill="none"/></g><g transform="translate(4917.688 18770)" fill="#929397" stroke="#929397" stroke-width="1"><rect width="133" height="23" rx="8" stroke="none"/><rect x="0.5" y="0.5" width="132" height="22" rx="7.5" fill="none"/></g><g transform="translate(4651.688 18829)" fill="#35383e" stroke="#35383e" stroke-width="1"><rect width="627" height="266" stroke="none"/><rect x="0.5" y="0.5" width="626" height="265" fill="none"/></g><g transform="translate(4656.688 18834)" fill="#58aaff" stroke="#58aaff" stroke-width="1"><ellipse cx="24" cy="25.5" rx="24" ry="25.5" stroke="none"/><ellipse cx="24" cy="25.5" rx="23.5" ry="25" fill="none"/></g><g transform="translate(4717.688 18836)" fill="#58aaff" stroke="#58aaff" stroke-width="1"><rect width="186" height="23" rx="8" stroke="none"/><rect x="0.5" y="0.5" width="185" height="22" rx="7.5" fill="none"/></g><g transform="translate(4723.688 18873)" fill="#26292e" stroke="#26292e" stroke-width="1"><rect width="441" height="194" rx="8" stroke="none"/><rect x="0.5" y="0.5" width="440" height="193" rx="7.5" fill="none"/></g><g transform="translate(4743.688 18885)" fill="#a447eb" stroke="#a447eb" stroke-width="1"><rect width="105" height="23" rx="8" stroke="none"/><rect x="0.5" y="0.5" width="104" height="22" rx="7.5" fill="none"/></g><g transform="translate(4743.688 18928)" fill="#929397" stroke="#929397" stroke-width="1"><rect width="397" height="23" rx="8" stroke="none"/><rect x="0.5" y="0.5" width="396" height="22" rx="7.5" fill="none"/></g><g transform="translate(4743.688 18971)" fill="#929397" stroke="#929397" stroke-width="1"><rect width="222" height="23" rx="8" stroke="none"/><rect x="0.5" y="0.5" width="221" height="22" rx="7.5" fill="none"/></g><g transform="translate(4743.688 19014)" fill="#929397" stroke="#929397" stroke-width="1"><rect width="222" height="23" rx="8" stroke="none"/><rect x="0.5" y="0.5" width="221" height="22" rx="7.5" fill="none"/></g><g transform="translate(4651.688 18512)" fill="#35383e" stroke="#35383e" stroke-width="1"><rect width="627" height="81" stroke="none"/><rect x="0.5" y="0.5" width="626" height="80" fill="none"/></g><g transform="translate(4656.688 18517)" fill="#218838" stroke="#1c7530" stroke-width="1"><ellipse cx="24" cy="25.5" rx="24" ry="25.5" stroke="none"/><ellipse cx="24" cy="25.5" rx="23.5" ry="25" fill="none"/></g><g transform="translate(4717.688 18519)" fill="#218838"><path d="M 178 22.5 L 8 22.5 C 3.864476203918457 22.5 0.5 19.13552474975586 0.5 15 L 0.5 8 C 0.5 3.864476203918457 3.864476203918457 0.5 8 0.5 L 178 0.5 C 182.1355285644531 0.5 185.5 3.864476203918457 185.5 8 L 185.5 15 C 185.5 19.13552474975586 182.1355285644531 22.5 178 22.5 Z" stroke="none"/><path d="M 8 1 C 4.14019775390625 1 1 4.140190124511719 1 8 L 1 15 C 1 18.85980987548828 4.14019775390625 22 8 22 L 178 22 C 181.8598022460938 22 185 18.85980987548828 185 15 L 185 8 C 185 4.140190124511719 181.8598022460938 1 178 1 L 8 1 M 8 0 L 178 0 C 182.4182586669922 0 186 3.581714630126953 186 8 L 186 15 C 186 19.41828536987305 182.4182586669922 23 178 23 L 8 23 C 3.581710815429688 23 0 19.41828536987305 0 15 L 0 8 C 0 3.581714630126953 3.581710815429688 0 8 0 Z" stroke="none" fill="#218838"/></g><g transform="translate(4717.688 18553)" fill="#929397" stroke="#929397" stroke-width="1"><rect width="187" height="23" rx="8" stroke="none"/><rect x="0.5" y="0.5" width="186" height="22" rx="7.5" fill="none"/></g><g transform="translate(5063.688 18553)" fill="#929397" stroke="#929397" stroke-width="1"><rect width="201" height="23" rx="8" stroke="none"/><rect x="0.5" y="0.5" width="200" height="22" rx="7.5" fill="none"/></g><g transform="translate(4917.688 18553)" fill="#929397" stroke="#929397" stroke-width="1"><rect width="133" height="23" rx="8" stroke="none"/><rect x="0.5" y="0.5" width="132" height="22" rx="7.5" fill="none"/></g><g transform="translate(4651.688 18512)" fill="#35383e" stroke="#35383e" stroke-width="1"><rect width="627" height="81" stroke="none"/><rect x="0.5" y="0.5" width="626" height="80" fill="none"/></g><ellipse cx="24" cy="25.5" rx="24" ry="25.5" transform="translate(4656.688 18517)" fill="#58aaff"/><path d="M8,0H178a8,8,0,0,1,8,8v7a8,8,0,0,1-8,8H8a8,8,0,0,1-8-8V8A8,8,0,0,1,8,0Z" transform="translate(4717.688 18519)" fill="#58aaff"/><g transform="translate(4717.688 18553)" fill="#929397" stroke="#929397" stroke-width="1"><rect width="187" height="23" rx="8" stroke="none"/><rect x="0.5" y="0.5" width="186" height="22" rx="7.5" fill="none"/></g><g transform="translate(5063.688 18553)" fill="#929397" stroke="#929397" stroke-width="1"><rect width="201" height="23" rx="8" stroke="none"/><rect x="0.5" y="0.5" width="200" height="22" rx="7.5" fill="none"/></g><g transform="translate(4917.688 18553)" fill="#929397" stroke="#929397" stroke-width="1"><rect width="133" height="23" rx="8" stroke="none"/><rect x="0.5" y="0.5" width="132" height="22" rx="7.5" fill="none"/></g><g transform="translate(4651.688 18395)" fill="#35383e" stroke="#35383e" stroke-width="1"><rect width="627" height="81" stroke="none"/><rect x="0.5" y="0.5" width="626" height="80" fill="none"/></g><ellipse cx="24" cy="25.5" rx="24" ry="25.5" transform="translate(4656.688 18400)" fill="#58aaff"/><path d="M8,0H178a8,8,0,0,1,8,8v7a8,8,0,0,1-8,8H8a8,8,0,0,1-8-8V8A8,8,0,0,1,8,0Z" transform="translate(4717.688 18402)" fill="#58aaff"/><g transform="translate(4717.688 18436)" fill="#929397" stroke="#929397" stroke-width="1"><rect width="187" height="23" rx="8" stroke="none"/><rect x="0.5" y="0.5" width="186" height="22" rx="7.5" fill="none"/></g><g transform="translate(5063.688 18436)" fill="#929397" stroke="#929397" stroke-width="1"><rect width="201" height="23" rx="8" stroke="none"/><rect x="0.5" y="0.5" width="200" height="22" rx="7.5" fill="none"/></g><g transform="translate(4917.688 18436)" fill="#929397" stroke="#929397" stroke-width="1"><rect width="133" height="23" rx="8" stroke="none"/><rect x="0.5" y="0.5" width="132" height="22" rx="7.5" fill="none"/></g><rect width="187" height="23" rx="8" transform="translate(4426.688 18411)" fill="#5a6268"/><rect width="187" height="23" rx="8" transform="translate(4426.688 18451)" fill="#5a6268"/><rect width="187" height="23" rx="8" transform="translate(4426.688 18811)" fill="#5a6268"/><rect width="187" height="23" rx="8" transform="translate(4426.688 18651)" fill="#5a6268"/><rect width="187" height="23" rx="8" transform="translate(4426.688 18691)" fill="#5a6268"/><rect width="187" height="23" rx="8" transform="translate(4426.688 18731)" fill="#5a6268"/><rect width="187" height="23" rx="8" transform="translate(4426.688 18771)" fill="#5a6268"/><rect width="187" height="23" rx="8" transform="translate(4426.688 18491)" fill="#5a6268"/><rect width="187" height="23" rx="8" transform="translate(4426.688 18531)" fill="#5a6268"/><rect width="187" height="23" rx="8" transform="translate(4426.688 18571)" fill="#5a6268"/><rect width="187" height="23" rx="8" transform="translate(4426.688 18611)" fill="#5a6268"/><rect width="252" height="81" transform="translate(5307.688 18410)" fill="#2f3137"/><g transform="translate(5312.688 18415)" fill="#ffc107" stroke="#ffc107" stroke-width="1"><ellipse cx="24" cy="25.5" rx="24" ry="25.5" stroke="none"/><ellipse cx="24" cy="25.5" rx="23.5" ry="25" fill="none"/></g><g transform="translate(5373.688 18417)" fill="#ffc107" stroke="#ffc107" stroke-width="1"><rect width="186" height="23" rx="8" stroke="none"/><rect x="0.5" y="0.5" width="185" height="22" rx="7.5" fill="none"/></g><g transform="translate(5373.688 18451)" fill="#929397" stroke="#929397" stroke-width="1"><rect width="186" height="23" rx="8" stroke="none"/><rect x="0.5" y="0.5" width="185" height="22" rx="7.5" fill="none"/></g><rect width="252" height="81" transform="translate(5307.688 18501)" fill="#2f3137"/><g transform="translate(5312.688 18506)" fill="#ffc107" stroke="#ffc107" stroke-width="1"><ellipse cx="24" cy="25.5" rx="24" ry="25.5" stroke="none"/><ellipse cx="24" cy="25.5" rx="23.5" ry="25" fill="none"/></g><g transform="translate(5373.688 18508)" fill="#ffc107" stroke="#ffc107" stroke-width="1"><rect width="186" height="23" rx="8" stroke="none"/><rect x="0.5" y="0.5" width="185" height="22" rx="7.5" fill="none"/></g><g transform="translate(5373.688 18542)" fill="#929397" stroke="#929397" stroke-width="1"><rect width="186" height="23" rx="8" stroke="none"/><rect x="0.5" y="0.5" width="185" height="22" rx="7.5" fill="none"/></g><rect width="252" height="81" transform="translate(5307.688 18501)" fill="#2f3137"/><ellipse cx="24" cy="25.5" rx="24" ry="25.5" transform="translate(5312.688 18506)" fill="#218838"/><rect width="186" height="23" rx="8" transform="translate(5373.688 18508)" fill="#218838"/><g transform="translate(5373.688 18542)" fill="#929397" stroke="#929397" stroke-width="1"><rect width="186" height="23" rx="8" stroke="none"/><rect x="0.5" y="0.5" width="185" height="22" rx="7.5" fill="none"/></g><rect width="252" height="81" transform="translate(5307.688 18592)" fill="#2f3137"/><g transform="translate(5312.688 18597)" fill="#ffc107" stroke="#ffc107" stroke-width="1"><ellipse cx="24" cy="25.5" rx="24" ry="25.5" stroke="none"/><ellipse cx="24" cy="25.5" rx="23.5" ry="25" fill="none"/></g><g transform="translate(5373.688 18599)" fill="#ffc107" stroke="#ffc107" stroke-width="1"><rect width="186" height="23" rx="8" stroke="none"/><rect x="0.5" y="0.5" width="185" height="22" rx="7.5" fill="none"/></g><g transform="translate(5373.688 18633)" fill="#929397" stroke="#929397" stroke-width="1"><rect width="186" height="23" rx="8" stroke="none"/><rect x="0.5" y="0.5" width="185" height="22" rx="7.5" fill="none"/></g><rect width="252" height="81" transform="translate(5307.688 18592)" fill="#2f3137"/><ellipse cx="24" cy="25.5" rx="24" ry="25.5" transform="translate(5312.688 18597)" fill="#58aaff"/><rect width="186" height="23" rx="8" transform="translate(5373.688 18599)" fill="#58aaff"/><g transform="translate(5373.688 18633)" fill="#929397" stroke="#929397" stroke-width="1"><rect width="186" height="23" rx="8" stroke="none"/><rect x="0.5" y="0.5" width="185" height="22" rx="7.5" fill="none"/></g><rect width="252" height="81" transform="translate(5307.688 18683)" fill="#2f3137"/><g transform="translate(5312.688 18688)" fill="#ffc107" stroke="#ffc107" stroke-width="1"><ellipse cx="24" cy="25.5" rx="24" ry="25.5" stroke="none"/><ellipse cx="24" cy="25.5" rx="23.5" ry="25" fill="none"/></g><g transform="translate(5373.688 18690)" fill="#ffc107" stroke="#ffc107" stroke-width="1"><rect width="186" height="23" rx="8" stroke="none"/><rect x="0.5" y="0.5" width="185" height="22" rx="7.5" fill="none"/></g><g transform="translate(5373.688 18724)" fill="#929397" stroke="#929397" stroke-width="1"><rect width="186" height="23" rx="8" stroke="none"/><rect x="0.5" y="0.5" width="185" height="22" rx="7.5" fill="none"/></g><rect width="252" height="81" transform="translate(5307.688 18683)" fill="#2f3137"/><ellipse cx="24" cy="25.5" rx="24" ry="25.5" transform="translate(5312.688 18688)" fill="#58aaff"/><rect width="186" height="23" rx="8" transform="translate(5373.688 18690)" fill="#58aaff"/><g transform="translate(5373.688 18724)" fill="#929397" stroke="#929397" stroke-width="1"><rect width="186" height="23" rx="8" stroke="none"/><rect x="0.5" y="0.5" width="185" height="22" rx="7.5" fill="none"/></g><rect width="252" height="81" transform="translate(5307.688 18774)" fill="#2f3137"/><g transform="translate(5312.688 18779)" fill="#ffc107" stroke="#ffc107" stroke-width="1"><ellipse cx="24" cy="25.5" rx="24" ry="25.5" stroke="none"/><ellipse cx="24" cy="25.5" rx="23.5" ry="25" fill="none"/></g><g transform="translate(5373.688 18781)" fill="#ffc107" stroke="#ffc107" stroke-width="1"><rect width="186" height="23" rx="8" stroke="none"/><rect x="0.5" y="0.5" width="185" height="22" rx="7.5" fill="none"/></g><g transform="translate(5373.688 18815)" fill="#929397" stroke="#929397" stroke-width="1"><rect width="186" height="23" rx="8" stroke="none"/><rect x="0.5" y="0.5" width="185" height="22" rx="7.5" fill="none"/></g><rect width="252" height="81" transform="translate(5307.688 18774)" fill="#2f3137"/><ellipse cx="24" cy="25.5" rx="24" ry="25.5" transform="translate(5312.688 18779)" fill="#58aaff"/><rect width="186" height="23" rx="8" transform="translate(5373.688 18781)" fill="#58aaff"/><g transform="translate(5373.688 18815)" fill="#929397" stroke="#929397" stroke-width="1"><rect width="186" height="23" rx="8" stroke="none"/><rect x="0.5" y="0.5" width="185" height="22" rx="7.5" fill="none"/></g><rect width="252" height="81" transform="translate(5307.688 18865)" fill="#2f3137"/><g transform="translate(5312.688 18870)" fill="#ffc107" stroke="#ffc107" stroke-width="1"><ellipse cx="24" cy="25.5" rx="24" ry="25.5" stroke="none"/><ellipse cx="24" cy="25.5" rx="23.5" ry="25" fill="none"/></g><g transform="translate(5373.688 18872)" fill="#ffc107" stroke="#ffc107" stroke-width="1"><rect width="186" height="23" rx="8" stroke="none"/><rect x="0.5" y="0.5" width="185" height="22" rx="7.5" fill="none"/></g><g transform="translate(5373.688 18906)" fill="#929397" stroke="#929397" stroke-width="1"><rect width="186" height="23" rx="8" stroke="none"/><rect x="0.5" y="0.5" width="185" height="22" rx="7.5" fill="none"/></g><rect width="252" height="81" transform="translate(5307.688 18865)" fill="#2f3137"/><ellipse cx="24" cy="25.5" rx="24" ry="25.5" transform="translate(5312.688 18870)" fill="#58aaff"/><rect width="186" height="23" rx="8" transform="translate(5373.688 18872)" fill="#58aaff"/><g transform="translate(5373.688 18906)" fill="#929397" stroke="#929397" stroke-width="1"><rect width="186" height="23" rx="8" stroke="none"/><rect x="0.5" y="0.5" width="185" height="22" rx="7.5" fill="none"/></g><rect width="252" height="81" transform="translate(5307.688 18956)" fill="#2f3137"/><g transform="translate(5312.688 18961)" fill="#ffc107" stroke="#ffc107" stroke-width="1"><ellipse cx="24" cy="25.5" rx="24" ry="25.5" stroke="none"/><ellipse cx="24" cy="25.5" rx="23.5" ry="25" fill="none"/></g><g transform="translate(5373.688 18963)" fill="#ffc107" stroke="#ffc107" stroke-width="1"><rect width="186" height="23" rx="8" stroke="none"/><rect x="0.5" y="0.5" width="185" height="22" rx="7.5" fill="none"/></g><g transform="translate(5373.688 18997)" fill="#929397" stroke="#929397" stroke-width="1"><rect width="186" height="23" rx="8" stroke="none"/><rect x="0.5" y="0.5" width="185" height="22" rx="7.5" fill="none"/></g><rect width="252" height="81" transform="translate(5307.688 18956)" fill="#2f3137"/><ellipse cx="24" cy="25.5" rx="24" ry="25.5" transform="translate(5312.688 18961)" fill="#58aaff"/><rect width="186" height="23" rx="8" transform="translate(5373.688 18963)" fill="#58aaff"/><g transform="translate(5373.688 18997)" fill="#929397" stroke="#929397" stroke-width="1"><rect width="186" height="23" rx="8" stroke="none"/><rect x="0.5" y="0.5" width="185" height="22" rx="7.5" fill="none"/></g><rect width="116" height="23" rx="8" transform="translate(4426.688 18336)" fill="#5a6268"/><rect width="149" height="23" rx="8" transform="translate(4651.688 18336)" fill="#5a6268"/><rect width="162" height="23" rx="8" transform="translate(4822.688 18336)" fill="#929397"/><rect width="264" height="23" rx="8" transform="translate(5006.688 18336)" fill="#929397"/><rect width="179" height="28" rx="4" transform="translate(5344.688 18333)" fill="#26292e"/></g></svg>