<svg xmlns="http://www.w3.org/2000/svg" xmlns:xlink="http://www.w3.org/1999/xlink" width="1448.147" height="1075.414" viewBox="0 0 1448.147 1075.414"><defs><filter id="a" x="0" y="0" width="1448.147" height="1068.414" filterUnits="userSpaceOnUse"><feOffset input="SourceAlpha"/><feGaussianBlur stdDeviation="28" result="b"/><feFlood flood-opacity="0.22"/><feComposite operator="in" in2="b"/><feComposite in="SourceGraphic"/></filter><linearGradient id="c" x1="0.5" x2="0.5" y2="1" gradientUnits="objectBoundingBox"><stop offset="0" stop-color="#3a3a3d"/><stop offset="1" stop-color="#2e2e31"/></linearGradient><filter id="d" x="1294.147" y="59" width="37" height="23" filterUnits="userSpaceOnUse"><feOffset dy="-1" input="SourceAlpha"/><feGaussianBlur result="e"/><feFlood flood-color="#fff" flood-opacity="0.302"/><feComposite operator="in" in2="e"/><feComposite in="SourceGraphic"/></filter><filter id="f" x="1249.147" y="59" width="37" height="23" filterUnits="userSpaceOnUse"><feOffset dy="-1" input="SourceAlpha"/><feGaussianBlur result="g"/><feFlood flood-color="#fff" flood-opacity="0.302"/><feComposite operator="in" in2="g"/><feComposite in="SourceGraphic"/></filter><filter id="h" x="472.074" y="59" width="504" height="23" filterUnits="userSpaceOnUse"><feOffset dy="-1" input="SourceAlpha"/><feGaussianBlur result="i"/><feFlood flood-color="#fff" flood-opacity="0.302"/><feComposite operator="in" in2="i"/><feComposite in="SourceGraphic"/></filter><filter id="j" x="223" y="59" width="37" height="23" filterUnits="userSpaceOnUse"><feOffset dy="-1" input="SourceAlpha"/><feGaussianBlur result="k"/><feFlood flood-color="#fff" flood-opacity="0.302"/><feComposite operator="in" in2="k"/><feComposite in="SourceGraphic"/></filter><filter id="l" x="188" y="59" width="25" height="23" filterUnits="userSpaceOnUse"><feOffset dy="-1" input="SourceAlpha"/><feGaussianBlur result="m"/><feFlood flood-color="#fff" flood-opacity="0.302"/><feComposite operator="in" in2="m"/><feComposite in="SourceGraphic"/></filter><filter id="n" x="162" y="59" width="25" height="23" filterUnits="userSpaceOnUse"><feOffset dy="-1" input="SourceAlpha"/><feGaussianBlur result="o"/><feFlood flood-color="#fff" flood-opacity="0.302"/><feComposite operator="in" in2="o"/><feComposite in="SourceGraphic"/></filter><linearGradient id="p" x1="0.5" y1="1" x2="0.5" gradientUnits="objectBoundingBox"><stop offset="0" stop-color="gray" stop-opacity="0.251"/><stop offset="0.54" stop-color="gray" stop-opacity="0.122"/><stop offset="1" stop-color="gray" stop-opacity="0.102"/></linearGradient></defs><g transform="translate(-5532.853 -17146.586)"><g transform="translate(2973.756 -15)"><g transform="translate(2323.097 17033.586)"><g transform="matrix(1, 0, 0, 1, 236, 128)" filter="url(#a)"><rect width="1280.147" height="900.414" rx="8" transform="translate(84 84)" fill="#fff"/></g><rect width="1280.147" height="932.414" rx="6" transform="translate(320 180)" fill="#2c2d30"/><path d="M0,0H1280.147a0,0,0,0,1,0,0V888.414a6,6,0,0,1-6,6H6a6,6,0,0,1-6-6V0A0,0,0,0,1,0,0Z" transform="translate(320 218)" fill="#2c2d30"/><g transform="translate(320 180)"><path d="M6,0H1274.147a6,6,0,0,1,6,6V38a0,0,0,0,1,0,0H0a0,0,0,0,1,0,0V6A6,6,0,0,1,6,0Z" fill="url(#c)"/><rect width="1280.147" height="1" transform="translate(0 37)"/><g transform="translate(1255.147 12)"><rect width="24" height="24" transform="translate(1 1)" fill="#232326"/><path d="M5,11V6H0V5H5V0H6V5h5V6H6v5Z" transform="translate(7 8)" fill="#9a9a9b"/><path d="M0,25V0H25V1H1V25Z" fill="#58585a"/></g><g transform="translate(1210.147 8)"><g transform="matrix(1, 0, 0, 1, -1294.15, -60)" filter="url(#d)"><rect width="37" height="22" rx="4" transform="translate(1294.15 60)" fill="#626263"/></g><g transform="translate(13 5)"><g transform="translate(0 3)" fill="none" stroke="#e8e8ea" stroke-width="1"><rect width="9" height="9" rx="1" stroke="none"/><rect x="0.5" y="0.5" width="8" height="8" rx="0.5" fill="none"/></g><path d="M8,9H7V8H8V1H1V2H0V1A1,1,0,0,1,1,0H8A1,1,0,0,1,9,1V8A1,1,0,0,1,8,9Z" transform="translate(3)" fill="#e8e8ea"/></g></g><g transform="translate(1165.147 8)"><g transform="matrix(1, 0, 0, 1, -1249.15, -60)" filter="url(#f)"><rect width="37" height="22" rx="4" transform="translate(1249.15 60)" fill="#626263"/></g><g transform="translate(13 4.003)"><path d="M10,10H1A1,1,0,0,1,0,9V1A1,1,0,0,1,1,0H4V1H1V9h9V1H7V0h3a1,1,0,0,1,1,1V9A1,1,0,0,1,10,10Z" transform="translate(0 4.997)" fill="#848485"/><path d="M2.5,10V1.938L.888,3.923a.5.5,0,1,1-.777-.629L2.549.284A.5.5,0,0,1,2.686.112a.527.527,0,0,1,.646,0,.513.513,0,0,1,.137.173l2.437,3.01a.5.5,0,0,1-.778.629L3.5,1.908V10Z" transform="translate(2.503)" fill="#848485"/></g></g><g transform="translate(388.073 8)"><g transform="matrix(1, 0, 0, 1, -472.07, -60)" filter="url(#h)"><rect width="504" height="22" rx="4" transform="translate(472.07 60)" fill="#626263"/></g><path d="M2.672-.762c-.732,0-1.219-.381-1.219-.961s.469-.937,1.289-.99l1.629-.1v.5A1.6,1.6,0,0,1,2.672-.762ZM2.443.105A2.222,2.222,0,0,0,4.4-1.049h.023V0h.967V-4.213c0-1.213-.9-1.986-2.332-1.986A2.151,2.151,0,0,0,.645-4.336h.984A1.279,1.279,0,0,1,3.035-5.3c.844,0,1.336.445,1.336,1.189v.51l-1.746.1C1.219-3.422.416-2.766.416-1.723A1.83,1.83,0,0,0,2.443.105Zm7.2-6.3A2.187,2.187,0,0,0,7.676-5.062H7.652V-6.094H6.686V2.033h1.02V-.99h.023A2.141,2.141,0,0,0,9.668.105c1.535,0,2.584-1.242,2.584-3.152S11.2-6.2,9.645-6.2Zm-.2,5.408C8.4-.791,7.7-1.687,7.7-3.047S8.4-5.3,9.445-5.3c1.084,0,1.764.879,1.764,2.256S10.529-.791,9.445-.791ZM16.236-6.2a2.187,2.187,0,0,0-1.969,1.137h-.023V-6.094h-.967V2.033H14.3V-.99h.023A2.141,2.141,0,0,0,16.26.105c1.535,0,2.584-1.242,2.584-3.152S17.789-6.2,16.236-6.2Zm-.2,5.408c-1.043,0-1.746-.9-1.746-2.256s.7-2.256,1.746-2.256c1.084,0,1.764.879,1.764,2.256S17.121-.791,16.037-.791ZM19.922,0h1.02V-8.455h-1.02Zm4.84-5.314a1.63,1.63,0,0,1,1.623,1.746H23.074A1.712,1.712,0,0,1,24.762-5.314Zm1.6,3.568a1.471,1.471,0,0,1-1.512.967,1.742,1.742,0,0,1-1.781-1.934v-.059h4.371v-.387C27.439-5,26.426-6.2,24.779-6.2c-1.682,0-2.76,1.283-2.76,3.176,0,1.916,1.061,3.129,2.807,3.129a2.413,2.413,0,0,0,2.537-1.852Zm2.965,1.8a.66.66,0,0,0,.668-.668.66.66,0,0,0-.668-.668.66.66,0,0,0-.668.668A.66.66,0,0,0,29.326.059Zm6.9-4.154a2.427,2.427,0,0,0-2.561-2.1c-1.682,0-2.8,1.23-2.8,3.152,0,1.963,1.125,3.152,2.813,3.152a2.427,2.427,0,0,0,2.561-2.068h-1A1.47,1.47,0,0,1,33.68-.791c-1.055,0-1.781-.838-1.781-2.256,0-1.383.715-2.256,1.77-2.256A1.5,1.5,0,0,1,35.227-4.1ZM39.7.105c1.682,0,2.818-1.213,2.818-3.152S41.379-6.2,39.7-6.2s-2.824,1.207-2.824,3.152S38.01.105,39.7.105Zm0-.9c-1.078,0-1.787-.82-1.787-2.256S38.619-5.3,39.7-5.3s1.781.82,1.781,2.256S40.775-.791,39.7-.791ZM43.541,0h1.02V-3.82A1.4,1.4,0,0,1,45.955-5.3,1.157,1.157,0,0,1,47.2-4.084V0h1.02V-3.873A1.348,1.348,0,0,1,49.6-5.3a1.185,1.185,0,0,1,1.266,1.324V0h1.02V-4.207A1.866,1.866,0,0,0,49.9-6.2a2.039,2.039,0,0,0-1.91,1.16h-.023A1.705,1.705,0,0,0,46.254-6.2a1.822,1.822,0,0,0-1.729,1.078H44.5v-.973h-.961Z" transform="translate(231 15)" fill="#e9e9e9"/><path d="M0,10V4H1V3A3,3,0,0,1,7,3V4H8v6ZM6,4V3A2,2,0,0,0,2,3V4Z" transform="translate(218 6)" fill="#e9e9e9"/></g><g transform="translate(139 8)"><g transform="matrix(1, 0, 0, 1, -223, -60)" filter="url(#j)"><rect width="37" height="22" rx="4" transform="translate(223 60)" fill="#626263"/></g><g transform="translate(11 5)"><path d="M14,12H1a1,1,0,0,1-1-1V1A1,1,0,0,1,1,0H14a1,1,0,0,1,1,1V11A1,1,0,0,1,14,12ZM6,1V11h8V1ZM1,1V11H5V1Z" fill="#e9e9eb"/><rect width="2" height="1" transform="translate(2 2)" fill="#b5b5b6"/><rect width="2" height="1" transform="translate(2 4)" fill="#b5b5b6"/><rect width="2" height="1" transform="translate(2 6)" fill="#b5b5b6"/></g></g><g transform="translate(104 8)"><g transform="matrix(1, 0, 0, 1, -188, -60)" filter="url(#l)"><rect width="25" height="22" rx="4" transform="translate(188 60)" fill="#626263"/></g><g transform="translate(3.5 4.6)"><path d="M.75,9A.75.75,0,0,1,0,8.25V.75a.75.75,0,0,1,1.5,0V7.5H8.25a.75.75,0,0,1,0,1.5Z" transform="translate(6.364 12.728) rotate(-135)" fill="#848486"/></g></g><g transform="translate(78 8)"><g transform="matrix(1, 0, 0, 1, -162, -60)" filter="url(#n)"><rect width="25" height="22" rx="4" transform="translate(162 60)" fill="#626263"/></g><g transform="translate(8.8 4.6)"><path d="M0,8.25V.75A.75.75,0,0,1,.75,0h7.5a.75.75,0,0,1,0,1.5H1.5V8.25a.75.75,0,0,1-1.5,0Z" transform="translate(0 6.364) rotate(-45)" fill="#848486"/></g></g><g transform="translate(13 13)"><circle cx="6" cy="6" r="6" fill="#ff5f57"/><circle cx="6" cy="6" r="6" transform="translate(20)" fill="#ffbd2e"/><circle cx="6" cy="6" r="6" transform="translate(40)" fill="#27c940"/></g></g></g></g><g transform="translate(1330.29 -9)"><g transform="translate(5106 18230)" fill="#fff" stroke="#707070" stroke-width="1"><rect width="10" height="1" stroke="none"/><rect x="0.5" y="0.5" width="9" fill="none"/></g><g transform="translate(4298.136 17254.414)" fill="#e8f7fa" stroke="#707070" stroke-width="1"><rect width="1257" height="879" rx="26" stroke="none"/><rect x="0.5" y="0.5" width="1256" height="878" rx="25.5" fill="none"/></g><g transform="translate(4422.958 17530.992)"><path d="M411,130.916c-34.108-1.242-66.6-12.77-97.617-25.385s-61.744-26.594-95.035-33.277c-21.412-4.3-45.9-4.906-63.151,7.113-16.606,11.589-21.971,31.539-24.854,50.07-2.171,13.94-3.447,28.608,2.5,41.66,4.126,9.062,11.457,16.677,16.522,25.385,17.639,30.2,5.175,67.437-13.939,96.923-8.959,13.835-19.367,27.041-26.282,41.754s-10.118,31.594-4.068,46.615c6,14.9,20.3,26.07,35.784,33.934,31.457,15.976,68.511,20.546,104.668,23.134,80.015,5.734,160.452,3.25,240.677.767,29.691-.922,59.509-1.854,88.716-6.661,16.221-2.671,32.964-6.9,44.743-17.135,14.946-12.985,18.651-34.977,8.638-51.257-16.806-27.311-63.24-34.094-75-63.408-6.461-16.131.179-34.1,9.57-49.066,20.153-32.1,53.928-60.257,55.71-96.945,1.223-25.2-15.02-50.434-40.126-62.36-26.313-12.544-62.814-10.954-82.218,9.735C476.245,123.83,441.115,132.009,411,130.916Z" transform="translate(-94.874 -55.076)" fill="#a1d491" opacity="0.1"/><path d="M257.466,559.454l-180.383-.922L59.16,514.511l63.378-4.818-11.046-48.266,125.353-17.014-120.036-43.7,10.6-2.638,193.015,32.974L309.8,506.377,294.6,547.771Z" transform="translate(-27.982 -178.393)" fill="#a1d491"/><path d="M187,698.694s11.067-1.854,17.707,6.335c0,0-4.87,4.018-15.346-1.545Z" transform="translate(-135.132 -336.992)" fill="#a1d491"/><path d="M180.719,698.51s-7.062,9.1-3.584,19.232c0,0,5.755-2.412,6.382-14.7Z" transform="translate(-130.011 -336.99)" fill="#a1d491"/><path d="M172.76,669.01s4.427-8.5,22.134,3.4c0,0-2.361,5.717-10.182,5.254S174.826,673.491,172.76,669.01Z" transform="translate(-128.397 -322.451)" fill="#a1d491"/><path d="M161.546,670.282s-9.186-1.1-10.076,20.915c0,0,5.823,1.264,9.96-5.7S163.87,674.626,161.546,670.282Z" transform="translate(-118.327 -324.336)" fill="#a1d491"/><path d="M160.44,631.837s5.165-14.988,23.9-4.327c0,0-4.279,13.752-21.987,9.426Z" transform="translate(-122.569 -303.456)" fill="#a1d491"/><path d="M149.52,592.119s9.739-15.143,27-1.1c0,0-6.05,14.216-25.528,6.49Z" transform="translate(-117.404 -286.143)" fill="#a1d491"/><path d="M145.6,554.2s11.362-13.912,28.458,0c0,0-10.772,12.207-28.458,3.554Z" transform="translate(-115.55 -269.547)" fill="#a1d491"/><path d="M142.24,516.257s11.51-14.525,27.889-.773c0,0-12.985,12.825-27.889,4.172Z" transform="translate(-113.961 -252.316)" fill="#a1d491"/><path d="M144.2,479.9s12.121-18.7,27.446-6.026c0,0-12.985,16.07-27.446,9.58Z" transform="translate(-114.888 -234.347)" fill="#a1d491"/><path d="M149.52,441.581s12.838-18.542,27.742-4.327c0,0-15.2,16.07-27.742,7.726Z" transform="translate(-117.404 -217.507)" fill="#a1d491"/><path d="M157.044,404.818s15.2-17.428,28.458-10.485c0,0-15.836,18.509-29.122,15.11Z" transform="translate(-120.649 -199.943)" fill="#a1d491"/><path d="M166.6,368.952s17.539-21.346,27.742-14.216c0,0-12.922,16.556-28.985,18.211Z" transform="translate(-124.897 -182.277)" fill="#a1d491"/><path d="M180.421,332.231s15.352-17.428,26.566-13.1c0,0-13.133,18.079-28.627,18.542Z" transform="translate(-131.046 -166.664)" fill="#a1d491"/><path d="M194.778,296.2s16.97-16.688,24.348-13.752c0,0-12.248,18.542-25.085,17.461Z" transform="translate(-138.462 -150.38)" fill="#a1d491"/><path d="M208.32,259.6s14.609-19.939,22.582-18.393c0,0-8.859,17.775-22.582,20.419Z" transform="translate(-145.217 -132.017)" fill="#a1d491"/><path d="M221.822,217.678s12.912-15.281,19.889-15.248c0,0-10.192,20.419-20.421,20.231Z" transform="translate(-151.351 -114.676)" fill="#a1d491"/><path d="M229.156,174.551,241.63,142.72s.622,28.774-14.06,37.736Z" transform="translate(-154.322 -87.917)" fill="#a1d491"/><path d="M240.114,113.446s2.066-26.583.738-28.746c0,0,8.917,22.1-.822,40.49Z" transform="translate(-160.215 -61.916)" fill="#a1d491"/><path d="M140.4,636.441s-12.933-8.394-21.307,12.141c0,0,11.51,8,22.83-6.9Z" transform="translate(-103.011 -308.413)" fill="#a1d491"/><path d="M127.587,595.255s-15.863-7.577-23.557,13.863c0,0,12.253,8.83,25-8.443Z" transform="translate(-95.888 -290.135)" fill="#a1d491"/><path d="M118.658,556.509s-11.362-13.912-28.458,0c0,0,10.772,12.207,28.458,3.554Z" transform="translate(-89.346 -270.582)" fill="#a1d491"/><path d="M116.469,516.257s-11.51-14.525-27.889-.773c0,0,12.985,12.825,27.889,4.172Z" transform="translate(-88.58 -252.316)" fill="#a1d491"/><path d="M121.2,477.81s-8.074-20.943-25.623-11.937c0,0,9.486,18.57,24.906,15.413Z" transform="translate(-91.891 -231.727)" fill="#a1d491"/><path d="M128.273,437.857s-8.026-21.307-25.823-11.429c0,0,10.9,19.53,25.033,14.718Z" transform="translate(-95.14 -213.887)" fill="#a1d491"/><path d="M144.808,394.182s-3.162-23.36-17.918-25.452c0,0,3.13,24.635,15.931,29.662Z" transform="translate(-106.7 -189.202)" fill="#a1d491"/><path d="M156.373,358.107s-1.233-28.145-13.433-29.127c0,0,.411,21.362,12.058,33.111Z" transform="translate(-114.292 -171.388)" fill="#a1d491"/><path d="M170.953,320.673s-3.636-23.4-15.283-26.263c0,0,1.444,22.665,14.129,32.008Z" transform="translate(-120.313 -155.896)" fill="#a1d491"/><path d="M190.656,285.293s-.121-24.381-7.236-27.963c0,0-4.411,22.074,5.175,31.075Z" transform="translate(-132.96 -139.279)" fill="#a1d491"/><path d="M201.582,250.851s-1-25.1-8.364-28.641c0,0-2.519,19.867,7.262,30.286Z" transform="translate(-137.936 -123.54)" fill="#a1d491"/><path d="M217.95,213.219s-.042-20.419-5.3-25.209c0,0-5.228,22.367,2.556,29.315Z" transform="translate(-146.451 -108.213)" fill="#a1d491"/><path d="M223.062,170.983,217.945,137s-6.951,27.847,5.36,40.12Z" transform="translate(-148.844 -85.354)" fill="#a1d491"/><path d="M219.751,116.755S206.618,93.909,206.886,91.37c0,0,1.4,23.945,17.918,35.871Z" transform="translate(-144.536 -64.905)" fill="#a1d491"/><path d="M218.062,96.656s-12.4-32.449-18-35.076c0,0,17.707,9.426,19.035,34.149Z" transform="translate(-141.31 -51.555)" fill="#a1d491"/><path d="M220.408,186.532l-.848-.27c10.461-35.722,13.07-58.5,7.352-64.209l.606-.673C233.584,127.406,231.122,149.933,220.408,186.532Z" transform="translate(-150.533 -78.354)" fill="#444053"/><path d="M165.384,320.96l-1.254-.469c1.112-3.273,2.308-6.595,3.563-9.867,10.92-28.5,20.216-55.009,26.176-75.362l1.091-.552c-5.971,20.391-15.1,47.918-26.034,76.454C167.677,314.376,166.486,317.682,165.384,320.96Z" transform="translate(-124.315 -129.142)" fill="#444053"/><path d="M180.29,585.1c-.169-.193-17.122-20.187-28.943-54.319a209.357,209.357,0,0,1-11.42-62.239c-.812-26.561,4.511-56.218,13.628-83.16l.991,1.214C134.077,447.061,142.209,498.875,153,530.077c11.694,33.823,28.458,53.6,28.622,53.8Z" transform="translate(-112.829 -196.663)" fill="#444053"/><path d="M619.489,670.36s-11.947,15.27-2.461,38.354L521.64,752.035l-9.154,2.009-4.216-19.315,2.819-24.376V697.031Z" transform="translate(-287.092 -324.375)" fill="#d5d6db"/><path d="M59.16,588.593l132.025-25.2,174.939,29.182L257.466,633.537Z" transform="translate(-27.982 -252.475)" fill="#a1d491"/><path d="M59.16,588.593l132.025-25.2,174.939,29.182L257.466,633.537Z" transform="translate(-27.982 -252.475)" fill="#a1d491"/><path d="M143.279,652.47s-12.348,24.5,1.881,47.123l195.782,44.425s-12.153-19.514.627-46.6Z" transform="translate(-112.102 -316.357)" fill="#a1d491"/><path d="M143.279,652.47s-12.348,24.5,1.881,47.123l195.782,44.425s-12.153-19.514.627-46.6Z" transform="translate(-112.102 -316.357)" opacity="0.1"/><path d="M156,667.86s-7.057,17.924,0,29.524" transform="translate(-118.984 -323.254)" opacity="0.1"/><path d="M347.092,778.7l109.3-48.839s6.113,1.38,2.161,6.07S349.2,783.39,349.2,783.39L151.31,734.275Z" transform="translate(-118.251 -351.039)" fill="#a1d491"/><path d="M347.092,778.7l109.3-48.839s6.113,1.38,2.161,6.07S349.2,783.39,349.2,783.39L151.31,734.275Z" transform="translate(-118.251 -351.039)" opacity="0.1"/><path d="M501.606,742.86s-10.54,13.245,0,33.111" transform="translate(-281.724 -356.865)" opacity="0.1"/><path d="M.008.731,50.082.025l-.007.549L0,1.28Z" transform="translate(223.395 401.596) rotate(-18.45)" opacity="0.1"/><path d="M.009.985,61.1.034l-.008.549L0,1.534Z" transform="translate(223.258 405.812) rotate(-20.82)" opacity="0.1"/><path d="M.01,1.205,70.873.042,70.864.59,0,1.754Z" transform="translate(223.468 410.855) rotate(-22.26)" opacity="0.1"/><path d="M.011,1.485,81.68.051,81.67.6,0,2.032Z" transform="translate(224.073 415.236) rotate(-24.31)" opacity="0.1"/><path d="M.01,1.588,89.3.055,89.287.6,0,2.136Z" transform="matrix(0.916, -0.401, 0.401, 0.916, 224.634, 417.381)" opacity="0.1"/><path d="M.011,1.885,106.841.065l-.009.548L0,2.433Z" transform="translate(225.748 420.88) rotate(-23.36)" opacity="0.1"/><path d="M152.23,597.359l92.753-20.419,56.505,11.313-76,25.661Z" transform="translate(-72.004 -258.548)" fill="#fff" opacity="0.3"/><path d="M632.673,659.69s4.8,2.025,1.982,5.154S524,700.654,524,700.654Z" transform="translate(-294.532 -319.593)" fill="#a1d491"/><path d="M718.784,574.18s-11.942,15.264-2.456,38.354L620.94,655.855l-9.154,2.02L607.57,638.56l2.862-24.37V600.851Z" transform="translate(-334.06 -281.272)" fill="#d5d6db"/><path d="M158.46,492.408l132.02-25.2,174.944,29.182L356.766,537.357Z" transform="translate(-74.951 -209.373)" fill="#3a3768"/><path d="M242.536,556.29s-12.353,24.5,1.876,47.123l195.782,44.425s-12.147-19.53.648-46.6Z" transform="translate(-159.048 -273.255)" fill="#3a3768"/><path d="M242.536,556.29s-12.353,24.5,1.876,47.123l195.782,44.425s-12.147-19.53.648-46.6L378.93,587.2Z" transform="translate(-159.048 -273.255)" opacity="0.1"/><path d="M255.287,571.68s-7.051,17.919,0,29.524" transform="translate(-165.949 -280.152)" opacity="0.1"/><path d="M446.382,682.519,555.688,633.68s6.108,1.38,2.156,6.07S448.49,687.21,448.49,687.21L250.6,638.095Z" transform="translate(-165.215 -307.937)" fill="#3a3768"/><path d="M446.382,682.519,555.688,633.68s6.108,1.38,2.156,6.07S448.49,687.21,448.49,687.21L250.6,638.095Z" transform="translate(-165.215 -307.937)" opacity="0.1"/><path d="M600.9,646.68s-10.54,13.245,0,33.112" transform="translate(-328.687 -313.763)" opacity="0.1"/><path d="M.008.731,50.082.025l-.007.549L0,1.28Z" transform="translate(275.726 348.524) rotate(-18.45)" opacity="0.1"/><path d="M.009.985,61.1.034l-.008.549L0,1.534Z" transform="translate(275.595 352.738) rotate(-20.82)" opacity="0.1"/><path d="M.01,1.205,70.873.042,70.864.59,0,1.754Z" transform="translate(275.797 357.773) rotate(-22.26)" opacity="0.1"/><path d="M.011,1.485,81.68.051,81.67.6,0,2.032Z" transform="translate(276.408 362.156) rotate(-24.31)" opacity="0.1"/><path d="M.01,1.588,89.3.055,89.287.6,0,2.136Z" transform="matrix(0.916, -0.401, 0.401, 0.916, 276.961, 364.293)" opacity="0.1"/><path d="M.011,1.885,106.841.065l-.009.548L0,2.433Z" transform="translate(278.079 367.792) rotate(-23.36)" opacity="0.1"/><path d="M251.53,501.179l92.753-20.419,56.505,11.313-76,25.661Z" transform="translate(-118.973 -215.445)" fill="#fff" opacity="0.45"/><path d="M731.988,563.51s4.791,2.025,1.982,5.149-110.639,35.81-110.639,35.81Z" transform="translate(-341.514 -276.491)" fill="#3a3768"/><path d="M728.2,464.15s-11.947,27.411-2.461,50.495l-95.388,31.18-9.133,2.025L617,528.535l2.819-24.376V490.821Z" transform="translate(-338.52 -231.963)" fill="#d5d6db"/><path d="M167.89,382.383l132.025-25.2,174.944,29.182L366.2,427.327Z" transform="translate(-79.411 -160.064)" fill="#a1d491"/><path d="M252,446.26s-12.369,24.5,1.86,47.123l195.782,44.425s-12.153-19.53.643-46.6Z" transform="translate(-163.517 -223.946)" fill="#a1d491"/><path d="M252,446.26s-12.369,24.5,1.86,47.123l195.782,44.425s-12.153-19.53.643-46.6Z" transform="translate(-163.517 -223.946)" opacity="0.1"/><path d="M264.725,461.65s-7.057,17.924,0,29.524" transform="translate(-170.412 -230.843)" opacity="0.1"/><path d="M455.822,576.075l109.3-36.7s6.113,1.38,2.161,6.07S457.93,580.765,457.93,580.765L260.04,531.65Z" transform="translate(-169.68 -262.213)" fill="#a1d491"/><path d="M455.822,576.075l109.3-36.7s6.113,1.38,2.161,6.07S457.93,580.765,457.93,580.765L260.04,531.65Z" transform="translate(-169.68 -262.213)" opacity="0.1"/><path d="M610.336,536.65s-10.54,13.245,0,33.111" transform="translate(-333.152 -264.454)" opacity="0.1"/><path d="M.008.731,50.082.025l-.007.549L0,1.28Z" transform="translate(280.702 287.802) rotate(-18.45)" opacity="0.1"/><path d="M.009.985,61.1.034l-.008.549L0,1.534Z" transform="translate(280.568 292.019) rotate(-20.82)" opacity="0.1"/><path d="M.01,1.205,70.873.042,70.864.59,0,1.754Z" transform="translate(280.765 297.057) rotate(-22.26)" opacity="0.1"/><path d="M.011,1.485,81.68.051,81.67.6,0,2.032Z" transform="translate(281.384 301.434) rotate(-24.31)" opacity="0.1"/><path d="M.01,1.588,89.3.055,89.287.6,0,2.136Z" transform="matrix(0.916, -0.401, 0.401, 0.916, 281.939, 303.577)" opacity="0.1"/><path d="M.011,1.885,106.841.065l-.009.548L0,2.433Z" transform="translate(283.055 307.079) rotate(-23.36)" opacity="0.1"/><path d="M260.96,391.149l92.753-20.419,56.505,11.313-76,25.661Z" transform="translate(-123.433 -166.136)" fill="#fff" opacity="0.3"/><path d="M741.418,453.48s4.8,2.025,1.982,5.154-110.639,35.81-110.639,35.81Z" transform="translate(-345.975 -227.182)" fill="#a1d491"/><path d="M382.956,149.9s-20.026-1.264-17.686,13.449a3.663,3.663,0,0,0,1.781,3.78s.037-1.1,2.055-.723a8.587,8.587,0,0,0,2.182.11,4.437,4.437,0,0,0,2.661-1.148h0s5.634-2.439,7.826-12.086c0,0,1.623-2.1,1.581-2.643l-3.394,1.512a6.639,6.639,0,0,1,.248,4.68s-.111-4.586-.764-4.481c-.132,0-1.755.888-1.755.888s1.987,4.453.485,7.687c0,0,.569-5.485-1.107-7.367l-2.382,1.457s2.324,4.6.748,8.35c0,0,.406-5.756-1.249-8l-2.161,1.766s2.187,4.531.854,7.643c0,0-.174-6.7-1.318-7.207a13.4,13.4,0,0,0-2.177,2.461s1.5,3.311.564,5.027c0,0-.564-4.465-1.054-4.487,0,0-1.881,2.958-2.076,4.967a11.093,11.093,0,0,1,1.618-5.265,5.562,5.562,0,0,0-2.877,1.562s.29-2.092,3.346-2.274a13.411,13.411,0,0,1,1.971-2.379,11.808,11.808,0,0,0-4.88.585s1.623-1.97,5.433-1.1l2.108-1.821s-3.995-.552-5.692.061c0,0,1.955-1.744,6.266-.475l2.324-1.451a20.2,20.2,0,0,0-5.439-.491s2.14-1.209,6.119.1l1.655-.778s-2.493-.513-3.225-.6-.769-.292-.769-.292a8.339,8.339,0,0,1,4.69.552S383.024,150.13,382.956,149.9Z" transform="translate(-219.363 -91.122)" fill="#a1d491"/><path d="M917.556,259.478s-20.026-1.264-17.686,13.449a3.663,3.663,0,0,0,1.781,3.78s.037-1.1,2.055-.723a8.871,8.871,0,0,0,2.182.11,4.423,4.423,0,0,0,2.635-1.148h0s5.639-2.439,7.826-12.086c0,0,1.623-2.1,1.581-2.643l-3.383,1.512a6.638,6.638,0,0,1,.248,4.68s-.111-4.586-.759-4.481c-.132,0-1.76.888-1.76.888s1.987,4.453.49,7.687c0,0,.569-5.485-1.112-7.367l-2.382,1.457s2.324,4.6.748,8.35c0,0,.406-5.756-1.249-8l-2.156,1.766s2.182,4.531.849,7.643c0,0-.174-6.7-1.318-7.207a13.6,13.6,0,0,0-2.177,2.461s1.5,3.311.569,5.027c0,0-.569-4.465-1.054-4.487,0,0-1.881,2.958-2.076,4.967a11.058,11.058,0,0,1,1.623-5.265,5.587,5.587,0,0,0-2.883,1.562s.3-2.092,3.346-2.274a13.628,13.628,0,0,1,1.971-2.384,11.856,11.856,0,0,0-4.88.59s1.623-1.97,5.433-1.1l2.108-1.821s-4-.552-5.692.061c0,0,1.95-1.744,6.266-.475l2.319-1.451a20.2,20.2,0,0,0-5.439-.491s2.14-1.209,6.119.1l1.66-.778s-2.5-.513-3.23-.6-.769-.292-.769-.292a8.278,8.278,0,0,1,4.69.552S917.619,259.71,917.556,259.478Z" transform="translate(-472.226 -140.229)" fill="#a1d491" opacity="0.1"/><path d="M443.145,304.717s-8.727-18.945-19.836-9.608a3.554,3.554,0,0,0-2.282,3.471s.922-.5,1.581,1.529a9.971,9.971,0,0,0,.97,2.042,4.59,4.59,0,0,0,2.261,1.876h0s4.78,3.962,13.892,1.258c0,0,2.545.458,2.962.138l-2.909-2.356s-1.581,2.3-3.784,2.505c0,0,3.773-2.334,3.368-2.875-.084-.11-1.581-1.175-1.581-1.175s-2.746,3.99-6.171,4.194c0,0,4.848-2.152,5.6-4.608l-2.372-1.468s-2.7,4.371-6.6,4.757c0,0,5-2.434,6.055-5.038l-2.519-1.1s-2.714,4.205-5.96,4.509c0,0,5.5-3.427,5.365-4.724a12.868,12.868,0,0,0-3.115-.789s-2.013,2.975-3.91,2.975c0,0,3.441-2.7,3.231-3.135,0,0-3.383-.276-5.165.552a9.87,9.87,0,0,1,5.18-1.1,5.664,5.664,0,0,0-2.709-1.871s1.887-.75,3.526,1.948a12.492,12.492,0,0,1,2.946.64,12.987,12.987,0,0,0-2.867-4.167s2.435.513,3.547,4.415l2.556,1.06s-1.47-3.929-2.825-5.171c0,0,2.4.933,3.452,5.519l2.34,1.413a22.38,22.38,0,0,0-2.24-5.21s2.05,1.369,2.9,5.64l1.46,1.137s-.791-2.533-1.054-3.239-.132-.85-.132-.85a9.283,9.283,0,0,1,1.834,4.553S442.955,304.883,443.145,304.717Z" transform="translate(-245.824 -155.05)" fill="#a1d491" opacity="0.1"/><path d="M826.925,201.1s-8.722-18.945-19.836-9.608a3.561,3.561,0,0,0-2.282,3.471s.928-.5,1.581,1.529a9.76,9.76,0,0,0,.975,2.047,4.564,4.564,0,0,0,2.256,1.871h0s4.785,3.962,13.892,1.264c0,0,2.545.453,2.967.132l-2.893-2.362s-1.581,2.307-3.779,2.511c0,0,3.768-2.34,3.362-2.881-.084-.11-1.581-1.175-1.581-1.175s-2.74,3.99-6.171,4.194c0,0,4.854-2.152,5.6-4.6l-2.408-1.457s-2.7,4.365-6.6,4.757c0,0,5-2.439,6.061-5.044l-2.524-1.1s-2.714,4.211-5.955,4.509c0,0,5.5-3.427,5.36-4.718a12.558,12.558,0,0,0-3.109-.789s-2.013,2.969-3.916,2.969c0,0,3.447-2.7,3.236-3.135,0,0-3.383-.276-5.17.552a9.865,9.865,0,0,1,5.181-1.1,5.633,5.633,0,0,0-2.7-1.871s1.887-.751,3.526,1.948a12.535,12.535,0,0,1,2.946.646,12.943,12.943,0,0,0-2.872-4.172s2.435.519,3.547,4.442l2.561,1.06s-1.47-3.935-2.825-5.176c0,0,2.4.933,3.447,5.519l2.345,1.413a22.583,22.583,0,0,0-2.245-5.21s2.055,1.369,2.9,5.64l1.46,1.137s-.785-2.533-1.054-3.239-.132-.844-.132-.844a9.307,9.307,0,0,1,1.829,4.553S826.762,201.274,826.925,201.1Z" transform="translate(-427.35 -108.614)" fill="#a1d491" opacity="0.1"/><path d="M879.8,370.9s-8.722-18.951-19.852-9.613a3.561,3.561,0,0,0-2.282,3.471s.928-.5,1.581,1.529a9.751,9.751,0,0,0,.97,2.047,4.563,4.563,0,0,0,2.256,1.871h0s4.785,3.968,13.9,1.264c0,0,2.54.458,2.962.133l-2.909-2.356s-1.581,2.307-3.784,2.511c0,0,3.768-2.34,3.362-2.881-.084-.11-1.581-1.175-1.581-1.175s-2.74,3.99-6.171,4.2c0,0,4.854-2.158,5.6-4.608l-2.377-1.468s-2.7,4.371-6.6,4.757c0,0,5-2.439,6.06-5.044l-2.524-1.1s-2.714,4.205-5.955,4.509c0,0,5.5-3.427,5.365-4.724a12.613,12.613,0,0,0-3.115-.789s-2.013,2.969-3.916,2.969c0,0,3.447-2.7,3.236-3.135,0,0-3.383-.276-5.17.552a9.9,9.9,0,0,1,5.186-1.1,5.622,5.622,0,0,0-2.709-1.871s1.887-.756,3.526,1.948a12.49,12.49,0,0,1,2.946.64,13.047,13.047,0,0,0-2.867-4.172s2.435.519,3.547,4.442l2.556,1.06s-1.47-3.935-2.825-5.171c0,0,2.4.927,3.447,5.519l2.345,1.407a22.581,22.581,0,0,0-2.245-5.21s2.055,1.369,2.9,5.646l1.46,1.1s-.791-2.533-1.054-3.239-.132-.844-.132-.844a9.25,9.25,0,0,1,1.829,4.553S879.637,371.069,879.8,370.9Z" transform="translate(-452.353 -184.709)" fill="#a1d491" opacity="0.1"/><ellipse cx="12.116" cy="1.418" rx="12.116" ry="1.418" transform="translate(94.313 429.912)" fill="#a1d491" opacity="0.1"/><ellipse cx="12.116" cy="1.418" rx="12.116" ry="1.418" transform="translate(14.888 405.807)" fill="#a1d491" opacity="0.1"/><ellipse cx="12.116" cy="1.418" rx="12.116" ry="1.418" transform="translate(154.855 445.921)" fill="#a1d491" opacity="0.1"/><ellipse cx="12.116" cy="1.418" rx="12.116" ry="1.418" transform="translate(465.102 411.049)" fill="#a1d491" opacity="0.1"/><ellipse cx="12.116" cy="1.418" rx="12.116" ry="1.418" transform="translate(364.281 404.168)" fill="#a1d491" opacity="0.1"/><ellipse cx="14.329" cy="2.577" rx="14.329" ry="2.577" transform="translate(296.846 435.414)" fill="#a1d491" opacity="0.1"/><path d="M679.86,790.14s-19.952,10.794-9.644,23.509a3.885,3.885,0,0,0,3.773,2.566s-.559-1.071,1.581-1.926a10.139,10.139,0,0,0,2.156-1.2,5.289,5.289,0,0,0,1.929-2.7h0s4.079-5.717.917-16.3c0,0,.411-2.991.053-3.477L678.2,794.1a7.1,7.1,0,0,1,2.793,4.349s-2.635-4.343-3.162-3.863c-.116.1-1.2,1.9-1.2,1.9s4.342,3.085,4.664,7.091c0,0-2.445-5.612-5.086-6.413L674.7,800s4.743,3.024,5.27,7.572c0,0-2.756-5.767-5.57-6.931l-1.112,2.985s4.574,3.046,5,6.832c0,0-3.826-6.33-5.2-6.131a15.92,15.92,0,0,0-.748,3.67s3.231,2.263,3.289,4.487c0,0-2.983-3.946-3.441-3.686,0,0-.19,3.968.727,6.032a12.346,12.346,0,0,1-1.323-6.032,6.673,6.673,0,0,0-1.913,3.223s-.859-2.18,1.971-4.189a15.916,15.916,0,0,1,.6-3.466,13.946,13.946,0,0,0-4.364,3.488s.479-2.864,4.632-4.288l1.054-3.024S669.4,802.38,668.124,804c0,0,.922-2.842,5.76-4.205l1.433-2.759a23.714,23.714,0,0,0-5.491,2.759s1.4-2.445,5.934-3.571l1.165-1.738s-2.677,1-3.425,1.358-.9.182-.9.182a9.5,9.5,0,0,1,4.8-2.285S680.045,790.328,679.86,790.14Z" transform="translate(-362.293 -378.053)" fill="#a1d491"/><path d="M643.113,251.634c-3.447-9.807-22.419-10.728-30.651-8.228-5.85,1.783-18.182,3.791-24.769,4.8l-.427-.425c.854-.265.875-.916.769-1.882a30.831,30.831,0,0,1,.053-3.819c4.037,1.313,7.631-1.794,7.631-1.794h0c4.743-2.207,3.468-11.655,4.374-14.238.68-1.932,1.412-13.311,1.739-18.984h.069l.037-1.9c.047-.822.068-1.3.068-1.3s.464-13.874,1.37-16.683c.843-2.583,1.528-15.6,1.634-17.659v-.27l-.068-1.2c.047-.877.068-1.854.063-2.881,0-4.718-.469-10.662-.527-11.622v-.5c.037-2.014-.206-12.1-8.4-15.916-3.02-1.413-6.651-3.1-10.166-4.735-.906-8.2-2.978-16.346-2.8-24.6,0-1.242.105-2.483.221-3.72,0,.359-.037.723-.042,1.1v2.406c.311-10.325,4.037-20.706,3.689-30.81-.032.988-.1,1.981-.19,2.975a33.527,33.527,0,0,0-1.012-10.149,6.088,6.088,0,0,0-1.655-3.146,6.641,6.641,0,0,0-2.888-1.2,55.742,55.742,0,0,0-7.584-1.479,12.48,12.48,0,0,0-1.707-3.471c-5.344-7.682-13.259-14.9-22.619-16.556-4.7-.828-10.1-.138-13.291,3.377a10.236,10.236,0,0,0-.938.993c-1.718,2.147-2.456,4.967-4.216,7.108-.116.143-.248.276-.374.414-3.447,3.228-8.817,3.9-12.648,6.8a15.418,15.418,0,0,0-1.892,1.727,33.318,33.318,0,0,0-4.132,5.259c-1.723,2.539-3.494,5.182-4.042,8.212-1.1,6.07,2.846,11.826,3.578,17.935,1.634,13.67-12.812,25.8-10.076,39.287a18.234,18.234,0,0,0,4.648,8.736c-5.634,5.342-10.43,10.524-10.43,10.524v.309h-.891l.09,1.1h-.09l.49,5.988-.49,8.719v.822h.032c.163,3.2.812,14.685,1.581,17.108.906,2.809,1.365,16.683,1.365,16.683s1,19.608,1.918,22.2-.385,12.014,4.374,14.238h0a9.777,9.777,0,0,0,4.78,2.075c-.242,2.064-.09,3.559.7,4.029a2.221,2.221,0,0,0,1.107.331,12.464,12.464,0,0,0-.859,1.573,21.489,21.489,0,0,1-5.523-1.363c-5.112-2.207-22.076-7.174-27-3.681s-16.785,6.661-11.31,20.722,8.026,14.415,8.026,14.415a19.991,19.991,0,0,1,4.379,4.608c1.644,2.588,16.964,8.51,20.8,8.51a35.836,35.836,0,0,1,4.875.254s-4.158,3.819-3.6,6.037-1.265,19.977-1.265,19.977,4.216,4.448,6.018-1.385l.063.088c.337.48,2.161,2.649,5.591-.088a31.192,31.192,0,0,1,4.458-2.958l16.611-2.461a44.9,44.9,0,0,1,5.2-.039c2.635.226,5.223-1.407,6.851-2.671,3.441,1.369,7.31,2.864,9.149,3.41,3.731,1.1,20.88,5.921,24.89,4.415a5.583,5.583,0,0,0,2.161-1.611l3.826.127-1.792.375s3.489.061,8.232.127l-.2.121,5.95-.055c8.706.083,18.487.11,19.773-.193,2.013-.469,12.474-.138,15.557,0h.859s11.494-2.4,6.751-14.613c-3.647-9.382-14.856-12.108-19.831-12.858,1.4-.292,2.609-.519,3.41-.651,3.473-.552,10.219-3.863,10.767-4.994s6.2-4.415,7.663-6.286S646.575,261.44,643.113,251.634Zm-95.2,27.444-.564.193-.379.132-.727.751c-.58-.408-1.2-.839-1.85-1.28C545.533,278.945,546.708,279.017,547.91,279.078Zm50.229,15.551Z" transform="translate(-266.326 -43.42)" fill="url(#p)"/><path d="M686.65,309.731S694.713,331.8,699.3,329.6s3.341-11.589,4.216-14.161,1.844-22.074,1.844-22.074.443-13.8,1.317-16.589c.812-2.566,1.47-15.507,1.581-17.544v-.27l-.87-16-4.922-1.286-11.415,4.415-1.581,9.453-.617,3.692-.263,1.573Z" transform="translate(-371.465 -132.261)" fill="#be6f72"/><path d="M691.69,358.3s7.694,6.595,10.013,7.174,3.742,5.723,3.742,5.723" transform="translate(-373.848 -184.528)" opacity="0.1"/><path d="M547.607,311.481s-8.063,22.074-12.648,19.867-3.341-11.589-4.216-14.161-1.845-22.074-1.845-22.074-.443-13.8-1.317-16.589c-.812-2.566-1.47-15.507-1.581-17.544v-.27l.875-16,4.922-1.286,11.415,4.415,1.581,9.453.617,3.692.263,1.573Z" transform="translate(-295.478 -133.045)" fill="#be6f72"/><rect width="17.997" height="29.375" transform="translate(286.638 60.305)" fill="#3e373a"/><rect width="17.997" height="29.375" transform="translate(286.638 60.305)" opacity="0.1"/><path d="M557.073,405.164s-6.15,7.08-3.868,8.366,17.043,25.385,17.043,25.385,48.484,6.253,57.628-3.129,8.959-26.142,8.959-26.142-7.346,1.656-8.147.756-5.2-5.237-5.2-5.237S561.288,401.213,557.073,405.164Z" transform="translate(-308.105 -204.742)" fill="#4b4b5b"/><path d="M557.073,405.164s-6.15,7.08-3.868,8.366,17.043,25.385,17.043,25.385,48.484,6.253,57.628-3.129,8.959-26.142,8.959-26.142-7.346,1.656-8.147.756-5.2-5.237-5.2-5.237S561.288,401.213,557.073,405.164Z" transform="translate(-308.105 -204.742)" opacity="0.02"/><path d="M632.513,203.174,616.7,216.418l-4.78.364-1.755.132-29.475,2.263-30.566-2.34-4.548-.348-5.8-.441L527.66,203.908a212.267,212.267,0,0,1,16.095-16.12c2.962-2.566,5.76-4.641,7.8-5.458l.348-.127a8.683,8.683,0,0,0,3.341-2.439c5.934-6.407,11.42-22.218,11.42-22.218s26.176-14.161,23.014,4.415,11.768,13.984,11.768,13.984l4.922,2.351,1.945.933,4.959,2.379,11.188,5.375C633.24,191.215,632.513,203.174,632.513,203.174Z" transform="translate(-296.263 -92.247)" fill="#be6f72"/><ellipse cx="23.541" cy="24.651" rx="23.541" ry="24.651" transform="translate(259.66 31.123)" opacity="0.1"/><path d="M631.764,244.924H526v-.27l.875-16a212.267,212.267,0,0,1,16.095-16.12l66.4-2.759,3.088-3.41,11.188,5.375c8.785,4.227,8.079,16.186,8.079,16.186S632.929,241.778,631.764,244.924Z" transform="translate(-295.478 -116.437)" opacity="0.1"/><path d="M631.764,243.924H526v-.27l.875-16a212.268,212.268,0,0,1,16.095-16.12l66.4-2.759,3.088-3.41,11.188,5.375c8.785,4.227,8.079,16.186,8.079,16.186S632.929,240.778,631.764,243.924Z" transform="translate(-295.478 -115.989)" fill="#e7c7ca"/><path d="M587.877,190s16.685,22.262,38.909-.458,2.461,50.677,2.461,50.677l-47.957,5.96Z" transform="translate(-321.63 -106.946)" opacity="0.1"/><path d="M587.877,192s16.685,22.262,38.909-.458,2.461,50.677,2.461,50.677l-47.957,5.96Z" transform="translate(-321.63 -107.843)" fill="#e7c7ca"/><path d="M619.58,202.261l1.766,28.194,1.892,9.382,1.444,7.174s3.689,55.186,2.635,57.945.527,4.967.748,6.435-.221,5.154-.047,6.81,0,2.39-4.037,1.8-9.665-1.617-9.665-1.617-14.229,1.1-19.146-.734-14.229-1.843-14.229-1.843-14.055.37-18.619-.182-7.03,5.888-10.013,4.045,3.51-19.679,5.618-24.834-2.809-18.211-2.809-18.211l6.324-36.737,1.407-8.328v-26.18l.348-.127a8.683,8.683,0,0,0,3.341-2.439l1.581,26.346L617.657,231V201.35" transform="translate(-307.557 -114.192)" opacity="0.1"/><path d="M619.58,200.261l1.766,28.194,1.892,9.382,1.444,7.174s3.689,55.186,2.635,57.945.527,4.967.748,6.435-.221,5.154-.047,6.81,0,2.39-4.037,1.8-9.665-1.617-9.665-1.617-14.229,1.1-19.146-.734-14.229-1.843-14.229-1.843-14.055.37-18.619-.182-7.03,5.888-10.013,4.045,3.51-19.679,5.618-24.834-2.809-18.211-2.809-18.211l6.324-36.737,1.407-8.328v-26.18l.348-.127a8.683,8.683,0,0,0,3.341-2.439l1.581,26.346L617.657,229V199.35" transform="translate(-307.557 -113.295)" fill="#e7c7ca"/><path d="M618.661,73.263a6.177,6.177,0,0,0-1.581-3.124,6.314,6.314,0,0,0-2.783-1.192,52.778,52.778,0,0,0-7.315-1.468,12.517,12.517,0,0,0-1.581-3.438C600.237,56.4,592.6,49.2,583.605,47.574c-4.706-.855-10.161-.088-13.175,3.8-1.655,2.136-2.366,4.967-4.037,7.064-3.22,4.073-9.033,4.575-13.091,7.726a25.1,25.1,0,0,0-5.27,6.385c-1.66,2.522-3.367,5.149-3.895,8.162-1.054,6.021,2.746,11.76,3.447,17.836,1.581,13.592-12.332,25.65-9.7,39.061,1.534,7.82,8.432,13.327,15.568,16.12,2.514.988,5.386,1.97,6.561,4.5.527,1.1.617,2.379,1.112,3.493,1.665,3.72,7.141,3.863,10.082,1.153s3.868-7.091,4.216-11.181c1.412-17.858-5.418-35.5-4.622-53.4.237-5.414,1.692-11.556,6.324-14.006,6.234-3.311,13.734,2.207,20.6,1.153a44.674,44.674,0,0,1,1.971,26.108c-1.091,4.763-2.978,9.382-3.115,14.293-.206,7.478,3.647,14.31,6.978,20.921a11.468,11.468,0,0,1,1.407,4.034,10.126,10.126,0,0,1-.754,4.222c-1.881,5.3-5.128,10.226-5.5,15.871a2.663,2.663,0,0,0,.4,1.887,2.221,2.221,0,0,0,1.36.64c5.692,1.021,10.614-4.26,13.391-9.564a46.422,46.422,0,0,0,5.281-19.05c.574-11.236-3.273-22.29-3.036-33.536C616.374,98.472,621.892,85.6,618.661,73.263Z" transform="translate(-300.941 -45.137)" opacity="0.1"/><path d="M619.661,72.263a6.176,6.176,0,0,0-1.581-3.124,6.314,6.314,0,0,0-2.783-1.192,52.772,52.772,0,0,0-7.315-1.468,12.517,12.517,0,0,0-1.581-3.438C601.237,55.4,593.6,48.2,584.605,46.574c-4.706-.855-10.161-.088-13.175,3.8-1.655,2.136-2.366,4.967-4.037,7.064-3.22,4.073-9.033,4.575-13.091,7.726a25.1,25.1,0,0,0-5.27,6.385c-1.66,2.522-3.368,5.149-3.895,8.162-1.054,6.021,2.746,11.76,3.447,17.836,1.581,13.592-12.332,25.65-9.7,39.061,1.534,7.82,8.432,13.327,15.568,16.12,2.514.988,5.386,1.97,6.561,4.5.527,1.1.617,2.379,1.112,3.493,1.665,3.72,7.141,3.863,10.082,1.153s3.868-7.091,4.216-11.181c1.412-17.858-5.418-35.5-4.622-53.4.237-5.414,1.692-11.556,6.324-14.006,6.234-3.311,13.734,2.207,20.6,1.153a44.672,44.672,0,0,1,1.971,26.108c-1.091,4.763-2.978,9.382-3.115,14.293-.206,7.478,3.647,14.31,6.978,20.921a11.469,11.469,0,0,1,1.407,4.034,10.127,10.127,0,0,1-.754,4.222c-1.881,5.3-5.128,10.226-5.5,15.871a2.663,2.663,0,0,0,.4,1.887,2.221,2.221,0,0,0,1.36.64c5.692,1.021,10.614-4.26,13.391-9.564a46.422,46.422,0,0,0,5.281-19.05c.574-11.236-3.273-22.29-3.035-33.536C617.374,97.472,622.892,84.6,619.661,72.263Z" transform="translate(-301.414 -44.689)" fill="#3e373a"/><path d="M581.79,480.115l20.906.7-3-16.236-16.016,1.595Z" transform="translate(-275.184 -208.194)" fill="#c3c7d9"/><path d="M706.1,438.642c-1.407,1.838-6.851,5.149-7.378,6.253s-7.025,4.415-10.366,4.967-13.876,2.947-15.81,4.233c-1.386.927-12.511,3.863-19.821,5.491a53.95,53.95,0,0,1-6,1.131c-3.162.182-37.765-12.141-37.765-12.141l6.672-7.174.369-.132c1.887-.668,10.6-3.753,15.441-5.221,5.449-1.656,11.773-8.46,11.773-8.46s9.307-3.311,10.54-3.681-3.162-12.875-3.162-12.875,20.2-2.936,28.105-5.425,26.176-1.567,29.512,8.184S707.531,436.8,706.1,438.642Z" transform="translate(-334.718 -205.202)" fill="#4b4b5b"/><path d="M578.576,506.917s-4.037,4.415-8.079,4.051-18.176,1.1-18.176,1.1a28.055,28.055,0,0,0-7.12,4.321c-3.3,2.726-5.059.552-5.386.088l-.058-.088c-1.76,5.8-5.8,1.38-5.8,1.38s1.755-17.659,1.217-19.867,3.473-6,3.473-6l4.743-1.264,12.016-3.223,17.217,6.253Z" transform="translate(-299.243 -242.392)" fill="#e7c7ca"/><path d="M543.372,493.26,539.815,519.1l-.058-.088c-1.76,5.8-5.8,1.38-5.8,1.38s1.755-17.659,1.217-19.867,3.473-6,3.473-6Z" transform="translate(-299.243 -245.009)" opacity="0.1"/><path d="M599,360.08s9.307,3.311,17.391,0" transform="translate(-330.007 -185.325)" opacity="0.1"/><path d="M659.29,371.42s3.863,2.02,6.851,0" transform="translate(-358.523 -190.407)" opacity="0.1"/><path d="M659.29,379.347s6.5.911,7.731-.927" transform="translate(-358.523 -193.544)" opacity="0.1"/><path d="M655.29,395.613s12.205-1.656,15.236-3.863" transform="translate(-356.631 -199.518)" opacity="0.1"/><path d="M584.62,391.75s6.851,4.045,11.947,3.863" transform="translate(-323.205 -199.518)" opacity="0.1"/><path d="M652.718,489.5a53.95,53.95,0,0,1-6,1.131c-3.162.182-37.765-12.141-37.765-12.141l6.672-7.174.369-.132c1.054.778,1.918,1.446,2.535,1.954,2.9,2.4,5.708-.734,6.762-.734s10.187,7.908,10.187,7.908,8.432,2.025,9.839,3.863,6.324,1.473,7.2,2.759A5.14,5.14,0,0,1,652.718,489.5Z" transform="translate(-334.713 -235.114)" opacity="0.1"/><path d="M522.4,412.446s-8.527.513-13.444-1.656-21.254-7.174-26-3.659-16.163,6.622-10.893,20.606,7.731,14.348,7.731,14.348a19.548,19.548,0,0,1,4.216,4.58c1.581,2.577,16.337,8.46,20.026,8.46s10.187,0,19.32,6.622,17.391,7.362,17.391,7.362,11.594,4.967,15.2,6.07,20.105,5.883,23.973,4.415,6.324-10.673,6.324-10.673,1.755-8.278.875-9.564-5.8-.922-7.2-2.759-9.839-3.863-9.839-3.863-9.112-7.914-10.166-7.914-3.858,3.124-6.761.734a153.511,153.511,0,0,0-18.187-12.141C528.306,429.736,522.4,412.446,522.4,412.446Z" transform="translate(-269.326 -205.866)" fill="#4b4b5b"/><path d="M536.27,427.247a9.745,9.745,0,0,1,8.638,2.39c4.216,3.681,18.4,11.07,18.4,11.07" transform="translate(-300.336 -215.33)" opacity="0.1"/><path d="M716.268,427s-18.8,2.98-22.308,7.025" transform="translate(-374.922 -215.315)" opacity="0.1"/><path d="M733.93,515.013H733.1c-2.972-.11-13.043-.442-14.983,0-2.282.552-32.5,0-32.5,0l5.908-1.286s-2.192-8.046-.8-8.714c0,0-7.9-5.452-1.945-9.133a17.746,17.746,0,0,1,12.385-2.13l14.962-5.309L719,487.42s16.864.922,21.428,13.063S733.93,515.013,733.93,515.013Z" transform="translate(-370.977 -242.392)" fill="#e7c7ca"/><path d="M761.312,515.035h-.827c4.906-4.238,16.005-17.141-16.975-26.544l2.872-1.021s16.864.922,21.428,13.063S761.312,515.035,761.312,515.035Z" transform="translate(-398.359 -242.414)" opacity="0.1"/><ellipse cx="0.922" cy="0.966" rx="0.922" ry="0.966" transform="translate(331.027 256.386)" fill="#4b4b5b"/><ellipse cx="0.922" cy="0.966" rx="0.922" ry="0.966" transform="translate(325.667 257.98)" fill="#4b4b5b"/><g transform="translate(237.28 34.71)" opacity="0.1"><path d="M631.81,126.622a44.615,44.615,0,0,0-3.025-17.737c-6.851,1.071-14.356-4.465-20.6-1.153-4.617,2.45-6.066,8.592-6.324,14.006-.063,1.429-.074,2.859-.047,4.288,0-.508,0-1.021.047-1.529.242-5.414,1.692-11.556,6.324-14.006,6.24-3.311,13.734,2.207,20.6,1.153a44.437,44.437,0,0,1,3.025,14.977Z" transform="translate(-568.613 -106.468)"/><path d="M554.69,126.512a19.251,19.251,0,0,0-.069-3.609c-.559-4.856-3.094-9.5-3.552-14.232-.59,5.712,2.883,11.2,3.552,16.992A3.6,3.6,0,0,1,554.69,126.512Z" transform="translate(-544.584 -107.368)"/><path d="M576.7,217.56c-.327,4.095-1.249,8.471-4.216,11.186s-8.432,2.566-10.082-1.153c-.527-1.1-.606-2.39-1.117-3.493-1.17-2.528-4.047-3.51-6.561-4.5-7.141-2.8-14.029-8.278-15.562-16.12a17.7,17.7,0,0,1-.279-2.152,18.194,18.194,0,0,0,.279,4.912c1.534,7.82,8.432,13.322,15.563,16.12,2.514.988,5.391,1.97,6.561,4.5.527,1.1.617,2.379,1.117,3.493,1.66,3.72,7.136,3.863,10.082,1.153s3.863-7.091,4.216-11.186q.241-3.233.163-6.479C576.861,215.093,576.792,216.33,576.7,217.56Z" transform="translate(-538.823 -148.892)"/><path d="M687.93,134.554v2.39c.3-10.265,3.889-20.584,3.536-30.634C691.192,115.6,688.13,125.106,687.93,134.554Z" transform="translate(-609.35 -106.31)"/><path d="M659.051,212.389a7.437,7.437,0,0,0,.121-1.992,11.371,11.371,0,0,0-1.407-4.034c-3.046-6.07-6.519-12.284-6.93-19.023,0,.287-.037.552-.042.861-.211,7.472,3.642,14.31,6.972,20.921A13.6,13.6,0,0,1,659.051,212.389Z" transform="translate(-591.78 -142.623)"/><path d="M675.277,217.364a46.493,46.493,0,0,1-5.318,19.05c-2.783,5.3-7.7,10.585-13.4,9.564a2.2,2.2,0,0,1-1.36-.646,1.393,1.393,0,0,1-.248-.43c-.063.43-.116.866-.148,1.308a2.64,2.64,0,0,0,.4,1.882,2.2,2.2,0,0,0,1.36.646c5.7,1.021,10.614-4.26,13.4-9.564a46.493,46.493,0,0,0,5.317-19.05c.063-1.291.069-2.577.032-3.863C675.3,216.63,675.3,216.994,675.277,217.364Z" transform="translate(-593.666 -155.583)"/></g><path d="M695.31,513.528s13.339,5.861,22.134-7.108" transform="translate(-375.561 -250.906)" fill="none" stroke="#000" stroke-miterlimit="10" stroke-width="1" opacity="0.1"/><path d="M700.29,535.124s10.893-7.417,24.769-.243" transform="translate(-377.916 -262.26)" fill="none" stroke="#000" stroke-miterlimit="10" stroke-width="1" opacity="0.1"/><path d="M561.93,530.211s4.574-10.805,16.79-2.566" transform="translate(-312.473 -259.03)" fill="none" stroke="#000" stroke-miterlimit="10" stroke-width="1" opacity="0.1"/><path d="M533.79,236.482l9.328-8.83s36.168-2.483,37.665,10.392c0,0,12.822-15.264,39.789-11.865l11.41,9.514-31.536,14.492L569.8,261.316l-22.572-10.579Z" transform="translate(-299.162 -125.097)" opacity="0.1"/><path d="M533.79,237.482l9.328-8.83s36.168-2.483,37.665,10.391c0,0,12.822-15.264,39.789-11.865l11.41,9.514-31.536,14.492L569.8,262.316l-22.572-10.579Z" transform="translate(-299.162 -125.545)" fill="#d5d6db"/><path d="M437.38,204.83l4.126,51.693,43.741,2.3-1.9-51.472-.037-.866Z" transform="translate(-206.879 -91.79)" opacity="0.1"/><path d="M437.38,202.83l4.126,51.693,43.741,2.3-1.9-51.472-.037-.866Z" transform="translate(-206.879 -90.893)" fill="#a1d491"/><path d="M594.832,202.83l-45.122,7.086V261.84l44.094-6.672Z" transform="translate(-260.011 -90.893)" opacity="0.1"/><path d="M594.832,200.83l-45.122,7.086V259.84l44.094-6.672Z" transform="translate(-260.011 -89.997)" fill="#a1d491"/><path d="M593.264,223.79l-24.374,2.837.532,8.7,23.826-2.726Z" transform="translate(-269.083 -100.286)" fill="#fff" opacity="0.3"/><path d="M537.339,352.7l2.482,6.992s3.689,3.311,7.726,1.656,7.557-2.478,9.312-4.089,4.216-9.707,4.216-9.707,2.461-8.83,4.917-11.037,8.959-32.62,0-29.646-15.81,30.567-15.81,30.567a6.206,6.206,0,0,1-3.863,2.207c-2.282.188-6.851-.37-7.731,1.656S534.7,348.651,537.339,352.7Z" transform="translate(-300.34 -161.385)" fill="#be6f72"/><path d="M626.413,256.275a14.682,14.682,0,0,1-13.233-3.455l1.9,51.466s4.48,5.077,11.331,3.918Z" transform="translate(-336.714 -137.258)" opacity="0.1"/><path d="M626.413,254.275a14.682,14.682,0,0,1-13.233-3.455l1.9,51.466s4.48,5.077,11.331,3.918Z" transform="translate(-336.714 -136.361)" fill="#a1d491"/><path d="M626.413,254.275a14.682,14.682,0,0,1-13.233-3.455l1.9,51.466s4.48,5.077,11.331,3.918Z" transform="translate(-336.714 -136.361)" opacity="0.1"/><path d="M640.29,242.4s18.356-5.877,23.141-5.049" transform="translate(-349.536 -130.291)" opacity="0.1"/><path d="M582.694,239.17s-17.792-4.415-20.764-3.162" transform="translate(-312.473 -129.623)" opacity="0.1"/><path d="M662.25,245.4s12.274-4.713,16.711-2.472" transform="translate(-359.924 -132.554)" opacity="0.1"/><path d="M650.52,454.279a40.092,40.092,0,0,1,6.05-3.935,98.061,98.061,0,0,0,8.959-5.734" transform="translate(-354.375 -223.207)" opacity="0.1"/><path d="M549.585,360.08s-7.7,6.595-10.013,7.174-3.742,5.723-3.742,5.723" transform="translate(-300.127 -185.325)" opacity="0.1"/><path d="M685.505,350.929l-2.456,7.009s-3.689,3.311-7.731,1.656-7.552-2.478-9.312-4.089-4.216-9.707-4.216-9.707-2.456-8.83-4.917-11.037-8.959-32.62,0-29.646,15.81,30.567,15.81,30.567a6.206,6.206,0,0,0,3.863,2.207c2.282.188,6.851-.37,7.731,1.656S688.14,346.9,685.505,350.929Z" transform="translate(-355.211 -160.601)" fill="#be6f72"/><path d="M707.15,364.94s5.033,3.388,5.012,7.439" transform="translate(-381.161 -187.503)" opacity="0.1"/><ellipse cx="23.541" cy="24.651" rx="23.541" ry="24.651" transform="translate(259.745 29.914)" fill="#be6f72"/><path d="M587.608,109.195c2.856-.469,5.36-2.207,8.09-3.206,6.108-2.246,12.864-.706,19.046,1.319a23.754,23.754,0,0,0,7.267,1.656,7.251,7.251,0,0,0,6.4-3.311,7.8,7.8,0,0,0-.042-6.915,19.331,19.331,0,0,0-4.3-5.557c-5.481-5.419-12.279-10.485-19.8-9.933a26.322,26.322,0,0,0-8.7,2.61,94.3,94.3,0,0,0-10.213,5.386c-2.535,1.54-7.23,3.6-8.69,6.413C573.342,104,582.443,110.045,587.608,109.195Z" transform="translate(-319.104 -61.246)" fill="#3e373a"/><path d="M628.407,116.131a7.251,7.251,0,0,1-6.4,3.311,23.766,23.766,0,0,1-7.273-1.622c-6.182-2.025-12.933-3.571-19.046-1.319-2.725,1-5.233,2.759-8.09,3.2-4.163.684-10.867-3.112-11.594-7.941-.817,5.579,6.956,10.358,11.594,9.6,2.856-.469,5.365-2.207,8.09-3.2,6.113-2.252,12.864-.706,19.046,1.319a22.806,22.806,0,0,0,7.273,1.622,7.306,7.306,0,0,0,6.4-3.311,6.721,6.721,0,0,0,.738-4.034,6.146,6.146,0,0,1-.738,2.378Z" transform="translate(-319.103 -74.043)" opacity="0.1"/><path d="M1030.281,661.63s3.125,4.277-1.444,10.739-8.332,11.915-6.814,15.943c0,0,6.893-12,12.5-12.168S1036.442,668.843,1030.281,661.63Z" transform="translate(-529.933 -320.462)" fill="#a1d491"/><path d="M1030.442,661.63a5.4,5.4,0,0,1,.638,1.341c5.47,6.733,8.39,13.018,3.125,13.173-4.9.149-10.777,9.326-12.184,11.639a5.58,5.58,0,0,0,.163.552s6.893-12,12.5-12.168S1036.6,668.843,1030.442,661.63Z" transform="translate(-530.093 -320.462)" opacity="0.1"/><path d="M1048.352,670.728c0,1.507-.163,2.726-.358,2.726s-.364-1.22-.364-2.726.2-.795.4-.795S1048.352,669.222,1048.352,670.728Z" transform="translate(-542.207 -324.108)" fill="#ffd037"/><path d="M1050.58,673.908c-1.259.717-2.361,1.153-2.456.971s.849-.916,2.108-1.656.764-.2.859,0S1051.845,673.185,1050.58,673.908Z" transform="translate(-542.437 -325.489)" fill="#ffd037"/><path d="M1000.369,661.63s-3.125,4.277,1.444,10.739,8.332,11.915,6.809,15.943c0,0-6.888-12-12.5-12.168S994.224,668.843,1000.369,661.63Z" transform="translate(-516.537 -320.462)" fill="#a1d491"/><path d="M1000.369,661.63a5.4,5.4,0,0,0-.638,1.341c-5.47,6.733-8.39,13.018-3.125,13.173,4.9.149,10.777,9.326,12.184,11.639a4.422,4.422,0,0,1-.169.552s-6.888-12-12.5-12.168S994.224,668.843,1000.369,661.63Z" transform="translate(-516.537 -320.462)" opacity="0.1"/><path d="M995.64,670.728c0,1.507.158,2.726.358,2.726s.364-1.22.364-2.726-.206-.795-.4-.795S995.64,669.222,995.64,670.728Z" transform="translate(-517.616 -324.108)" fill="#ffd037"/><path d="M991.172,673.908c1.26.717,2.361,1.153,2.456.971s-.848-.916-2.108-1.656-.764-.2-.859,0S989.907,673.185,991.172,673.908Z" transform="translate(-515.139 -325.489)" fill="#ffd037"/><ellipse cx="32.674" cy="5.248" rx="32.674" ry="5.248" transform="translate(459.416 390.09)" fill="#a1d491" opacity="0.1"/><path d="M1024.043,697.908l-.158,1.336-.221,1.887-.09.789-.221,1.887-.095.789-.216,1.882-2.5,21.467c-.221,1.915-3.209,3.411-6.819,3.411h-12.99c-3.61,0-6.593-1.5-6.819-3.411l-2.5-21.467-.221-1.882-.09-.789-.221-1.887-.095-.789-.216-1.887-.158-1.336c-.121-1.1,1.491-2,3.536-2h26.572C1022.552,695.91,1024.169,696.821,1024.043,697.908Z" transform="translate(-515.136 -335.825)" fill="#65617d"/><path d="M935.452,658.53l-.216,1.887H902.351l-.221-1.887Z" transform="translate(-426.704 -295.112)" fill="#9d9cb5"/><path d="M935.421,663.38l-.216,1.887H902.941l-.221-1.887Z" transform="translate(-426.983 -297.285)" fill="#9d9cb5"/><path d="M935.393,668.23l-.221,1.887H903.536l-.216-1.887Z" transform="translate(-427.266 -299.458)" fill="#9d9cb5"/></g><path d="M48.337,2.256C43.452,2.61,33.742,3.9,27.748,8.584a1.9,1.9,0,0,0-.648,1.5V51.506c0,1.315,1.126,2.146,2.075,1.536C35.342,49.078,44.261,48,48.671,47.7c1.506-.1,2.676-1.643,2.676-3.49V5.751c0-2.016-1.368-3.613-3.01-3.495ZM23.6,8.584C17.606,3.9,7.9,2.611,3.011,2.256,1.369,2.137,0,3.735,0,5.751V44.211C0,46.06,1.17,47.6,2.676,47.7c4.412.3,13.335,1.379,19.5,5.345.947.609,2.069-.221,2.069-1.532V10.063A1.859,1.859,0,0,0,23.6,8.584Z" transform="translate(4337 17286.75)" fill="#1f7065"/><text transform="translate(4404 17327)" fill="#1f7065" font-size="30" font-family="SegoeUI-Bold, Segoe UI" font-weight="700"><tspan x="0" y="0">Library</tspan></text><text transform="translate(4487 17458)" fill="#1f7065" font-size="30" font-family="SegoeUI-Bold, Segoe UI" font-weight="700"><tspan x="0" y="0" fill="#000">Let your understanding </tspan><tspan y="0" fill="#1f7065">grow</tspan></text><text transform="translate(4910 17327)" fill="#1f7065" font-size="30" font-family="SegoeUI, Segoe UI"><tspan x="0" y="0">Authors</tspan></text><text transform="translate(5031 17327)" fill="#1f7065" font-size="30" font-family="SegoeUI, Segoe UI"><tspan x="0" y="0">Books</tspan></text><text transform="translate(5128 17327)" fill="#1f7065" font-size="30" font-family="SegoeUI, Segoe UI"><tspan x="0" y="0">New Book</tspan></text><text transform="translate(5280 17327)" fill="#1f7065" font-size="30" font-family="SegoeUI, Segoe UI"><tspan x="0" y="0">User Info</tspan></text><g transform="translate(387 133)"><g transform="translate(5030 17156)" fill="none" stroke="#1f7065" stroke-width="1"><rect width="119" height="51" rx="18" stroke="none"/><rect x="0.5" y="0.5" width="118" height="50" rx="17.5" fill="none"/></g><text transform="translate(5041 17192)" fill="#1f7065" font-size="25" font-family="SegoeUI, Segoe UI"><tspan x="0" y="0">Sign Out</tspan></text></g><g transform="translate(8 92)"><g transform="translate(5031 17488)"><g transform="translate(0 98)"><rect width="400" height="49" fill="none"/><rect width="400" height="1" transform="translate(0 48)" fill="rgba(0,0,0,0.12)"/><text transform="translate(21 16)" fill="#212529" font-size="16" font-family="SegoeUI, Segoe UI"><tspan x="0" y="17">Fyodor Dostoevsky</tspan></text></g><g transform="translate(0 196)"><rect width="400" height="49" fill="none"/><rect width="400" height="1" transform="translate(0 48)" fill="rgba(0,0,0,0.12)"/><text transform="translate(21 16)" fill="#212529" font-size="16" font-family="SegoeUI, Segoe UI"><tspan x="0" y="17">Sandi Metz</tspan></text></g><g transform="translate(0 49)"><rect width="400" height="49" fill="none"/><rect width="400" height="1" transform="translate(0 48)" fill="rgba(0,0,0,0.12)"/><text transform="translate(21 16)" fill="#212529" font-size="16" font-family="SegoeUI, Segoe UI"><tspan x="0" y="17">Martin Fowler</tspan></text></g><g transform="translate(0 147)"><rect width="400" height="49" fill="none"/><rect width="400" height="1" transform="translate(0 48)" fill="rgba(0,0,0,0.12)"/><text transform="translate(21 16)" fill="#212529" font-size="16" font-family="SegoeUI, Segoe UI"><tspan x="0" y="17">Joshua Kerievsky</tspan></text></g><g transform="translate(0 16)"><rect width="400" height="1" transform="translate(0 32)" fill="rgba(0,0,0,0.12)"/><text transform="translate(21)" fill="#212529" font-size="16" font-family="SegoeUI, Segoe UI"><tspan x="0" y="17">Robert Martin</tspan></text></g><text transform="translate(275 31)" fill="#212529" font-size="16" font-family="SegoeUI, Segoe UI"><tspan x="0" y="0">1952</tspan></text><text transform="translate(275 80)" fill="#212529" font-size="16" font-family="SegoeUI, Segoe UI"><tspan x="0" y="0">1963</tspan></text><text transform="translate(275 129)" fill="#212529" font-size="16" font-family="SegoeUI, Segoe UI"><tspan x="0" y="0">1821</tspan></text></g><g transform="translate(5031 17439)"><rect width="400" height="49" fill="none"/><rect width="400" height="1" transform="translate(0 48)" fill="rgba(0,0,0,0.12)"/><text transform="translate(21 16)" fill="#212529" font-size="16" font-family="SegoeUI-Bold, Segoe UI" font-weight="700"><tspan x="0" y="17">Author</tspan></text><text transform="translate(275 13)" fill="#212529" font-size="16" font-family="SegoeUI-Bold, Segoe UI" font-weight="700"><tspan x="0" y="17">Born</tspan></text><text transform="translate(342 13)" fill="#212529" font-size="16" font-family="SegoeUI-Bold, Segoe UI" font-weight="700"><tspan x="0" y="17">Books</tspan></text></g><text transform="translate(5396 17519)" fill="#212529" font-size="16" font-family="SegoeUI, Segoe UI"><tspan x="0" y="0">2</tspan></text><text transform="translate(5396 17568)" fill="#212529" font-size="16" font-family="SegoeUI, Segoe UI"><tspan x="0" y="0">1</tspan></text><text transform="translate(5396 17617)" fill="#212529" font-size="16" font-family="SegoeUI, Segoe UI"><tspan x="0" y="0">2</tspan></text><text transform="translate(5396 17666)" fill="#212529" font-size="16" font-family="SegoeUI, Segoe UI"><tspan x="0" y="0">1</tspan></text><text transform="translate(5396 17715)" fill="#212529" font-size="16" font-family="SegoeUI, Segoe UI"><tspan x="0" y="0">1</tspan></text></g></g></g></svg>