<svg xmlns="http://www.w3.org/2000/svg" xmlns:xlink="http://www.w3.org/1999/xlink" width="1652.846" height="973.072" viewBox="0 0 1652.846 973.072"><defs><linearGradient id="a" x1="0.012" y1="0.018" x2="0.932" y2="0.975" gradientUnits="objectBoundingBox"><stop offset="0" stop-color="#3e434b"/><stop offset="1" stop-color="#151a21"/></linearGradient><linearGradient id="b" x1="0.5" x2="0.5" y2="1" gradientUnits="objectBoundingBox"><stop offset="0"/><stop offset="1" stop-opacity="0"/></linearGradient><linearGradient id="c" x1="0.5" x2="0.5" y2="1" gradientUnits="objectBoundingBox"><stop offset="0" stop-color="#393e46"/><stop offset="1" stop-color="#0d0f11"/></linearGradient><linearGradient id="d" y1="0.5" x2="1" y2="0.5" gradientUnits="objectBoundingBox"><stop offset="0" stop-color="#3e3d3d"/><stop offset="0.021" stop-color="#1d1d1d"/><stop offset="0.1" stop-color="#f5f5f5"/><stop offset="0.326" stop-color="#b7babf"/><stop offset="1" stop-color="#b7babf"/></linearGradient><linearGradient id="e" y1="0.5" x2="1" y2="0.5" gradientUnits="objectBoundingBox"><stop offset="0" stop-color="#1d1e20"/><stop offset="0.127" stop-color="#b3b6bc"/><stop offset="0.393" stop-color="#9da0a5"/><stop offset="1" stop-color="#9da0a5"/></linearGradient><linearGradient id="g" x1="1" x2="0" xlink:href="#d"/><linearGradient id="h" x1="1" x2="0" xlink:href="#e"/><linearGradient id="i" x1="0.5" y1="1" x2="0.5" gradientUnits="objectBoundingBox"><stop offset="0" stop-color="gray" stop-opacity="0.251"/><stop offset="0.54" stop-color="gray" stop-opacity="0.122"/><stop offset="1" stop-color="gray" stop-opacity="0.102"/></linearGradient><linearGradient id="j" x1="0.5" y1="1" x2="0.5" y2="0" xlink:href="#i"/></defs><g transform="translate(-1115.865 -17260.623)"><g transform="translate(705.865 16885.623)"><g transform="translate(413 375)"><path d="M40.762,0h1252.5a40.961,40.961,0,0,1,40.762,41.157V890.494a40.961,40.961,0,0,1-40.762,41.157H40.762A40.961,40.961,0,0,1,0,890.494V41.157A40.961,40.961,0,0,1,40.762,0Z" transform="translate(166.599)" fill="url(#a)"/><path d="M35.174-2.5h1252.5a37.858,37.858,0,0,1,37.674,38.039V884.876a37.859,37.859,0,0,1-37.674,38.039H35.174A37.858,37.858,0,0,1-2.5,884.876V35.539A37.859,37.859,0,0,1,35.174-2.5ZM3.676,35.539V884.876a31.649,31.649,0,0,0,31.5,31.8h1252.5a31.65,31.65,0,0,0,31.5-31.8V35.539a31.649,31.649,0,0,0-31.5-31.8H35.174A31.65,31.65,0,0,0,3.676,35.539Z" transform="translate(172.187 5.618)" fill="#191919"/><path d="M0,41.157A40.961,40.961,0,0,1,40.762,0h1252.5a40.961,40.961,0,0,1,40.762,41.157V890.494a40.961,40.961,0,0,1-40.762,41.157H40.762A40.961,40.961,0,0,1,0,890.494Zm6.176,0V890.494a34.751,34.751,0,0,0,34.586,34.921h1252.5a34.751,34.751,0,0,0,34.586-34.921V41.157a34.755,34.755,0,0,0-34.586-34.921H40.762A34.752,34.752,0,0,0,6.176,41.157Z" transform="translate(166.599)" fill="#707070"/><path d="M0,41.157A40.961,40.961,0,0,1,40.762,0h1252.5a40.961,40.961,0,0,1,40.762,41.157V890.494a40.961,40.961,0,0,1-40.762,41.157H40.762A40.961,40.961,0,0,1,0,890.494Zm.247,0V890.494A40.713,40.713,0,0,0,40.762,931.4h1252.5a40.712,40.712,0,0,0,40.515-40.908V41.157A40.71,40.71,0,0,0,1293.265.249H40.762A40.713,40.713,0,0,0,.247,41.157Z" transform="translate(166.599)" fill="#dedede"/><path d="M0,41.157A40.961,40.961,0,0,1,40.762,0h1252.5a40.961,40.961,0,0,1,40.762,41.157V890.494a40.961,40.961,0,0,1-40.762,41.157H40.762A40.961,40.961,0,0,1,0,890.494Zm.247,0V890.494A40.713,40.713,0,0,0,40.762,931.4h1252.5a40.712,40.712,0,0,0,40.515-40.908V41.157A40.71,40.71,0,0,0,1293.265.249H40.762A40.713,40.713,0,0,0,.247,41.157Z" transform="translate(166.599)" fill="#dedede"/><path d="M491.149,917.841l-66.024,18.844H2068.042l-59.882-18.844Z" transform="translate(-425.125 33.387)" fill="url(#b)"/><path d="M815.857,31.755c-23.635.03-715.42.885-749.708,0C31.266,30.852,0,8.656,0,8.656L13.677,0H630.748L815.857,8.628,1000.965,0h617.071l13.677,8.656s-31.266,22.2-66.15,23.1c-11.627.3-98.883.4-210.032.4C1138.911,32.155,831.477,31.775,815.857,31.755Z" transform="translate(17.138 922.994)" fill="none" stroke="#0c0c0c" stroke-width="0.2" opacity="0.36"/><g transform="translate(17.138 916.685)"><g transform="translate(0 0)"><path d="M643,490.716s31.266,22.2,66.149,23.1,750.325,0,750.325,0v-23.1l-185.726-8.657H656.677Z" transform="translate(-643 -475.75)" fill="url(#c)"/><path d="M2.47,0h659.6V14.966H0V2.494A2.482,2.482,0,0,1,2.47,0Z" fill="url(#d)"/><path d="M0,0H154.4V14.966H0Z" transform="translate(662.073)" fill="url(#e)"/></g><g transform="translate(815.239 0)"><path d="M1459.474,490.716s-31.266,22.2-66.15,23.1-750.325,0-750.325,0v-23.1l185.727-8.657H1445.8Z" transform="translate(-643 -475.75)" fill="url(#c)"/><path d="M0,0H659.6a2.483,2.483,0,0,1,2.471,2.494V14.966H0Z" transform="translate(154.401)" fill="url(#g)"/><path d="M154.4,0H0V14.966H154.4Z" transform="translate(0)" fill="url(#h)"/></g></g><g transform="translate(17.147 918.007)" fill="none" opacity="0.08"><path d="M970.226,15.085H662.473V0h967.754a2.493,2.493,0,0,1,2.472,2.514V15.085ZM0,15.085V2.514A2.493,2.493,0,0,1,2.472,0h660V15.085Z" stroke="none"/><path d="M 1632.59912109375 14.98471069335938 L 1632.59912109375 2.51391077041626 C 1632.59912109375 1.182910680770874 1631.53515625 0.09991071373224258 1630.227294921875 0.09991071373224258 L 970.2257690429688 0.09991071373224258 L 816.9669189453125 0.09991071373224258 L 662.5733642578125 0.09991071373224258 L 662.5733642578125 14.98471069335938 L 680.2721557617188 14.98471069335938 L 815.7311401367188 14.98471069335938 L 952.4269409179688 14.98471069335938 L 970.2257690429688 14.98471069335938 L 1632.59912109375 14.98471069335938 M 662.3733520507813 14.98471069335938 L 662.3733520507813 0.09991071373224258 L 2.471748352050781 0.09991071373224258 C 1.16394829750061 0.09991071373224258 0.09994833916425705 1.182910680770874 0.09994833916425705 2.51391077041626 L 0.09994833916425705 14.98471069335938 L 662.3733520507813 14.98471069335938 M 1632.699096679688 15.0847110748291 L 970.2257690429688 15.0847110748291 L 952.4269409179688 15.0847110748291 L 815.7311401367188 15.0847110748291 L 680.2721557617188 15.0847110748291 L 662.4733276367188 15.0847110748291 L 662.4733276367188 -8.928527677198872e-05 L 816.9669189453125 -8.928527677198872e-05 L 970.2257690429688 -8.928527677198872e-05 L 1630.227294921875 -8.928527677198872e-05 C 1631.592163085938 -8.928527677198872e-05 1632.699096679688 1.125710725784302 1632.699096679688 2.51391077041626 L 1632.699096679688 15.0847110748291 Z M 662.4733276367188 15.0847110748291 L -5.16601576237008e-05 15.0847110748291 L -5.16601576237008e-05 2.51391077041626 C -5.16601576237008e-05 1.125710725784302 1.106748342514038 -8.928527677198872e-05 2.471748352050781 -8.928527677198872e-05 L 662.4733276367188 -8.928527677198872e-05 L 662.4733276367188 15.0847110748291 Z" stroke="none" fill="#fff"/></g></g></g><g transform="translate(-1820 -48.5)"><g transform="translate(3121 17327.5)" fill="#fff" stroke="#707070" stroke-width="1"><rect width="1301" height="883" rx="26" stroke="none"/><rect x="0.5" y="0.5" width="1300" height="882" rx="25.5" fill="none"/></g><path d="M43.174,4.5H9.334a4.927,4.927,0,0,0-4.81,5.026L4.5,44.7A4.947,4.947,0,0,0,9.334,49.73h33.84A4.947,4.947,0,0,0,48.009,44.7V9.526A4.947,4.947,0,0,0,43.174,4.5ZM40.757,32.141H31.089V42.192H21.42V32.141H11.751V22.09H21.42V12.038h9.669V22.09h9.669Z" transform="translate(3164.123 17355.668)" fill="#f24926"/><text transform="translate(3229 17398.5)" font-size="37" font-family="SegoeUI-Bold, Segoe UI" font-weight="700"><tspan x="0" y="0">Patientor</tspan></text><g transform="translate(3628 17369.215)"><g transform="translate(0 0.285)"><rect width="76" height="38" rx="4" transform="translate(5)" fill="none"/><text transform="translate(43 28)" font-size="24" font-family="ArialMT, Arial"><tspan x="-43.359" y="0">Patients</tspan></text></g></g><g transform="translate(3494 17368.209)"><g transform="translate(0 0.291)"><rect width="76" height="39" rx="4" transform="translate(12)" fill="none"/><text transform="translate(50 28)" font-size="23" font-family="ArialMT, Arial"><tspan x="-50.498" y="0">Diagnosis</tspan></text></g></g><g transform="translate(4012 17361.174)"><g transform="translate(0 0.326)"><g fill="#fff" stroke="#ced4da" stroke-width="1"><rect width="351" height="50" rx="4" stroke="none"/><rect x="0.5" y="0.5" width="350" height="49" rx="3.5" fill="none"/></g><text transform="translate(13 34)" fill="#868e96" font-size="25" font-family="ArialMT, Arial"><tspan x="0" y="0">Search</tspan></text></g></g><text transform="translate(3180 17572.5)" fill="#f24926" font-size="37" font-family="SegoeUI-Bold, Segoe UI" font-weight="700"><tspan x="0" y="0" fill="#000">Information where you need it </tspan><tspan y="0" fill="#f24926">most.</tspan></text><g transform="translate(3180.01 17650.107)"><path d="M91.279,356.76h48.77v66.776h-45.2c-.115.69-.231,1.376-.36,2.066H140.05v53.844a.685.685,0,0,1-.226-.087q-1.922-.768-3.845-1.627c-.274-.126-.543-.256-.822-.377q-1.922-.912-3.845-1.931c-.447-.237-.894-.483-1.331-.734A80.036,80.036,0,0,1,110.806,459.7c-.168-.159-.322-.333-.481-.483-.779-.85-1.543-1.709-2.283-2.587-.279-.323-.548-.652-.822-.965-.875-1.072-1.721-2.182-2.538-3.3-.125-.169-.24-.333-.36-.483a71.4,71.4,0,0,1-8.266-15.013c-.067-.159-.13-.333-.192-.483-.663-1.689-1.264-3.4-1.783-5.151-.221-.729-.437-1.448-.62-2.206-.067-.217-.12-.439-.178-.657-2.7-10.692-3.013-21.8-3.013-32.864v-3.862q.058-6.773.159-13.531.038-1.738.072-3.49.1-4.436.288-8.892c.029-.821.067-1.646.111-2.462q.029-.71.072-1.419Q91.1,359.29,91.279,356.76Z" transform="translate(-54.788 -193.502)" fill="#ffc107" opacity="0.1"/><path d="M164.934,166.355H138.18a204.527,204.527,0,0,1,14.23-19.666c3.979-4.9,8.17-9.684,12.524-14.289Z" transform="translate(-79.673 -77.447)" fill="#ffc107" opacity="0.1"/><path d="M141.307,207v70.228H92.69c0-.2.029-.41.048-.613.043-.555.087-1.105.135-1.661.048-.647.111-1.294.173-1.931s.125-1.41.2-2.11.139-1.41.216-2.11.154-1.4.24-2.1.163-1.4.26-2.1c.072-.574.144-1.154.226-1.733.111-.816.226-1.632.346-2.443a2.332,2.332,0,0,1,.058-.367,169.1,169.1,0,0,1,3.576-17.629,130.933,130.933,0,0,1,6.031-17.861A134.355,134.355,0,0,1,113.274,207Z" transform="translate(-56.045 -116.036)" fill="#ffc107" opacity="0.1"/><path d="M218.09,181.821V248.6H322.263V181.821Zm0,68.842v57.348c.6.121,1.182.241,1.773.343.793.154,1.591.294,2.4.415l.481.068c.317.053.639.1.961.135.8.116,1.605.2,2.4.28.375.039.764.068,1.144.1l.928.068h0c.5.039,1,.068,1.5.087.308,0,.615.024.928.034s.481,0,.73,0h2.672c.413,0,.827,0,1.235-.039h.024a7.324,7.324,0,0,0,.86-.034,2.106,2.106,0,0,0,.245,0,5.759,5.759,0,0,0,.711-.029,1.007,1.007,0,0,1,.163,0c.533-.034,1.072-.077,1.615-.125s1.057-.106,1.6-.164l1.091-.135a95.33,95.33,0,0,0,13.192-2.819c9.722-2.723,19.224-6.531,28.941-9.317,12.553-3.6,26.432-5.368,38.563-.99V250.663ZM322.263,107.471v-88.9a133.294,133.294,0,0,0-33.843,3.983c-26.38,6.657-50.068,21.1-70.33,39.536v45.377h5.243v2.061H218.09v70.228H322.263V109.527H244.782v-2.066ZM456.1,77.44a42.983,42.983,0,0,1-18.887-5.513c-11.217-6.126-20.185-15.6-30.2-23.581A138.32,138.32,0,0,0,333.917,19.17v88.3h148.7l.37-.391Zm13.548-2.414L484.01,90.865v-20c-4.835.613-9.045,2.037-14.365,4.147ZM484.01,322.252V250.663H453.378c-.077-.3-.163-.613-.259-.922.091.309.173.618.255.922H333.917v51.768c1.134.845,2.254,1.738,3.364,2.636h0q1.8,1.477,3.571,2.988l1.192.99c.572.483,1.153.965,1.73,1.424q1.735,1.4,3.494,2.781.879.7,1.769,1.366a241.187,241.187,0,0,0,29.624,19.459c2.316,1.3,4.657,2.549,7.012,3.77q2.35,1.216,4.734,2.385,3.576,1.752,7.209,3.379h0a263.726,263.726,0,0,0,70.166,20.526q8.064,1.192,16.2,1.883V322.243h.481ZM333.917,109.527v70.228H484.01V109.527Zm0,72.284V248.6H484.01V181.821ZM495.66,70.764v22.35L513.99,72.9Q504.878,71.392,495.66,70.764Zm0,111.057V248.6H641.639V181.821ZM641.125,327.548l.514-76.885H495.66V366.794a261.874,261.874,0,0,0,28.211-.343h.163q6.728-.434,13.394-1.236h.1a245.435,245.435,0,0,0,68.835-18.469M669.8,192.789q-.831-1.931-1.706-3.862c-1.086-2.414-2.23-4.76-3.412-7.1h-11.39V248.6h28.792c-.024-18.913-4.792-38.223-12.284-55.809Zm-16.508,57.875V316.8a94.6,94.6,0,0,0,19.9-26.956,93.12,93.12,0,0,0,8.877-39.183Zm0-88.3v17.378h10.323a188.987,188.987,0,0,0-10.323-17.378Zm-99-78.492c-.759-.294-1.523-.589-2.288-.869a207,207,0,0,0-24.654-7.444l-28.057,30.924h0l-.548.594.36.391h99.857a213.007,213.007,0,0,0-44.671-23.6Zm47.6,25.657H497.707l-2.047,1.878v68.35H641.639V146.64A208.217,208.217,0,0,0,601.894,109.527Z" transform="translate(-121.179 -18.563)" fill="#ffc107" opacity="0.1"/><path d="M141.307,280.39v34.8H92.69c0-.2.029-.41.048-.613.043-.555.087-1.105.135-1.661.048-.647.111-1.294.173-1.931s.125-1.41.2-2.109.139-1.41.216-2.11.154-1.4.24-2.1.163-1.4.26-2.1c.072-.574.144-1.154.226-1.733.111-.816.226-1.632.346-2.443a2.333,2.333,0,0,1,.058-.367A169.1,169.1,0,0,1,98.169,280.4Z" transform="translate(-56.045 -153.998)" fill="#ffc107" opacity="0.1"/><path d="M91.279,356.76h48.77v66.776h-45.2c-.115.69-.231,1.376-.36,2.066H140.05v53.844a.685.685,0,0,1-.226-.087q-1.922-.768-3.845-1.627c-.274-.126-.543-.256-.822-.377q-1.922-.912-3.845-1.931c-.447-.237-.894-.483-1.331-.734A80.036,80.036,0,0,1,110.806,459.7c-.168-.159-.322-.333-.481-.483-.779-.85-1.543-1.709-2.283-2.587-.279-.323-.548-.652-.822-.965-.875-1.072-1.721-2.182-2.538-3.3-.125-.169-.24-.333-.36-.483a71.4,71.4,0,0,1-8.266-15.013c-.067-.159-.13-.333-.192-.483-.663-1.689-1.264-3.4-1.783-5.151-.221-.729-.437-1.448-.62-2.206-.067-.217-.12-.439-.178-.657-2.7-10.692-3.013-21.8-3.013-32.864v-3.862q.058-6.773.159-13.531.038-1.738.072-3.49.1-4.436.288-8.892c.029-.821.067-1.646.111-2.462q.029-.71.072-1.419Q91.1,359.29,91.279,356.76Z" transform="translate(-54.788 -193.502)" fill="#ffc107" opacity="0.1"/><path d="M238.8,187.451v60.168H202.13V187.451h5.229V167.08h21.463v20.371Z" transform="translate(-105.224 -86.427)" fill="#ffc107" opacity="0.1"/><rect width="36.669" height="66.776" transform="translate(96.906 163.253)" fill="#ffc107" opacity="0.1"/><path d="M218.09,499.37h36.669v55.514a94.611,94.611,0,0,1-13.192,2.814c-.365.053-.726.1-1.091.135-.538.063-1.072.121-1.605.169l-1.61.13H237.1l-.711.039h-.245c-.288,0-.572.034-.86.039h-.024c-.413,0-.822.029-1.235.039h-3.4a7.526,7.526,0,0,1-.932-.039q-.74-.029-1.5-.087h0l-.928-.068c-.384-.029-.769-.068-1.149-.106q-1.211-.106-2.4-.275l-.961-.135-.481-.068c-.8-.121-1.6-.256-2.4-.41-.6-.106-1.182-.227-1.773-.352Z" transform="translate(-121.179 -267.27)" fill="#ffc107" opacity="0.1"/><rect width="30.239" height="67.269" transform="translate(332.588 93.919)" fill="#ffc107" opacity="0.1"/><path d="M593.243,338.19v66.781H443.15v-28.8H523.1v16.992H563V338.19Z" transform="translate(-230.412 -174.937)" fill="#ffc107" opacity="0.1"/><path d="M609.669,569.985a2.7,2.7,0,0,1-.481-.029v43.808q-8.127-.671-16.2-1.878a264.071,264.071,0,0,1-70.2-20.516q-9.674-4.383-18.954-9.553a242.062,242.062,0,0,1-29.619-19.459q-3.547-2.723-6.988-5.566c-1.591-1.323-3.167-2.674-4.772-3.983-1.105-.9-2.225-1.8-3.364-2.645V498.382H578.556c-.086-.309-.163-.613-.25-.922.091.309.178.613.255.922h30.633v71.57C609.352,569.956,609.51,569.971,609.669,569.985Z" transform="translate(-246.362 -266.282)" fill="#ffc107" opacity="0.1"/><path d="M914.214,176.52h-19.7v-6.15h8.828V152.05q1.149.425,2.288.869V170.37h8.583Z" transform="translate(-472.518 -87.612)" fill="#ffc107" opacity="0.1"/><path d="M910.343,277.228H813.6a.062.062,0,0,0,.029,0H795.65V209.959h5.085V259.68h23.232V230.234h19.2V207h19.7v23.248h19.19v29.447h28.288Z" transform="translate(-421.169 -116.036)" fill="#ffc107" opacity="0.1"/><path d="M795.65,356.76v66.776h114.7V356.76ZM941.466,502.134l.163-52.859H910.348V425.622H795.65V541.733a261.85,261.85,0,0,0,28.211-.343h.163q6.728-.435,13.394-1.236h.1a245.435,245.435,0,0,0,68.835-18.469" transform="translate(-421.169 -193.502)" fill="#ffc107" opacity="0.1"/><path d="M1125.668,499.37h26.755a93.172,93.172,0,0,1-8.876,39.178,94.564,94.564,0,0,1-19.9,26.961v-42.48h2.018Z" transform="translate(-591.535 -267.27)" fill="#ffc107" opacity="0.1"/><path d="M1154.624,435.289H1127.85V379.48h14.49C1149.832,397.066,1154.6,416.375,1154.624,435.289Z" transform="translate(-593.717 -205.254)" fill="#ffc107" opacity="0.1"/><rect width="16.201" height="21.091" transform="translate(346.631 112.62)" fill="#ffc107" opacity="0.1"/><rect width="16.201" height="4.856" transform="translate(346.631 156.336)" fill="#ffc107" opacity="0.1"/><rect width="16.201" height="14.168" transform="translate(346.631 163.253)" fill="#ffc107" opacity="0.1"/><rect width="16.201" height="21.091" transform="translate(346.631 200.052)" fill="#ffc107" opacity="0.1"/><rect width="16.201" height="21.091" transform="translate(346.631 243.768)" fill="#ffc107" opacity="0.1"/><path d="M753.9,630.286a2.327,2.327,0,0,1,.481.034,2.713,2.713,0,0,1-.481-.029v4.9H737.7V614.1h16.2Z" transform="translate(-391.069 -326.616)" fill="#ffc107" opacity="0.1"/><path d="M753.9,704.65v16.287q-8.132-.671-16.2-1.878V704.65Z" transform="translate(-391.069 -373.455)" fill="#ffc107" opacity="0.1"/><rect width="69.431" height="1.55" transform="translate(212.738 228.485)" fill="#ffc107" opacity="0.1"/><rect width="69.431" height="5.938" transform="translate(212.738 232.095)" fill="#ffc107" opacity="0.1"/><rect width="69.431" height="9.548" transform="translate(212.738 257.497)" fill="#ffc107" opacity="0.1"/><path d="M532.167,612.08v9.549H477.86q-3.547-2.713-6.988-5.571c-1.6-1.318-3.172-2.669-4.772-3.978Z" transform="translate(-249.998 -325.571)" fill="#ffc107" opacity="0.1"/><path d="M576.888,672.17v9.573h-5.733q-9.674-4.383-18.954-9.553Z" transform="translate(-294.719 -356.654)" fill="#ffc107" opacity="0.1"/><rect width="13.668" height="13.729" transform="translate(402.692 169.727)" fill="#ffc107" opacity="0.1"/><rect width="13.668" height="13.729" transform="translate(106.754 105.76)" fill="#ffc107" opacity="0.1"/><rect width="13.668" height="13.729" transform="translate(106.754 137.649)" fill="#ffc107" opacity="0.1"/><rect width="13.668" height="13.729" transform="translate(106.754 169.538)" fill="#ffc107" opacity="0.1"/><rect width="13.668" height="13.729" transform="translate(106.754 201.423)" fill="#ffc107" opacity="0.1"/><rect width="13.668" height="13.729" transform="translate(106.754 233.312)" fill="#ffc107" opacity="0.1"/><rect width="13.668" height="13.729" transform="translate(106.754 265.201)" fill="#ffc107" opacity="0.1"/><rect width="13.668" height="13.729" transform="translate(454.869 169.727)" fill="#ffc107" opacity="0.1"/><rect width="13.668" height="13.729" transform="translate(402.692 203.59)" fill="#ffc107" opacity="0.1"/><rect width="13.668" height="13.729" transform="translate(454.869 203.59)" fill="#ffc107" opacity="0.1"/><rect width="13.668" height="13.729" transform="translate(402.692 237.449)" fill="#ffc107" opacity="0.1"/><rect width="13.668" height="13.729" transform="translate(454.869 237.449)" fill="#ffc107" opacity="0.1"/><rect width="13.668" height="13.729" transform="translate(402.692 271.313)" fill="#ffc107" opacity="0.1"/><rect width="13.668" height="13.729" transform="translate(454.869 271.313)" fill="#ffc107" opacity="0.1"/><rect width="13.668" height="13.729" transform="translate(402.692 305.176)" fill="#ffc107" opacity="0.1"/><rect width="13.668" height="13.729" transform="translate(454.869 305.176)" fill="#ffc107" opacity="0.1"/><path d="M838.4,711.183V702.33h13.663v7.593Z" transform="translate(-435.708 -363.295)" fill="#ffc107" opacity="0.1"/><path d="M96.53,316.91v7.854H143.3V316.91Zm4.657,7.362H97.342v-6.864h3.845Zm4.657,0H102v-6.864h3.845Zm4.647,0h-3.845v-6.864h3.845Zm4.657,0H111.3v-6.864h3.845Zm4.652,0h-3.845v-6.864H119.8Zm4.657,0h-3.845v-6.864h3.845Zm4.657,0h-3.845v-6.864h3.845Zm4.652,0h-3.845v-6.864h3.845Zm4.652,0h-3.845v-6.864h3.845Zm4.657,0H139.23v-6.864h3.845Z" transform="translate(-58.039 -172.889)" fill="#ffc107" opacity="0.1"/><path d="M96.53,364.27v7.854H143.3V364.27Zm4.657,7.362H97.342v-6.864h3.845Zm4.657,0H102v-6.864h3.845Zm4.647,0h-3.845v-6.864h3.845Zm4.657,0H111.3v-6.864h3.845Zm4.652,0h-3.845v-6.864H119.8Zm4.657,0h-3.845v-6.864h3.845Zm4.657,0h-3.845v-6.864h3.845Zm4.652,0h-3.845v-6.864h3.845Zm4.652,0h-3.845v-6.864h3.845Zm4.657,0H139.23v-6.864h3.845Z" transform="translate(-58.039 -197.387)" fill="#ffc107" opacity="0.1"/><path d="M96.53,411.64v7.849H143.3V411.64Zm4.657,7.352H97.342v-6.864h3.845Zm4.657,0H102v-6.864h3.845Zm4.647,0h-3.845v-6.864h3.845Zm4.657,0H111.3v-6.864h3.845Zm4.652,0h-3.845v-6.864H119.8Zm4.657,0h-3.845v-6.864h3.845Zm4.657,0h-3.845v-6.864h3.845Zm4.652,0h-3.845v-6.864h3.845Zm4.652,0h-3.845v-6.864h3.845Zm4.657,0H139.23v-6.864h3.845Z" transform="translate(-58.039 -221.89)" fill="#ffc107" opacity="0.1"/><path d="M96.53,459v7.849H143.3V459Zm4.657,7.357H97.342v-6.874h3.845Zm4.657,0H102v-6.874h3.845Zm4.647,0h-3.845v-6.874h3.845Zm4.657,0H111.3v-6.874h3.845Zm4.652,0h-3.845v-6.874H119.8Zm4.657,0h-3.845v-6.874h3.845Zm4.657,0h-3.845v-6.874h3.845Zm4.652,0h-3.845v-6.874h3.845Zm4.652,0h-3.845v-6.874h3.845Zm4.657,0H139.23v-6.874h3.845Z" transform="translate(-58.039 -246.388)" fill="#ffc107" opacity="0.1"/><path d="M97,506.34c.183.743.4,1.477.62,2.206v-1.709h3.845v6.86H99.4c.058.164.12.333.187.483h43.974v-7.84Zm9.131,7.357h-3.845v-6.86h3.845Zm4.647,0h-3.845v-6.86h3.845Zm4.657,0h-3.845v-6.86h3.845Zm4.652,0h-3.845v-6.86h3.845Zm4.657,0H120.9v-6.86h3.845Zm4.657,0h-3.845v-6.86H129.4Zm4.652,0h-3.845v-6.86h3.845Zm4.652,0h-3.845v-6.86h3.845Zm4.657,0h-3.845v-6.86h3.845Z" transform="translate(-58.284 -270.875)" fill="#ffc107" opacity="0.1"/><path d="M119.54,553.7c.125.154.24.328.36.483h2.542v3.3l.822.966v-4.282h3.845v6.922h-1.581c.154.159.3.328.481.483h29.234V553.7Zm12.236,7.386h-3.845v-6.893h3.845Zm4.657,0h-3.845v-6.893h3.845Zm4.657,0h-3.845v-6.893h3.845Zm4.652,0H141.9v-6.893h3.845Zm4.652,0h-3.845v-6.893h3.845Zm4.657,0h-3.845v-6.893h3.845Z" transform="translate(-69.991 -295.373)" fill="#ffc107" opacity="0.1"/><path d="M172.93,601.06c.442.251.889.483,1.336.729v-.241h3.845v2.177c.279.121.543.251.817.377v-2.554h3.845v4.18a1.558,1.558,0,0,0,.226.082v-4.75Z" transform="translate(-97.722 -319.871)" fill="#ffc107" opacity="0.1"/><path d="M519.277,275.014Zm-29.6,142.478ZM458.785,345c.091.309.173.618.255.922h0C458.967,345.618,458.881,345.309,458.785,345Zm60.492-69.986ZM229,202.73v2.056h21.468V202.72ZM489.677,417.492ZM458.785,345c.091.309.173.618.255.922h0C458.967,345.618,458.881,345.309,458.785,345Zm60.492-69.986Zm-29.6,142.478ZM458.785,345c.091.309.173.618.255.922h0C458.967,345.618,458.881,345.309,458.785,345Z" transform="translate(-126.846 -113.822)" fill="#ffc107" opacity="0.1"/><ellipse cx="46.829" cy="7.555" rx="46.829" ry="7.555" transform="translate(375.582 401.423)" fill="#ffc107" opacity="0.1"/><ellipse cx="46.829" cy="7.555" rx="46.829" ry="7.555" transform="translate(164.381 393.868)" fill="#ffc107" opacity="0.1"/><path d="M477.853,353.6a.256.256,0,0,0-.072-.126c-.716-.71-9.847-13.681-9.847-13.681s-.481-1.448-1.259-3.331a3.317,3.317,0,0,0,.553-1.086,3.736,3.736,0,0,0,.091-.507c0-.053.038-.1.053-.15a3.68,3.68,0,0,0-.048-1.989,3.451,3.451,0,0,1-.2.483,8.086,8.086,0,0,0-.721-1.612c-1.211-2.1-2.941-3.862-4.215-5.9a16.032,16.032,0,0,1-2.168-10.6c0,.188,0,.381,0,.57a16.586,16.586,0,0,1,.288-2.172,15.118,15.118,0,0,1,.8-2.385c1.144-2.631,2.994-4.924,4.119-7.564a14.386,14.386,0,0,0,.855-2.766,15.564,15.564,0,0,0,.428-4.851,7.758,7.758,0,0,1-.12,1.154,15.748,15.748,0,0,0-4.417-10.461c-3.926-3.963-9.564-5.5-14.956-6.314a13.666,13.666,0,0,1-6.3-2.414,10.9,10.9,0,0,0-7.17-1.376,11.808,11.808,0,0,0-7.3,3.625c-2.561,2.829-3.672,6.836-6.661,9.22-1.812,1.448-4.109,2.124-6.219,3.109s-4.1,2.414-4.782,4.528v.077l-.029.077c-.7,2.5.654,5.045,1.36,7.54a30.681,30.681,0,0,1,.822,7.98c.053,3.263.1,6.531.048,9.8-.024,1.284-.067,2.583-.163,3.862a20.094,20.094,0,0,0-3.3,1.332,65.519,65.519,0,0,0-5.1,5.073l-7.877,30.229.106.121-.106.41.4-.092a40.6,40.6,0,0,0,8.04,6.787l.336,5.928s.4,5.947,5.849,8.4c.125,2.061.514,10.432-1.288,13.748a15.505,15.505,0,0,0-1.7,7.859s.63,5.03-.086,7.675a12.605,12.605,0,0,0-.091,5.387h0v1.588c0,5.354.062,22.51,0,24.45-.091,2.293,0,36.2,0,36.2s-.447,16.949-1.879,21.539-1.072,19.792-1.072,19.792-.9,18.107,2.278,21.679c0,.159-.029.323-.034.483v.227c-.038,1.376.226,2.839,1.4,3.287a20.117,20.117,0,0,1,6.18,4.5c.6.8,4.095,2.781,8.651,2.25a64.838,64.838,0,0,1,8.6-.4h0s1.8-.328,1.216-2.573h0a20.127,20.127,0,0,0-2.778-4.967c.183.048.36.087.529.121l.173.034h.135a1.805,1.805,0,0,0,.221,0h.1a1.645,1.645,0,0,0,.269,0h0c1.206-.116,5.7,1.989,6.507,3.379s3.633,2.447,5.767,2.713a40.79,40.79,0,0,0,7.156-.454,26.241,26.241,0,0,0,4.008-.734c.634-.241.769-1.014.586-1.883h0a4.9,4.9,0,0,0-1.663-2.819,13.548,13.548,0,0,1-2.566-3.215l-.2-.323c1.341-1.284,3.763-5.484,4.5-6.353.894-1.057-1.442-39.719-1.442-39.719V478.637l3.58-18.344,2.5-9.708,2.148-14.656s3.758-17.118,2.6-18.8h0c0-.034-.961-17.658-1.97-21.892-.437-1.887-.327-6.135-.067-10.268a2.034,2.034,0,0,0,.481-2.114,4.4,4.4,0,0,0-.279-.719v-.222a32.993,32.993,0,0,1,6.474-2.211c3.58-.7,2.686-2.558,2.686-2.558s.807-1.588,1.341-2.558.091-9.534,0-10.239c-.034-.285-.255-1.858-.509-3.645,1.149-.821,2.643-1.839,4.272-2.8C478.8,356.057,478.107,354.112,477.853,353.6ZM431.139,475.992s-2.686,6.884-1.61,8.646-.178,8.3-.178,8.3l-.9,9.708s-2.5,18.006-1.61,22.239c.7,3.321.961,13.241,1.043,17.378h0a1.2,1.2,0,0,0-.178.087l-.12.063c.413-1.627.24-4.919-1.812-11.542l-.173-27.356s-.317-31.6,2.167-35.133,3.364-9.534,3.364-9.534-.538,8.655-.889,10.948S431.139,475.992,431.139,475.992Zm-5,68c-.024.058-.053.116-.072.169l-.135-.174A1.391,1.391,0,0,0,426.136,543.989Z" transform="translate(-212.73 -151.946)" fill="url(#i)"/><path d="M488.26,841.753a47.51,47.51,0,0,1-11.025,1.192c-2.1-.256-4.892-1.328-5.685-2.727s-5.238-3.514-6.43-3.379a4.3,4.3,0,0,1-1.442-.2,17.7,17.7,0,0,1-2.4-.927,4.5,4.5,0,0,1,.053-1.834,2.945,2.945,0,0,1,.106-.357,3.186,3.186,0,0,1,1.615-1.805l.173-.082a4.866,4.866,0,0,1,1.038-.319c3.777-.729,19.363.734,19.363.734s.437.787,1.038,1.762a13.463,13.463,0,0,0,2.538,3.234,4.953,4.953,0,0,1,1.639,2.838C489.019,840.735,488.884,841.517,488.26,841.753Z" transform="translate(-247.455 -438.868)" fill="#fff"/><path d="M488.266,843.2a47.467,47.467,0,0,1-11.02,1.192c-2.1-.256-4.892-1.332-5.69-2.727s-5.234-3.514-6.426-3.379-3.845-1.13-3.845-1.13a4.016,4.016,0,0,1,.788-3.249l2.4,1.714s6.43,2,7.622,3.862,3.364,2.9,6.5,3.085c2.345.154,7.733-.763,10.256-1.221C489.025,842.184,488.9,842.966,488.266,843.2Z" transform="translate(-247.461 -440.317)" opacity="0.1"/><path d="M443.108,844.4a63.707,63.707,0,0,0-8.487.4c-4.513.531-7.959-1.448-8.559-2.264a20.065,20.065,0,0,0-6.1-4.538c-1.168-.454-1.442-1.931-1.389-3.312v-.227a13.574,13.574,0,0,1,.384-2.592l18.7-.4,1.62,2.206.25.338.985,1.347s.447.589,1.033,1.448a20.632,20.632,0,0,1,2.744,5h0C444.881,844.074,443.108,844.4,443.108,844.4Z" transform="translate(-225.309 -439.055)" fill="#fff"/><path d="M443.108,847.863a63.707,63.707,0,0,0-8.487.4c-4.508.531-7.959-1.448-8.555-2.264a19.5,19.5,0,0,0-6.1-4.528c-1.168-.454-1.442-1.931-1.389-3.312,1.336.314,4.143,1.115,5.243,2.51,1.442,1.863,4.023,5,7.689,5.194,2.96.159,10.169-.372,12.813-.584C444.886,847.535,443.108,847.863,443.108,847.863Z" transform="translate(-225.309 -442.515)" opacity="0.1"/><path d="M440.863,831.87c-.216,1.612-.884,2.047-1.365,2.143a.925.925,0,0,1-.356,0,1.185,1.185,0,0,1-.187-.029s-16.792,3.727-20.185.71a2.349,2.349,0,0,1-.24-.251,13.573,13.573,0,0,1,.384-2.592l18.7-.4,1.62,2.206a3.186,3.186,0,0,1,1.615-1.805Z" transform="translate(-225.289 -439.044)" opacity="0.1"/><path d="M486.814,833.742c-.375.415-.687.652-.884.57-.884-.357-8.132-1.6-10.434-.531s-10.092.174-10.092.174,0-.927-.043-2.414a4.878,4.878,0,0,1,1.038-.319c3.777-.729,19.363.734,19.363.734S486.218,832.767,486.814,833.742Z" transform="translate(-249.613 -438.821)" opacity="0.1"/><path d="M470.965,583.8l-2.124,14.743-2.47,9.77-3.537,18.469v19.551s2.3,38.9,1.413,39.961-4.244,7.111-5.128,6.758-8.132-1.6-10.434-.536-10.092.179-10.092.179-.178-15.1-1.062-19.357,1.591-22.379,1.591-22.379l.884-9.766s1.24-6.575.178-8.351,1.591-8.689,1.591-8.689-1.235-3.915-.879-6.222.879-11.011.879-11.011-.879,6.044-3.335,9.592-2.143,35.346-2.143,35.346l.173,27.516c4.426,14.569,0,13.145,0,13.145s-16.792,3.731-20.185.71-2.422-22.042-2.422-22.042-.351-15.274,1.062-19.888,1.86-21.67,1.86-21.67-.091-34.1,0-36.407c.067-1.931,0-19.218,0-24.619V567l2.028-5.059,24.03-3.022h11.5s17.3,4.084,19.089,5.846a.4.4,0,0,1,.1.106C474.68,566.576,470.965,583.8,470.965,583.8Z" transform="translate(-222.797 -298.073)" fill="#ffc107"/><path d="M472.11,770.88s5.287,12.788,7.781,13.676S472.11,770.88,472.11,770.88Z" transform="translate(-253.119 -407.713)" opacity="0.1"/><path d="M476.18,809.88s17.849.888,17.671,2.843S476.18,809.88,476.18,809.88Z" transform="translate(-255.233 -427.887)" opacity="0.1"/><path d="M426.49,799.29c.706.671,13.615,1.931,12.553,3.157s-11.491,3.611-11.491,3.611Z" transform="translate(-229.424 -422.409)" opacity="0.1"/><path d="M422.08,753.59c0,.531,2.653,17.05,3.364,17.76s6.541,1.419,6.541,1.419Z" transform="translate(-227.133 -398.77)" opacity="0.1"/><path d="M442.122,281.82c-2.533,2.843-3.628,6.874-6.579,9.278-1.793,1.448-4.061,2.138-6.147,3.123s-4.152,2.486-4.772,4.716c-.692,2.51.644,5.074,1.346,7.584a31.531,31.531,0,0,1,.812,8.028c.048,3.287.1,6.575.043,9.862-.086,5.122-.509,10.48-3.215,14.82,9.77,3.123,20.161,3.548,30.407,3.949a30.546,30.546,0,0,0,5.906-.15,50.529,50.529,0,0,0,5.032-1.279,38.419,38.419,0,0,1,10.025-1.289,16.753,16.753,0,0,0,4.4-.294,4.35,4.35,0,0,0,3.177-2.8,5.229,5.229,0,0,0-.812-3.8c-1.192-2.1-2.884-3.862-4.162-5.938a16.38,16.38,0,0,1-1.043-14.67c1.134-2.65,2.96-4.958,4.075-7.613a16.109,16.109,0,0,0-3.22-17.031c-3.878-3.987-9.444-5.532-14.769-6.353a13.379,13.379,0,0,1-6.219-2.414,10.605,10.605,0,0,0-7.084-1.381,11.545,11.545,0,0,0-7.2,3.659Z" transform="translate(-227.928 -152.792)" fill="#3f3d56"/><g transform="translate(195.874 144.89)" opacity="0.1"><path d="M532.694,331.193a16.124,16.124,0,0,0-1.226,7.371,15.843,15.843,0,0,1,1.226-5.233c1.129-2.65,2.956-4.958,4.071-7.613a15.465,15.465,0,0,0,1.12-7.009,15.069,15.069,0,0,1-1.12,4.876C535.65,326.241,533.823,328.543,532.694,331.193Z" transform="translate(-479.805 -318.71)"/><path d="M427.978,336.053c.029,1.892.058,3.789.062,5.682q0-3.91-.062-7.811a31.463,31.463,0,0,0-.812-8.033,39.9,39.9,0,0,1-1.442-4.991c-.428,2.365.788,4.764,1.442,7.125A31.317,31.317,0,0,1,427.978,336.053Z" transform="translate(-424.854 -319.843)"/><path d="M479.754,398.114a16.18,16.18,0,0,1-4.4.294,38.392,38.392,0,0,0-10.02,1.265,50.857,50.857,0,0,1-5.032,1.274,30.228,30.228,0,0,1-5.911.154c-9.9-.391-19.94-.811-29.422-3.654a16.4,16.4,0,0,1-.961,1.834c9.77,3.118,20.161,3.548,30.4,3.949a30.226,30.226,0,0,0,5.911-.154,49.521,49.521,0,0,0,5.013-1.27,38.393,38.393,0,0,1,10-1.279,16.521,16.521,0,0,0,4.4-.3,4.353,4.353,0,0,0,3.177-2.8,3.849,3.849,0,0,0-.048-2.008A4.492,4.492,0,0,1,479.754,398.114Z" transform="translate(-424.01 -358.39)"/></g><path d="M474.83,358.714c-.356.8-1.855,7.724-2.211,8.433s-2.3,12.068-2.475,12.705-12.8-2.665-12.8-2.665l-7.6-6.4-7.81-7.806s-.231-7.043,5.522-9.3a8.754,8.754,0,0,1,1.2-.377c6.978-1.685,6.277-23,6.277-23l14.322,6.213s-2.653,12.435-2.562,14.834c.024.806.654,1.308,1.475,1.612a11.616,11.616,0,0,0,3.912.425S475.186,357.917,474.83,358.714Z" transform="translate(-237.447 -179.82)" fill="#fbbebe"/><path d="M543.281,436.392l2.033.536s1.5,2.3-2.033,4.436a61.265,61.265,0,0,0-6.454,4.533l-10.453,3.2-2.014-6.348,9.727-7.415Z" transform="translate(-280.258 -234.144)" fill="#ffc107"/><path d="M543.281,436.392l2.033.536s1.5,2.3-2.033,4.436a61.265,61.265,0,0,0-6.454,4.533l-10.453,3.2-2.014-6.348,9.727-7.415Z" transform="translate(-280.258 -234.144)" opacity="0.1"/><path d="M400.606,448.994l-4.066,4s7.334,8.525,12.976,9.056,9.28-6.483,9.28-6.483l-4.883-7.724Z" transform="translate(-213.868 -240.615)" fill="#ffc107"/><path d="M400.606,448.994l-4.066,4s7.334,8.525,12.976,9.056,9.28-6.483,9.28-6.483l-4.883-7.724Z" transform="translate(-213.868 -240.615)" opacity="0.1"/><ellipse cx="14.144" cy="14.207" rx="14.144" ry="14.207" transform="translate(211.215 136.003)" opacity="0.1"/><ellipse cx="14.144" cy="14.207" rx="14.144" ry="14.207" transform="translate(211.215 134.936)" fill="#fbbebe"/><path d="M476.823,566.5a45.488,45.488,0,0,0-9.463,2.129c-5.286,1.767-46.713.029-47.29,0v-1.6l2.028-5.059,24.03-3.022h11.5s17.3,4.084,19.089,5.846C476.784,565.858,476.823,566.5,476.823,566.5Z" transform="translate(-226.089 -298.089)" opacity="0.1"/><path d="M474.83,382.995c-.356.8-1.855,7.724-2.211,8.433s-2.3,12.068-2.475,12.705-12.8-2.665-12.8-2.665l-7.6-6.4-7.81-7.806s-.231-7.043,5.522-9.3l14.283,16.495,6.43-17.209a11.613,11.613,0,0,0,3.912.425S475.186,382.2,474.83,382.995Z" transform="translate(-237.447 -204.101)" opacity="0.1"/><path d="M446.552,394.2l-14.62-16.9a6.1,6.1,0,0,0-5.8-.43c-3.273,1.424-7.339,2.578-8.4,3.287a65.68,65.68,0,0,0-5.041,5.1L424.541,416.4l-5.219,20.511s.8,10.48-1.235,14.3a15.752,15.752,0,0,0-1.682,7.9s.62,5.064-.086,7.724a12.921,12.921,0,0,0-.091,5.416s42,1.776,47.3,0a45.09,45.09,0,0,1,9.463-2.129s-.961-17.764-1.922-22.027.8-20.511.8-20.511l-1.149-17.407,6.892-17.861s-3.734-11.45-7.627-12.6c0,0-7.069-1.69-8.574-2.486s-5.926-1.511-5.926-1.511l-2.321.782Z" transform="translate(-222.256 -203.309)" fill="#ffc107"/><path d="M1.415,0,32.251.011a1.417,1.417,0,0,1,1.413,1.42l.015,48.9a1.415,1.415,0,0,1-1.413,1.419L1.431,51.74A1.417,1.417,0,0,1,.017,50.32L0,1.421A1.415,1.415,0,0,1,1.415,0Z" transform="translate(212.519 204.087) rotate(3.89)" opacity="0.1"/><path d="M1.415,0,32.251.011a1.417,1.417,0,0,1,1.413,1.42l.015,48.9a1.415,1.415,0,0,1-1.413,1.419L1.431,51.74A1.417,1.417,0,0,1,.017,50.32L0,1.421A1.415,1.415,0,0,1,1.415,0Z" transform="translate(213.579 203.027) rotate(3.89)" fill="#3f3d56"/><path d="M0,0,29.328.01l.013,44.517L.015,44.518Z" transform="translate(215.479 207.051) rotate(3.89)" fill="#fff"/><path d="M0,0,23.959.009l0,6.707L0,6.708Z" transform="translate(218.214 218.705) rotate(4.004)" opacity="0.1"/><path d="M0,0H3.8V3.5H0Z" transform="translate(237.458 246.716) rotate(3.89)" opacity="0.1"/><path d="M0,0,19.46.007V3.5L0,3.5Z" transform="translate(218.095 237.233) rotate(3.89)" opacity="0.1"/><path d="M0,0,20.262.007l0,5.373L0,5.374Z" transform="translate(220.903 206.008) rotate(3.89)" fill="#3f3d56"/><path d="M0,0,20.262.007l0,5.373L0,5.374Z" transform="translate(220.903 206.008) rotate(3.89)" opacity="0.1"/><path d="M479.184,572.56s-.178,26.289-7.074,41.384c0,0,8.314-19.893,8.314-20.69s4.594-9.148,3.364-11.634S479.184,572.56,479.184,572.56Z" transform="translate(-253.119 -305.129)" opacity="0.1"/><path d="M469.227,304.149a9.916,9.916,0,0,1,1.6-6.618,8.149,8.149,0,0,0,6.277,8.593,1.07,1.07,0,0,1-.3-1.168,35.71,35.71,0,0,0,2.855,3.432,3.782,3.782,0,0,0,4.1.874c1.783-.965,1.8-3.509,1.341-5.489a25.816,25.816,0,0,0-5.906-11.33,7.8,7.8,0,0,0-6.2-3.167,15.191,15.191,0,0,0-8.011,1.26,21.288,21.288,0,0,0-3.845,2.7l-6.728,5.513a6.4,6.4,0,0,0-1.634,1.728,4.747,4.747,0,0,0-.509,1.81,9.77,9.77,0,0,0,4.527,9.206,7.2,7.2,0,0,1,4.292-6.758,1.876,1.876,0,0,1,.668,1.4l1.418-2.539a2.792,2.792,0,0,1,.961-1.144c.875-.483,1.966.087,2.711.768a4.837,4.837,0,0,0,2.47,1.636l.038-3.78" transform="translate(-242.787 -158.559)" opacity="0.1"/><path d="M469.248,303.049a9.921,9.921,0,0,1,1.6-6.623,8.154,8.154,0,0,0,6.281,8.593,1.06,1.06,0,0,1-.3-1.163,36.322,36.322,0,0,0,2.855,3.432,3.763,3.763,0,0,0,4.1.869c1.783-.965,1.8-3.509,1.341-5.484a25.817,25.817,0,0,0-5.906-11.33,9.459,9.459,0,0,0-3.3-2.578,9.574,9.574,0,0,0-2.884-.589,15.187,15.187,0,0,0-8.011,1.255,21.556,21.556,0,0,0-3.845,2.7l-6.728,5.513a6.337,6.337,0,0,0-1.634,1.728,4.723,4.723,0,0,0-.509,1.81,9.765,9.765,0,0,0,4.527,9.2,7.209,7.209,0,0,1,4.292-6.758,1.891,1.891,0,0,1,.668,1.4l1.413-2.53a2.763,2.763,0,0,1,.961-1.144c.875-.483,1.966.087,2.711.768a4.867,4.867,0,0,0,2.47,1.637l.038-3.785" transform="translate(-242.808 -157.989)" fill="#3f3d56"/><path d="M455.406,475.268c-1.235-.628-21.66,2.573-21.66,2.573a116.457,116.457,0,0,0-11.5-2.307c-8.132-1.342-8.651-9.326-8.651-9.326l-.889-15.983,2.744-2.414,11.755,7.724a38.312,38.312,0,0,1,0,4.61,6.525,6.525,0,0,0-.394,1.448.482.482,0,0,0,.394.434c.8.2,11.669,1.97,11.669,1.97s25.2-1.733,31.479,6.792a6.419,6.419,0,0,1,1.11,2.1C473.024,478.719,456.525,475.823,455.406,475.268Z" transform="translate(-222.266 -240.599)" fill="#fbbebe"/><path d="M486.322,487.731c-.961.43-1.557.739-1.557.739s-9.016-.266-14.081-2.109a32.936,32.936,0,0,0-11.222-1.516s-21.108-3.649-17.835-8.414a.482.482,0,0,0,.394.434c.8.2,11.669,1.97,11.669,1.97s25.2-1.733,31.479,6.792A6.418,6.418,0,0,1,486.322,487.731Z" transform="translate(-237.107 -255.404)" opacity="0.1"/><path d="M495.105,441.58s1.24,8.791,1.326,9.5.533,9.322,0,10.3-1.326,2.573-1.326,2.573.884,1.863-2.653,2.578a36.205,36.205,0,0,0-7.689,2.838s-9.021-.265-14.057-2.129a32.3,32.3,0,0,0-11.227-1.511s-26.793-4.62-15.3-10.258,19.627,2,19.627,2l12.817-.8s4.777-2.935,6.1-2.665a4.888,4.888,0,0,0,2.739-.444l.091-9.326Z" transform="translate(-237.124 -237.377)" fill="#fbbebe"/><path d="M406.822,396.735l-2.566-.135-7.776,30.412s8.4-2.134,12.015,0,10.256,2.573,10.256,2.573l-2.475-24.243Z" transform="translate(-213.836 -214.11)" opacity="0.1"/><path d="M406.822,395.625l-2.566-.135L396.48,425.9s8.4-2.134,12.015,0,10.256,2.573,10.256,2.573l-2.475-24.243Z" transform="translate(-213.836 -213.536)" fill="#ffc107"/><path d="M534.242,409.57l3.532.8s9.021,13.034,9.727,13.763-3.364,3.379-5.041,3.379-9.9.965-12.289,3.2-1.394-8.993-1.394-9.249,2.965-7.337,2.965-7.337Z" transform="translate(-282.446 -220.819)" opacity="0.1"/><path d="M534.242,408.47l3.532.8s9.021,13.058,9.727,13.767-3.364,3.379-5.041,3.379-9.9.965-12.289,3.2-1.394-8.993-1.394-9.249S531.762,413,531.762,413Z" transform="translate(-282.446 -220.25)" fill="#ffc107"/><g transform="translate(209.449 137.369)" opacity="0.1"><path d="M470.823,304.24a7.152,7.152,0,0,1,.024-1.11,9.906,9.906,0,0,0-1.48,3.645v1.347c0,.782,0,1.569-.024,2.351h-.067v.362a1.932,1.932,0,0,0-.024-.372,5.111,5.111,0,0,1-2.364-1.612c-.716-.647-1.836-1.265-2.711-.768a2.763,2.763,0,0,0-.961,1.144l-1.427,2.529a1.871,1.871,0,0,0-.668-1.39,7.2,7.2,0,0,0-4.292,6.758,9.816,9.816,0,0,1-4.561-7.69,9.773,9.773,0,0,0,4.561,8.752,7.209,7.209,0,0,1,4.292-6.758,1.891,1.891,0,0,1,.668,1.4l1.413-2.529a2.763,2.763,0,0,1,.961-1.144c.875-.483,1.966.087,2.71.768a4.867,4.867,0,0,0,2.47,1.636q0-1.854.038-3.7A9.858,9.858,0,0,1,470.823,304.24Z" transform="translate(-452.256 -303.13)"/><path d="M487.5,313.038c.024-.328.063-.656.111-.965l.053-1.332A9.813,9.813,0,0,0,487.5,313.038Z" transform="translate(-470.556 -307.066)"/><path d="M510.266,322.821a3.771,3.771,0,0,1-4.1-.869,35.709,35.709,0,0,1-2.855-3.432,1.07,1.07,0,0,0,.3,1.168,1.129,1.129,0,0,1-.279-.072,31.854,31.854,0,0,0,2.831,3.379c1.105.965,2.787,1.574,4.1.869s1.687-2.356,1.571-3.963A3.355,3.355,0,0,1,510.266,322.821Z" transform="translate(-478.742 -311.091)"/><path d="M496.878,313.083a8.2,8.2,0,0,1-5.988-7.173,8.148,8.148,0,0,0,6.3,8.317A1.065,1.065,0,0,1,496.878,313.083Z" transform="translate(-472.314 -304.568)"/></g><path d="M872.919,370.382s-1.894-.265-1.894-3.032a43.67,43.67,0,0,0-1.355-7.946h0s-1.173-9.013-2.792-10.441-3.7-9.819-3.7-9.819-.356-4.552-1.081-5.532a47.105,47.105,0,0,1-3.153-6.8c-1.447-3.423-7.464-5.769-7.464-5.769s-10.9-6.353-13.995-8.424h0a4.784,4.784,0,0,1-.788-.6c-.538-.7-2.883-.719-2.883-.719a47.856,47.856,0,0,1-.557-4.962v-.521a16.689,16.689,0,0,0,7.31-9.085c.058-.184.106-.372.158-.56a1.564,1.564,0,0,0,.961-.85,17.076,17.076,0,0,1,.629-1.931,7.135,7.135,0,0,1,1.778-1.564c1.528-1.308,1.922-3.5,1.85-5.5-.048-1.622-.308-3.254-.207-4.861a1.922,1.922,0,0,1,.029-.405c.029-.237.062-.483.106-.714.236-1.2.75-2.327,1.038-3.514a4.539,4.539,0,0,0-.356-3.548c-.985-1.5-3.037-1.8-4.84-1.931-2.042-.174-3.845.048-5.176-1.656a18.188,18.188,0,0,0-2.057-2.491c-.269-.251-2.884-1.859-2.884-1.96a11.636,11.636,0,0,0-8.17-.632c-1.36.4-2.634,1.043-4.013,1.366-2.96.7-6.373-.058-8.891,1.646a10.535,10.535,0,0,0-3.033,4q-.961,1.844-1.951,3.693a23.82,23.82,0,0,0-2.59,6.319,10.759,10.759,0,0,0-.178,1.482h0v.768a2.663,2.663,0,0,0,.029.483,2.775,2.775,0,0,0,.034.3c.034.1.043.328.072.483s.086.43.144.637a.983.983,0,0,0,.086.27c.029.092.106.323.168.483s.067.169.106.251a4.551,4.551,0,0,0,.245.483c.039.063.067.125.106.188a5.459,5.459,0,0,0,.442.647c1.024,1.289,2.542,2.109,3.662,3.316v.541a16.54,16.54,0,0,0,7.536,13.468c0,.183.024.372.034.56a27.67,27.67,0,0,1-.053,4.3,2.024,2.024,0,0,0-1.6-.714,2.276,2.276,0,0,0-.615.053l-.043-.034h0v.043c-1.057.261-2.36,1.366-3.6,4.509,0,0-3.787,4.287-6.671,4.108s-10.184,4.465-10.184,4.465-7.122,4.639-8.651,9.37a65.666,65.666,0,0,1-3.071,7.859l-8.828,18.209h0l-1.62,14.482s.9,6.425.721,7.41,3.7,9.819,3.7,9.819,12.8,22.582,18.027,23.741l.375-.261a3.26,3.26,0,0,0,.707.261l1.076-.758a11.352,11.352,0,0,1-.087,2.544c-.716,2.235.274,16.785,1.533,19.638s.812,40.265.812,40.265l-.178,3.3a1.407,1.407,0,0,0,.043.29l-.043.782.13.068a9.373,9.373,0,0,1-.13,3.147,35.049,35.049,0,0,0-.634,5.537s-3.6,23.113-1.893,27.757,3.157,9.732,3.157,9.732,1.8,5.793.086,6.758-6.574,2.679-5.584,5.088c.913,2.23,4.378,8.206,4.892,9.08l-.043.483-.707,7.69a9.691,9.691,0,0,0,.812,2.935,5.024,5.024,0,0,0,5.137,3.225c.481-.034,1.033-.087,1.576-.159a68.056,68.056,0,0,0,11.673-3.056,4.61,4.61,0,0,1-.908-.758h0a2.656,2.656,0,0,1-.8-1.931c.077-1.4-2.533-8.071-3.186-9.717l-.149-.367s5.95-6.251,4.96-11.783c0,0-6.584-3.862-4.417-5.986s6.041-8.206,6.041-8.206.178-22.761,0-26.154a28.317,28.317,0,0,1,.331-7.067c.072-.348.159-.69.25-1.033a61.122,61.122,0,0,0,9.064.69q1.663,0,3.364-.068,0,.483.043,1.043c.25,5.638.716,15.529,1.1,19.2.538,5.262,3.513,19.459,3.513,19.459s-5.676,3.654.99,12.677c0,0,0,3.263-.442,3.741h0a40.991,40.991,0,0,0-1.139,4.716c-.279,1.694-.394,3.418.058,4.306,1.081,2.134,7.569,1.96,7.569,1.96h0a1.026,1.026,0,0,1,.159-.024,9.233,9.233,0,0,1,6.868,2.076c2.465,1.989,11.818,1.12,16.888.483,1.985-.256,3.311-.483,3.311-.483a1.961,1.961,0,0,0,.067-.7h0c-.053-1.25-1.028-3.992-7.641-6.44,0,0-6.219-4.2-6.132-7.859h-.855c.452-.014.769-.014.769-.014s-2.437-8.926-1.442-9.655-1.985-10.62-1.985-10.62-1.706-16.606-1.8-17.764a10.246,10.246,0,0,1,.452-2.945l-.452-9.109s-.087-3.027,0-4.011a18.962,18.962,0,0,0-.2-2.554c-.043-.338-.086-.69-.135-1.038,2.331-.594,3.845-1.139,3.845-1.139l-.269-31.691c1.98-3.862,2.345-12.339,2.336-18.344,0-3.862-.173-6.72-.173-6.72l2.706-4.436s.625-5.31-.365-6.473a1.118,1.118,0,0,1,.12-1.521,5.03,5.03,0,0,1,.6-.425.749.749,0,0,1-.062-.106,4.777,4.777,0,0,1,.6-.43s-.961-1.5-.1-2.129c.807.55,1.528.99,2.076,1.3-.038.352-.077.555-.077.555l.231-.483.851.483s4.239-8.482,4.148-9.727,2.884-6.517,2.884-6.517.36-2.771,1.985-3.929,1.259-9.553,1.259-9.553.452-4.374,1.533-6.155S872.919,370.382,872.919,370.382Zm-81.1-3.722.082,2.023c-.481-.777-.827-1.332-.827-1.332Z" transform="translate(-408.106 -145.6)" fill="url(#j)"/><path d="M949.485,546.035l-1.038,4.441s-8.314-4.272-9.809-9.679,2.5-7.468,2.5-7.468l7.752,3.292Z" transform="translate(-495.265 -284.836)" fill="#fff"/><path d="M949.485,546.035l-1.038,4.441s-8.314-4.272-9.809-9.679,2.5-7.468,2.5-7.468l7.752,3.292Z" transform="translate(-495.265 -284.836)" opacity="0.1"/><path d="M844.145,853.942s-7.69,2.838-12.976,3.2a4.937,4.937,0,0,1-5.041-3.205,9.832,9.832,0,0,1-.8-2.9l.7-7.651.365-4.069,11.231-2.935,1.591,4.89.149.367c.634,1.636,3.2,8.269,3.124,9.655a2.656,2.656,0,0,0,.783,1.931A4.47,4.47,0,0,0,844.145,853.942Z" transform="translate(-436.585 -441.595)" fill="#fff"/><path d="M936.434,849.482a1.941,1.941,0,0,1-.067.7s-16.446,2.752-19.81,0a8.878,8.878,0,0,0-6.9-2.042s-6.363.174-7.425-1.931c-.442-.883-.327-2.6-.053-4.282a41.225,41.225,0,0,1,1.115-4.692l.255-.2,1.514-1.221,17.724-.526h.135c-.087,3.64,6.012,7.815,6.012,7.815C935.425,845.509,936.381,848.237,936.434,849.482Z" transform="translate(-476.375 -441.026)" fill="#fff"/><path d="M936.436,856.594a2,2,0,0,1-.072.7s-16.446,2.752-19.805,0a8.879,8.879,0,0,0-6.906-2.042s-6.368.174-7.43-1.931c-.437-.883-.327-2.6-.053-4.287,2.451.246,6.32.859,7.839,2.327,2.3,2.221,6.19,4.441,8.574,4.62C920.466,856.092,931.668,856.45,936.436,856.594Z" transform="translate(-476.371 -448.138)" opacity="0.1"/><path d="M845.007,871.969s-7.69,2.839-12.976,3.2a4.937,4.937,0,0,1-5.042-3.205c1.961.661,4.676,1.352,6.1.719,1.692-.758,7.689-1.241,11.054-1.448A4.371,4.371,0,0,0,845.007,871.969Z" transform="translate(-437.447 -459.621)" opacity="0.1"/><path d="M874.4,367.829c-6.344-2.476-14.5-10.659-12.467-14.482a8.687,8.687,0,0,0,.793-3.07,28.148,28.148,0,0,0,.058-4.345,59.9,59.9,0,0,0-.851-7.072s19.805.449,18.652,3.379a10.919,10.919,0,0,0-.3,4.021c.1,1.665.332,3.563.582,5.16.341,2.187.692,3.862.692,3.862s-1.216,1.7-1.922,1.8S883.5,371.377,874.4,367.829Z" transform="translate(-455.433 -184.243)" fill="#cf6f80"/><path d="M840.076,841.587l-.149.164c-5.921-7.193-13.082,1.776-13.082,1.776l-.106-.193.365-4.069,11.231-2.935,1.591,4.89Z" transform="translate(-437.318 -441.569)" opacity="0.1"/><path d="M924.412,835.766s-4.325-.087-6.632,1.96-13.456.439-12.976,0a1.675,1.675,0,0,0,.25-.739l1.514-1.221,17.724-.526C924.359,835.578,924.412,835.766,924.412,835.766Z" transform="translate(-477.857 -441.005)" opacity="0.1"/><path d="M842.152,709.1a13.589,13.589,0,0,0-.73,2.477,28.461,28.461,0,0,0-.332,7.029c.178,3.379,0,26.024,0,26.024s-3.8,6.039-5.926,8.168,4.325,5.952,4.325,5.952c.961,5.508-4.864,11.725-4.864,11.725-5.921-7.193-13.082,1.772-13.082,1.772s-3.893-6.758-4.863-9.172,3.8-4.079,5.479-5.064-.086-6.758-.086-6.758-1.413-5.064-3.1-9.684,1.855-27.612,1.855-27.612a35.834,35.834,0,0,1,.62-5.513,9.379,9.379,0,0,0,.13-3.128c-.029-.352-.062-.642-.086-.845s-.043-.29-.043-.29l.067-.116,2.4-4.5S843.305,706.27,842.152,709.1Z" transform="translate(-432.025 -370.827)" fill="#ffc107"/><path d="M918.8,770.142s-4.325-.092-6.632,1.931-13.456.444-12.976,0,.437-3.727.437-3.727c-6.541-8.974-.961-12.614-.961-12.614s-2.917-14.12-3.446-19.357c-.37-3.654-.827-13.517-1.072-19.1-.106-2.414-.168-4.079-.168-4.079l5.3-1.057.687-.135,12.889-2.6s.356,2.414.6,4.388a19.371,19.371,0,0,1,.2,2.544c-.082.965,0,3.992,0,3.992l.442,9.056a10.486,10.486,0,0,0-.442,2.93c.091,1.159,1.769,17.673,1.769,17.673s2.917,9.857,1.922,10.567S918.8,770.142,918.8,770.142Z" transform="translate(-472.242 -375.912)" fill="#ffc107"/><path d="M880.932,342.269a10.916,10.916,0,0,0-.3,4.021,16.4,16.4,0,0,1-17.5-.328,59.931,59.931,0,0,0-.851-7.072S882.085,339.339,880.932,342.269Z" transform="translate(-455.777 -184.258)" opacity="0.1"/><path d="M881.462,306.109a16.442,16.442,0,1,1-32.882.4v-.4a16.446,16.446,0,1,1,32.892,0Z" transform="translate(-448.661 -158.757)" fill="#cf6f80"/><path d="M874.4,380.062c-6.344-2.476-14.5-10.659-12.467-14.482a8.687,8.687,0,0,0,.793-3.07l8.684,7.173,5.373,4.427,4.085-10.441c.341,2.187.692,3.862.692,3.862s-1.216,1.7-1.922,1.8S883.5,383.61,874.4,380.062Z" transform="translate(-455.433 -196.476)" opacity="0.1"/><path d="M874.466,392.4l-7.252,122.372-9.458.623-24.5-70.957,4.018-84.241.851-17.8,10.89,8.984,5.373,4.427,4.205-10.75,7.819,6.845Z" transform="translate(-433.038 -177.114)" fill="#ffc107"/><path d="M847.439,709.145a13.588,13.588,0,0,0-.73,2.477A69.462,69.462,0,0,1,826.86,705.4l-.13-.067.043-.777v-.406l2.4-4.5S848.592,706.312,847.439,709.145Z" transform="translate(-437.312 -370.868)" opacity="0.1"/><path d="M899.4,719.617a48.475,48.475,0,0,1-5.315.613c-.106-2.414-.168-4.079-.168-4.079l5.325-1.081Z" transform="translate(-472.211 -378.845)" opacity="0.1"/><path d="M919.955,713.788c-3.417.893-8.7,1.9-13.418,1.27L906.47,712l12.889-2.6S919.7,711.794,919.955,713.788Z" transform="translate(-478.73 -375.912)" opacity="0.1"/><path d="M839.068,535.342c-19.7,3.379-37.75-6.309-37.75-6.309l.173-3.283s.447-37.214-.793-40.067-2.206-17.3-1.5-19.507-2.562-35.514-2.562-35.514l-.529-13.516-19.363-7.9,8.651-18.117a65.623,65.623,0,0,0,3.008-7.82c1.5-4.707,8.487-9.326,8.487-9.326s7.161-4.615,9.991-4.441,6.541-4.084,6.541-4.084c2.739-7.014,5.219-3.862,5.219-3.862a6.232,6.232,0,0,1-.135,1.038c-.961,7.7,15.542,32.029,15.778,32.464h0l1.591,38.454,1.591,48.664Z" transform="translate(-411.347 -195.637)" opacity="0.1"/><path d="M837.952,535.342c-19.7,3.379-37.755-6.309-37.755-6.309l.178-3.283s.442-37.214-.8-40.067-2.206-17.315-1.5-19.541-2.576-35.5-2.576-35.5l-.533-13.516-19.358-7.9,8.651-18.117a66.7,66.7,0,0,0,3.008-7.815c1.5-4.692,8.511-9.317,8.511-9.317s7.161-4.615,9.987-4.441,6.555-4.079,6.555-4.079c2.744-7.014,5.767-3.862,5.767-3.862,0,.338-.288.483-.135,1.038,2.115,7.468,15.014,32.029,15.249,32.464h0l1.591,38.454,1.557,48.688Z" transform="translate(-410.76 -195.637)" fill="#fff"/><path d="M874.662,397.362c-2.119-.888-13.346-13.763-13.346-13.763v-2.93c-.408-.965-2.84-.377-4.806.3l.846-17.8.961.8C860.417,371.434,874.431,396.932,874.662,397.362Z" transform="translate(-452.78 -196.818)" opacity="0.1"/><path d="M875.767,395.177c-2.124-.893-13.351-13.763-13.351-13.763V378.48c-.409-.966-2.836-.377-4.806.3L858.441,361l.961.8C861.522,369.25,875.531,394.743,875.767,395.177Z" transform="translate(-453.352 -195.695)" fill="#fff"/><path d="M826.711,563.279c.264,0,13.7-1.419,13.7-1.419s8.136,16.075,7.6,19.98-1.5,7.371-4.772,6.758-17.614.483-17.614.483Z" transform="translate(-436.741 -299.594)" opacity="0.1"/><path d="M825.6,561.069c.269,0,13.706-1.419,13.706-1.419s8.132,16.1,7.6,19.961-1.5,7.371-4.772,6.758-17.618.483-17.618.483Z" transform="translate(-436.164 -298.451)" fill="#fff"/><path d="M839.9,547s12.332,6.662,12.6,8.689-6.276-.888-7.689-1.245a18.247,18.247,0,0,0-2.831-.444l-9.424.256Z" transform="translate(-440.335 -291.907)" fill="#cf6f80"/><ellipse cx="1.298" cy="1.303" rx="1.298" ry="1.303" transform="translate(417.138 198.768)" opacity="0.1"/><ellipse cx="1.298" cy="1.303" rx="1.298" ry="1.303" transform="translate(417.138 198.237)" fill="#3f3d56"/><ellipse cx="1.298" cy="1.303" rx="1.298" ry="1.303" transform="translate(419.527 255.189)" opacity="0.1"/><ellipse cx="1.298" cy="1.303" rx="1.298" ry="1.303" transform="translate(419.527 254.654)" fill="#3f3d56"/><ellipse cx="1.298" cy="1.303" rx="1.298" ry="1.303" transform="translate(418.436 226.979)" opacity="0.1"/><ellipse cx="1.298" cy="1.303" rx="1.298" ry="1.303" transform="translate(418.436 226.448)" fill="#3f3d56"/><path d="M925.872,459.478s.884,1.332,0,1.931.087,2.134.087,2.134-2.206,1.294-1.235,2.467.356,6.44.356,6.44l-2.653,4.436s.159,2.843.168,6.686c0,6-.351,14.424-2.292,18.267l.26,31.527s-9.29,3.413-17.066,2.37l-1.154-50.59s1.682-28.689,2.3-34.192a57.542,57.542,0,0,0,.442-8.617s-.264-8.612-1.154-12.6c0,0-.961-17.32-1.057-22.114-.043-2.293.077-8.984.211-15.346.149-6.956.317-13.516.317-13.516L901.65,364.81s1.754-.174,2.283.531a5.066,5.066,0,0,0,.769.594h0c3.033,2.056,13.73,8.38,13.73,8.38s5.921,2.365,7.339,5.754a50.232,50.232,0,0,0,3.09,6.758c.687.965,1.062,5.5,1.062,5.5s2.038,8.351,3.629,9.766,2.734,10.393,2.734,10.393l-14.057,11.1s-1.235,18.469-1.5,19.184S925.872,459.478,925.872,459.478Z" transform="translate(-476.226 -197.656)" fill="#fff"/><path d="M926.39,459.3s.879,1.332,0,1.931.082,2.134.082,2.134-2.206,1.294-1.235,2.467.356,6.44.356,6.44l-2.643,4.436s.159,2.843.173,6.686c0,6-.351,14.424-2.292,18.267l.264,31.527s-9.29,3.413-17.066,2.37l-1.149-50.59s1.677-28.689,2.3-34.192a56.993,56.993,0,0,0,.437-8.617s-.264-8.612-1.149-12.6c0,0-.961-17.32-1.062-22.114-.043-2.293.077-8.984.211-15.346.149-6.956.317-13.516.317-13.516L901.62,364.44s2.316,0,2.85.719a4.564,4.564,0,0,0,.769.594h0c3.028,2.056,13.726,8.38,13.726,8.38s5.907,2.365,7.348,5.754a53.6,53.6,0,0,0,3.09,6.758c.687.965,1.062,5.5,1.062,5.5s2.038,8.351,3.628,9.766,2.739,10.393,2.739,10.393l-14.057,11.1s-1.235,18.469-1.5,19.184S926.39,459.3,926.39,459.3Z" transform="translate(-476.211 -197.475)" fill="#fff"/><path d="M910.121,383.811l1.274,3.717-6.685,6.758c.149-6.956.317-13.516.317-13.516l-2.316-14.13s2.316,0,2.85.719a4.562,4.562,0,0,0,.769.594h0l5.681,16.456Z" transform="translate(-476.777 -198.613)" opacity="0.1"/><path d="M908.991,381.59l1.273,3.712-6.68,6.758c.144-6.956.317-13.516.317-13.516L901.58,364.41s2.321,0,2.85.719a4.808,4.808,0,0,0,.769.594h0l5.714,16.471Z" transform="translate(-476.19 -197.459)" fill="#fff"/><path d="M881.462,306.109a16.535,16.535,0,0,1-.807,5.122.68.68,0,0,1-.519-.125c-.13-4.345-2.254-8.428-4.873-11.9a12.578,12.578,0,0,0-2.643-2.752,5.159,5.159,0,0,0-3.585-1.019c-1.442.2-2.715,1.183-4.171,1.308-1.922.159-3.643-1.178-5.551-1.241a5.43,5.43,0,0,0-4.08,1.9,11.2,11.2,0,0,0-2.187,4.069,23.935,23.935,0,0,0-1.221,7.029c-.024,1.352-.154,3.046-1.4,3.538a7.213,7.213,0,0,0-1.812-5.5l-.029-.034v-.4a16.446,16.446,0,1,1,32.892,0Z" transform="translate(-448.661 -158.757)" opacity="0.1"/><path d="M866.442,268.321a11.277,11.277,0,0,0-7.987-.628c-1.331.4-2.586,1.038-3.936,1.361-2.884.7-6.248-.058-8.723,1.637a10.454,10.454,0,0,0-2.97,3.978l-1.922,3.674a23.925,23.925,0,0,0-2.542,6.275,8.056,8.056,0,0,0,1.226,6.483c1.014,1.294,2.523,2.109,3.628,3.331a7.261,7.261,0,0,1,1.807,5.518c1.25-.483,1.374-2.187,1.4-3.538a23.968,23.968,0,0,1,1.221-7.029,11.2,11.2,0,0,1,2.187-4.069,5.435,5.435,0,0,1,4.08-1.907c1.922.068,3.648,1.4,5.551,1.241,1.442-.121,2.72-1.105,4.172-1.3a5.136,5.136,0,0,1,3.585,1.019,12.344,12.344,0,0,1,2.638,2.752c2.624,3.476,4.753,7.54,4.878,11.9.543.4,1.326-.126,1.6-.743a17.707,17.707,0,0,1,.62-1.931,7.117,7.117,0,0,1,1.74-1.559c1.5-1.3,1.874-3.485,1.817-5.469s-.442-4-.067-5.947c.226-1.192.735-2.317,1.014-3.5a4.594,4.594,0,0,0-.346-3.529c-.961-1.492-2.984-1.791-4.748-1.931-2-.174-3.8.048-5.075-1.646a18.852,18.852,0,0,0-2.018-2.481C869,270.02,866.442,268.427,866.442,268.321Z" transform="translate(-443.253 -147.196)" fill="#512e4e"/><path d="M781.138,470.372l-5.017-9.322-1.591,14.385s.884,6.391.706,7.371,3.624,9.766,3.624,9.766,12.558,22.471,17.686,23.625l17.3-12.435-4.594-5.86s-1.591-.623-1.99,0c0,0-8.535-14.743-9.415-15.8a5.392,5.392,0,0,1-.711-3.2s-1.326-1.419-.884-2.752-2.537-5.947-2.537-5.947l2.739-2.573Z" transform="translate(-410.199 -247.448)" opacity="0.1"/><path d="M775.237,458.84l-1.326,1.067-1.591,14.385s.884,6.391.706,7.371,3.628,9.766,3.628,9.766,12.553,22.471,17.681,23.625l17.33-12.435-4.6-5.86s-1.591-.623-1.99,0c0,0-8.531-14.743-9.415-15.8a5.336,5.336,0,0,1-.706-3.2s-1.326-1.419-.884-2.752-2.566-5.947-2.566-5.947l2.739-2.573Z" transform="translate(-409.051 -246.305)" fill="#fff"/><path d="M938.818,566.413c.961,1.173.356,6.444.356,6.444l-2.653,4.407s.159,2.848.168,6.691l-4.46,1.4a2.655,2.655,0,0,1-3.441-2.626l.774-24.909,10.4,3.992c-.884.618.086,2.134.086,2.134S937.848,565.24,938.818,566.413Z" transform="translate(-490.322 -297.504)" opacity="0.1"/><path d="M939.929,565.307c.961,1.168.356,6.44.356,6.44l-2.643,4.412s.159,2.843.173,6.686l-4.542,1.424a2.593,2.593,0,0,1-3.364-2.563l.774-25,10.4,4c-.889.618.082,2.134.082,2.134S938.958,564.134,939.929,565.307Z" transform="translate(-490.904 -296.93)" fill="#fff"/><path d="M948.942,545.735s-.707,4.533-2.475,4.8-2.562,7.333-4.325,7.087-.6-6.575-.533-7.8-1.922-6.3-.442-7.458,6.19,0,6.19,0Z" transform="translate(-496.466 -289.242)" fill="#cf6f80"/><path d="M950.68,470.358l3.331-6.758a43.909,43.909,0,0,1,1.331,7.9c0,2.752,1.855,3.022,1.855,3.022s2.033,2.414.961,4.176-1.5,6.126-1.5,6.126.351,8.346-1.24,9.5-1.946,3.91-1.946,3.91-2.917,5.238-2.826,6.483-4.066,9.679-4.066,9.679,2.033-10.48-9.814-15.008c0,0-.091-3.553.793-4.528s2.263-1.448,1.4-6.353-.25-10.818-.25-12,2.653-8.554,2.653-8.554Z" transform="translate(-494.465 -248.767)" opacity="0.1"/><path d="M953.329,461.6l2.912.965a43.911,43.911,0,0,1,1.331,7.9c0,2.752,1.855,3.022,1.855,3.022s2.033,2.414.961,4.176-1.5,6.126-1.5,6.126.356,8.346-1.235,9.5-1.922,3.91-1.922,3.91-2.917,5.238-2.826,6.483-4.071,9.679-4.071,9.679,2.033-10.48-9.814-15.008c0,0-.087-3.553.8-4.528s2.263-1.448,1.4-6.353-.25-10.818-.25-12,2.653-8.554,2.653-8.554Z" transform="translate(-495.634 -247.732)" fill="#fff"/><path d="M834.92,822.781s4.642-2.93,7.689-.8S834.92,822.781,834.92,822.781Z" transform="translate(-441.566 -433.744)" opacity="0.1"/><path d="M910,805.672a9.374,9.374,0,0,1,7.56,3.2C921.01,812.6,910,805.672,910,805.672Z" transform="translate(-480.563 -425.697)" opacity="0.1"/><g transform="translate(394.909 130.674)" opacity="0.1"><path d="M886.11,309.812c-.591.517-1.35.879-1.745,1.559a18.079,18.079,0,0,0-.615,1.931c-.269.623-1.052,1.139-1.6.743-.125-4.345-2.254-8.424-4.873-11.9a12.319,12.319,0,0,0-2.638-2.747,5.15,5.15,0,0,0-3.59-1.023c-1.442.2-2.711,1.183-4.167,1.308-1.922.159-3.648-1.178-5.555-1.241a5.412,5.412,0,0,0-4.076,1.9,11.193,11.193,0,0,0-2.187,4.069,23.963,23.963,0,0,0-1.221,7.029c-.029,1.347-.154,3.027-1.394,3.529a6.687,6.687,0,0,1,0,1.076c1.254-.483,1.379-2.187,1.408-3.538a23.964,23.964,0,0,1,1.221-7.029,11.193,11.193,0,0,1,2.187-4.069,5.43,5.43,0,0,1,4.076-1.907c1.922.068,3.652,1.4,5.555,1.241,1.442-.121,2.72-1.105,4.167-1.3a5.15,5.15,0,0,1,3.59,1.019,12.342,12.342,0,0,1,2.638,2.752c2.619,3.476,4.748,7.54,4.873,11.9.548.4,1.331-.126,1.6-.743a18.815,18.815,0,0,1,.615-1.931,7.141,7.141,0,0,1,1.745-1.559c1.5-1.3,1.874-3.485,1.817-5.469v-.183A6.362,6.362,0,0,1,886.11,309.812Z" transform="translate(-845.58 -293.964)"/><path d="M843.2,313.584c-1.1-1.221-2.61-2.042-3.624-3.336a7.024,7.024,0,0,1-1.4-3.949,7.464,7.464,0,0,0,1.4,5.016c1.014,1.294,2.523,2.11,3.624,3.331a7.258,7.258,0,0,1,1.817,4.306,7.261,7.261,0,0,0-1.817-5.368Z" transform="translate(-838.155 -298.074)"/><path d="M926.964,290.192c-.284,1.183-.788,2.307-1.019,3.5a11.232,11.232,0,0,0-.149,2.443,9.42,9.42,0,0,1,.149-1.376c.231-1.192.735-2.317,1.019-3.5a6.089,6.089,0,0,0,.159-2,6.732,6.732,0,0,1-.158.932Z" transform="translate(-883.67 -289.26)"/></g><ellipse cx="46.829" cy="7.555" rx="46.829" ry="7.555" transform="translate(16.725 389.842)" fill="#ffc107" opacity="0.1"/><rect width="3.013" height="68.147" transform="translate(62.049 252.669)" fill="#535461"/><path d="M147.026,677.775l-.192,3.07-.264,4.344-.111,1.805-.269,4.345-.115,1.805-.264,4.345-3.042,49.272a8.32,8.32,0,0,1-8.29,7.83h-15.8a8.316,8.316,0,0,1-8.29-7.864l-3.042-49.272-.264-4.345-.111-1.805-.274-4.345-.111-1.805-.264-4.345-.192-3.07a4.336,4.336,0,0,1,4.3-4.591h32.305a4.337,4.337,0,0,1,4.292,4.625Z" transform="translate(-63.023 -357.161)" fill="#3f3d56"/><path d="M131.094,670.52l-.269,4.335H90.849l-.269-4.335Z" transform="translate(-47.284 -346.841)" fill="#9d9cb5"/><path d="M131.124,683.24l-.264,4.335H91.639l-.269-4.335Z" transform="translate(-47.694 -353.421)" fill="#9d9cb5"/><path d="M131.155,695.97l-.264,4.33H92.429l-.269-4.33Z" transform="translate(-48.104 -360.005)" fill="#9d9cb5"/><path d="M55.156,580.468c17.551,12.754,24.861,32.7,24.861,32.7s-21.146-.729-38.7-13.483S16.44,567,16.44,567,37.586,567.714,55.156,580.468Z" transform="translate(-16.44 -302.253)" fill="#ffc107"/><path d="M16.44,567s21.949,12.237,28.989,22.37S80,613.178,80,613.178" transform="translate(-16.44 -302.253)" fill="none" stroke="#535461" stroke-miterlimit="10" stroke-width="2"/><path d="M97.764,533.817c9.554,6.937,13.533,17.793,13.533,17.793s-11.534-.4-21.064-7.333S76.7,526.48,76.7,526.48,88.215,526.876,97.764,533.817Z" transform="translate(-47.74 -281.293)" fill="#ffc107"/><path d="M76.7,526.48s11.947,6.662,15.783,12.174S111.3,551.611,111.3,551.611" transform="translate(-47.74 -281.293)" fill="none" stroke="#535461" stroke-miterlimit="10" stroke-width="2"/><path d="M163.2,560.33c-10.972,12.112-13.293,27.94-13.293,27.94s15.47-3.814,26.432-15.93,13.293-27.94,13.293-27.94S174.175,548.218,163.2,560.33Z" transform="translate(-85.766 -290.562)" fill="#ffc107"/><path d="M189.645,544.41s-14.293,12.416-17.926,20.97-21.809,22.9-21.809,22.9" transform="translate(-85.766 -290.567)" fill="none" stroke="#535461" stroke-miterlimit="10" stroke-width="2"/></g><g transform="translate(3779.263 17701.91)"><g transform="translate(0 5.026)" fill="#f3f5f6" stroke="#dadee3" stroke-width="1"><rect width="611.845" height="46.235" stroke="none"/><rect x="0.5" y="0.5" width="610.845" height="45.235" fill="none"/></g><g transform="translate(0 51.261)" fill="#fff" stroke="#dadee3" stroke-width="1"><rect width="611.845" height="46.235" stroke="none"/><rect x="0.5" y="0.5" width="610.845" height="45.235" fill="none"/></g><g transform="translate(0 97.497)" fill="#fff" stroke="#dadee3" stroke-width="1"><rect width="611.845" height="46.235" stroke="none"/><rect x="0.5" y="0.5" width="610.845" height="45.235" fill="none"/></g><g transform="translate(0 143.732)" fill="#fff" stroke="#dadee3" stroke-width="1"><rect width="611.845" height="46.235" stroke="none"/><rect x="0.5" y="0.5" width="610.845" height="45.235" fill="none"/></g><g transform="translate(0 189.968)" fill="#fff" stroke="#dadee3" stroke-width="1"><rect width="611.845" height="46.235" stroke="none"/><rect x="0.5" y="0.5" width="610.845" height="45.235" fill="none"/></g><g transform="translate(0 236.203)" fill="#fff" stroke="#dadee3" stroke-width="1"><rect width="611.845" height="46.235" stroke="none"/><rect x="0.5" y="0.5" width="610.845" height="45.235" fill="none"/></g><g transform="translate(0 282.439)" fill="#fff" stroke="#dadee3" stroke-width="1"><rect width="611.845" height="46.235" stroke="none"/><rect x="0.5" y="0.5" width="610.845" height="45.235" fill="none"/></g><line x2="1.035" y2="323.648" transform="translate(152.702)" fill="none" stroke="#dadee3" stroke-width="1"/><line x2="1.035" y2="323.648" transform="translate(0 5.528)" fill="none" stroke="#dadee3" stroke-width="1"/><line x2="1.035" y2="323.648" transform="translate(458.107 5.026)" fill="none" stroke="#dadee3" stroke-width="1"/><line x2="1.035" y2="323.648" transform="translate(305.405 5.528)" fill="none" stroke="#dadee3" stroke-width="1"/><line x2="1.035" y2="323.648" transform="translate(610.81 5.026)" fill="none" stroke="#dadee3" stroke-width="1"/><g transform="translate(37.27 68.348)" fill="#868e96" stroke="#dbdee3" stroke-width="1"><rect width="73.504" height="13.067" rx="6.533" stroke="none"/><rect x="0.5" y="0.5" width="72.504" height="12.067" rx="6.033" fill="none"/></g><g transform="translate(37.27 116.594)" fill="#868e96" stroke="#dbdee3" stroke-width="1"><rect width="73.504" height="13.067" rx="6.533" stroke="none"/><rect x="0.5" y="0.5" width="72.504" height="12.067" rx="6.033" fill="none"/></g><g transform="translate(37.27 160.819)" fill="#868e96" stroke="#dbdee3" stroke-width="1"><rect width="73.504" height="13.067" rx="6.533" stroke="none"/><rect x="0.5" y="0.5" width="72.504" height="12.067" rx="6.033" fill="none"/></g><g transform="translate(37.27 207.055)" fill="#868e96" stroke="#dbdee3" stroke-width="1"><rect width="73.504" height="13.067" rx="6.533" stroke="none"/><rect x="0.5" y="0.5" width="72.504" height="12.067" rx="6.033" fill="none"/></g><g transform="translate(37.27 253.29)" fill="#868e96" stroke="#dbdee3" stroke-width="1"><rect width="73.504" height="13.067" rx="6.533" stroke="none"/><rect x="0.5" y="0.5" width="72.504" height="12.067" rx="6.033" fill="none"/></g><g transform="translate(37.27 296.51)" fill="#868e96" stroke="#dbdee3" stroke-width="1"><rect width="73.504" height="13.067" rx="6.533" stroke="none"/><rect x="0.5" y="0.5" width="72.504" height="12.067" rx="6.033" fill="none"/></g><g transform="translate(34.164 21.108)" fill="#f24926" stroke="#b5391f" stroke-width="1"><rect width="80.751" height="16.082" rx="8.041" stroke="none"/><rect x="0.5" y="0.5" width="79.751" height="15.082" rx="7.541" fill="none"/></g><g transform="translate(191.525 21.108)" fill="#f24926" stroke="#b5391f" stroke-width="1"><rect width="80.751" height="16.082" rx="8.041" stroke="none"/><rect x="0.5" y="0.5" width="79.751" height="15.082" rx="7.541" fill="none"/></g><g transform="translate(340.604 21.108)" fill="#f24926" stroke="#b5391f" stroke-width="1"><rect width="80.751" height="16.082" rx="8.041" stroke="none"/><rect x="0.5" y="0.5" width="79.751" height="15.082" rx="7.541" fill="none"/></g><g transform="translate(492.789 21.108)" fill="#f24926" stroke="#b5391f" stroke-width="1"><rect width="80.751" height="16.082" rx="8.041" stroke="none"/><rect x="0.5" y="0.5" width="79.751" height="15.082" rx="7.541" fill="none"/></g><g transform="translate(195.666 68.348)" fill="#dbdee3" stroke="#e3e6ea" stroke-width="1"><rect width="73.504" height="13.067" rx="6.533" stroke="none"/><rect x="0.5" y="0.5" width="72.504" height="12.067" rx="6.033" fill="none"/></g><g transform="translate(342.675 68.348)" fill="#dbdee3" stroke="#e3e6ea" stroke-width="1"><rect width="73.504" height="13.067" rx="6.533" stroke="none"/><rect x="0.5" y="0.5" width="72.504" height="12.067" rx="6.033" fill="none"/></g><g transform="translate(195.666 116.594)" fill="#dbdee3" stroke="#e3e6ea" stroke-width="1"><rect width="73.504" height="13.067" rx="6.533" stroke="none"/><rect x="0.5" y="0.5" width="72.504" height="12.067" rx="6.033" fill="none"/></g><g transform="translate(342.675 116.594)" fill="#dbdee3" stroke="#e3e6ea" stroke-width="1"><rect width="73.504" height="13.067" rx="6.533" stroke="none"/><rect x="0.5" y="0.5" width="72.504" height="12.067" rx="6.033" fill="none"/></g><g transform="translate(195.666 161.824)" fill="#dbdee3" stroke="#e3e6ea" stroke-width="1"><rect width="73.504" height="13.067" rx="6.533" stroke="none"/><rect x="0.5" y="0.5" width="72.504" height="12.067" rx="6.033" fill="none"/></g><g transform="translate(342.675 160.819)" fill="#dbdee3" stroke="#e3e6ea" stroke-width="1"><rect width="73.504" height="13.067" rx="6.533" stroke="none"/><rect x="0.5" y="0.5" width="72.504" height="12.067" rx="6.033" fill="none"/></g><g transform="translate(195.666 207.055)" fill="#dbdee3" stroke="#e3e6ea" stroke-width="1"><rect width="73.504" height="13.067" rx="6.533" stroke="none"/><rect x="0.5" y="0.5" width="72.504" height="12.067" rx="6.033" fill="none"/></g><g transform="translate(342.675 207.055)" fill="#dbdee3" stroke="#e3e6ea" stroke-width="1"><rect width="73.504" height="13.067" rx="6.533" stroke="none"/><rect x="0.5" y="0.5" width="72.504" height="12.067" rx="6.033" fill="none"/></g><g transform="translate(195.666 253.29)" fill="#dbdee3" stroke="#e3e6ea" stroke-width="1"><rect width="73.504" height="13.067" rx="6.533" stroke="none"/><rect x="0.5" y="0.5" width="72.504" height="12.067" rx="6.033" fill="none"/></g><g transform="translate(195.666 296.51)" fill="#dbdee3" stroke="#e3e6ea" stroke-width="1"><rect width="73.504" height="13.067" rx="6.533" stroke="none"/><rect x="0.5" y="0.5" width="72.504" height="12.067" rx="6.033" fill="none"/></g><g transform="translate(342.675 253.29)" fill="#dbdee3" stroke="#e3e6ea" stroke-width="1"><rect width="73.504" height="13.067" rx="6.533" stroke="none"/><rect x="0.5" y="0.5" width="72.504" height="12.067" rx="6.033" fill="none"/></g><g transform="translate(342.675 296.51)" fill="#dbdee3" stroke="#e3e6ea" stroke-width="1"><rect width="73.504" height="13.067" rx="6.533" stroke="none"/><rect x="0.5" y="0.5" width="72.504" height="12.067" rx="6.033" fill="none"/></g><path d="M25.072,3.966a7.241,7.241,0,0,0-10.12.763L13.883,5.867,12.815,4.729A7.241,7.241,0,0,0,2.7,3.966a8.244,8.244,0,0,0-.537,11.661L12.652,26.833a1.662,1.662,0,0,0,2.457,0L25.6,15.627a8.239,8.239,0,0,0-.531-11.661Z" transform="translate(501.072 59.818)" fill="#f66363" stroke="#e62323" stroke-width="1"/><path d="M25.072,3.966a7.241,7.241,0,0,0-10.12.763L13.883,5.867,12.815,4.729A7.241,7.241,0,0,0,2.7,3.966a8.244,8.244,0,0,0-.537,11.661L12.652,26.833a1.662,1.662,0,0,0,2.457,0L25.6,15.627a8.239,8.239,0,0,0-.531-11.661Z" transform="translate(501.072 108.064)" fill="#f66363" stroke="#e62323" stroke-width="1"/><path d="M25.072,3.966a7.241,7.241,0,0,0-10.12.763L13.883,5.867,12.815,4.729A7.241,7.241,0,0,0,2.7,3.966a8.244,8.244,0,0,0-.537,11.661L12.652,26.833a1.662,1.662,0,0,0,2.457,0L25.6,15.627a8.239,8.239,0,0,0-.531-11.661Z" transform="translate(537.491 108.566)" fill="#dadee3" stroke="#868e96" stroke-width="1"/><path d="M25.072,3.966a7.241,7.241,0,0,0-10.12.763L13.883,5.867,12.815,4.729A7.241,7.241,0,0,0,2.7,3.966a8.244,8.244,0,0,0-.537,11.661L12.652,26.833a1.662,1.662,0,0,0,2.457,0L25.6,15.627a8.239,8.239,0,0,0-.531-11.661Z" transform="translate(501.072 153.294)" fill="#f66363" stroke="#e62323" stroke-width="1"/><path d="M25.072,3.966a7.241,7.241,0,0,0-10.12.763L13.883,5.867,12.815,4.729A7.241,7.241,0,0,0,2.7,3.966a8.244,8.244,0,0,0-.537,11.661L12.652,26.833a1.662,1.662,0,0,0,2.457,0L25.6,15.627a8.239,8.239,0,0,0-.531-11.661Z" transform="translate(501.072 198.525)" fill="#f66363" stroke="#e62323" stroke-width="1"/><path d="M25.072,3.966a7.241,7.241,0,0,0-10.12.763L13.883,5.867,12.815,4.729A7.241,7.241,0,0,0,2.7,3.966a8.244,8.244,0,0,0-.537,11.661L12.652,26.833a1.662,1.662,0,0,0,2.457,0L25.6,15.627a8.239,8.239,0,0,0-.531-11.661Z" transform="translate(501.072 244.257)" fill="#f66363" stroke="#e62323" stroke-width="1"/><path d="M25.072,3.966a7.241,7.241,0,0,0-10.12.763L13.883,5.867,12.815,4.729A7.241,7.241,0,0,0,2.7,3.966a8.244,8.244,0,0,0-.537,11.661L12.652,26.833a1.662,1.662,0,0,0,2.457,0L25.6,15.627a8.239,8.239,0,0,0-.531-11.661Z" transform="translate(537.491 244.76)" fill="#dadee3" stroke="#868e96" stroke-width="1"/><path d="M25.072,3.966a7.241,7.241,0,0,0-10.12.763L13.883,5.867,12.815,4.729A7.241,7.241,0,0,0,2.7,3.966a8.244,8.244,0,0,0-.537,11.661L12.652,26.833a1.662,1.662,0,0,0,2.457,0L25.6,15.627a8.239,8.239,0,0,0-.531-11.661Z" transform="translate(501.072 287.98)" fill="#f66363" stroke="#e62323" stroke-width="1"/><path d="M25.072,3.966a7.241,7.241,0,0,0-10.12.763L13.883,5.867,12.815,4.729A7.241,7.241,0,0,0,2.7,3.966a8.244,8.244,0,0,0-.537,11.661L12.652,26.833a1.662,1.662,0,0,0,2.457,0L25.6,15.627a8.239,8.239,0,0,0-.531-11.661Z" transform="translate(537.491 59.818)" fill="#f66363" stroke="#e62323" stroke-width="1"/><path d="M25.072,3.966a7.241,7.241,0,0,0-10.12.763L13.883,5.867,12.815,4.729A7.241,7.241,0,0,0,2.7,3.966a8.244,8.244,0,0,0-.537,11.661L12.652,26.833a1.662,1.662,0,0,0,2.457,0L25.6,15.627a8.239,8.239,0,0,0-.531-11.661Z" transform="translate(537.491 153.545)" fill="#f66363" stroke="#e62323" stroke-width="1"/><path d="M25.072,3.966a7.241,7.241,0,0,0-10.12.763L13.883,5.867,12.815,4.729A7.241,7.241,0,0,0,2.7,3.966a8.244,8.244,0,0,0-.537,11.661L12.652,26.833a1.662,1.662,0,0,0,2.457,0L25.6,15.627a8.239,8.239,0,0,0-.531-11.661Z" transform="translate(537.491 198.776)" fill="#f66363" stroke="#e62323" stroke-width="1"/><path d="M25.072,3.966a7.241,7.241,0,0,0-10.12.763L13.883,5.867,12.815,4.729A7.241,7.241,0,0,0,2.7,3.966a8.244,8.244,0,0,0-.537,11.661L12.652,26.833a1.662,1.662,0,0,0,2.457,0L25.6,15.627a8.239,8.239,0,0,0-.531-11.661Z" transform="translate(537.491 288.231)" fill="#f66363" stroke="#e62323" stroke-width="1"/></g></g></g></svg>