<svg xmlns="http://www.w3.org/2000/svg" xmlns:xlink="http://www.w3.org/1999/xlink" width="1652.846" height="973.072" viewBox="0 0 1652.846 973.072"><defs><linearGradient id="a" x1="0.012" y1="0.018" x2="0.932" y2="0.975" gradientUnits="objectBoundingBox"><stop offset="0" stop-color="#3e434b"/><stop offset="1" stop-color="#151a21"/></linearGradient><linearGradient id="b" x1="0.5" x2="0.5" y2="1" gradientUnits="objectBoundingBox"><stop offset="0"/><stop offset="1" stop-opacity="0"/></linearGradient><linearGradient id="c" x1="0.5" x2="0.5" y2="1" gradientUnits="objectBoundingBox"><stop offset="0" stop-color="#393e46"/><stop offset="1" stop-color="#0d0f11"/></linearGradient><linearGradient id="d" y1="0.5" x2="1" y2="0.5" gradientUnits="objectBoundingBox"><stop offset="0" stop-color="#3e3d3d"/><stop offset="0.021" stop-color="#1d1d1d"/><stop offset="0.1" stop-color="#f5f5f5"/><stop offset="0.326" stop-color="#b7babf"/><stop offset="1" stop-color="#b7babf"/></linearGradient><linearGradient id="e" y1="0.5" x2="1" y2="0.5" gradientUnits="objectBoundingBox"><stop offset="0" stop-color="#1d1e20"/><stop offset="0.127" stop-color="#b3b6bc"/><stop offset="0.393" stop-color="#9da0a5"/><stop offset="1" stop-color="#9da0a5"/></linearGradient><linearGradient id="g" x1="1" x2="0" xlink:href="#d"/><linearGradient id="h" x1="1" x2="0" xlink:href="#e"/><filter id="i" x="1124.846" y="38.449" width="266" height="78" filterUnits="userSpaceOnUse"><feOffset dx="2" dy="5" input="SourceAlpha"/><feGaussianBlur stdDeviation="4" result="j"/><feFlood flood-opacity="0.161"/><feComposite operator="in" in2="j"/><feComposite in="SourceGraphic"/></filter><filter id="k" x="243.846" y="152.449" width="448" height="94" filterUnits="userSpaceOnUse"><feOffset dx="4" dy="8" input="SourceAlpha"/><feGaussianBlur stdDeviation="4" result="l"/><feFlood flood-opacity="0.161"/><feComposite operator="in" in2="l"/><feComposite in="SourceGraphic"/></filter><filter id="m" x="874.846" y="254.449" width="433" height="435" filterUnits="userSpaceOnUse"><feOffset dy="3" input="SourceAlpha"/><feGaussianBlur stdDeviation="3" result="n"/><feFlood flood-opacity="0.161"/><feComposite operator="in" in2="n"/><feComposite in="SourceGraphic"/></filter><filter id="o" x="764.125" y="350.103" width="97.718" height="338.752" filterUnits="userSpaceOnUse"><feOffset dy="3" input="SourceAlpha"/><feGaussianBlur stdDeviation="3" result="p"/><feFlood flood-opacity="0.161"/><feComposite operator="in" in2="p"/><feComposite in="SourceGraphic"/></filter><filter id="q" x="727.974" y="316.527" width="51.607" height="51.606" filterUnits="userSpaceOnUse"><feOffset dy="3" input="SourceAlpha"/><feGaussianBlur stdDeviation="3" result="r"/><feFlood flood-opacity="0.161"/><feComposite operator="in" in2="r"/><feComposite in="SourceGraphic"/></filter><filter id="s" x="794.173" y="364.229" width="51.607" height="51.606" filterUnits="userSpaceOnUse"><feOffset dy="3" input="SourceAlpha"/><feGaussianBlur stdDeviation="3" result="t"/><feFlood flood-opacity="0.161"/><feComposite operator="in" in2="t"/><feComposite in="SourceGraphic"/></filter><filter id="u" x="768.825" y="412.994" width="51.606" height="51.606" filterUnits="userSpaceOnUse"><feOffset dy="3" input="SourceAlpha"/><feGaussianBlur stdDeviation="3" result="v"/><feFlood flood-opacity="0.161"/><feComposite operator="in" in2="v"/><feComposite in="SourceGraphic"/></filter><filter id="w" x="819.795" y="436.473" width="51.607" height="51.606" filterUnits="userSpaceOnUse"><feOffset dy="3" input="SourceAlpha"/><feGaussianBlur stdDeviation="3" result="x"/><feFlood flood-opacity="0.161"/><feComposite operator="in" in2="x"/><feComposite in="SourceGraphic"/></filter><filter id="y" x="1158.6" y="362.695" width="242.776" height="457.214" filterUnits="userSpaceOnUse"><feOffset dy="3" input="SourceAlpha"/><feGaussianBlur stdDeviation="3" result="z"/><feFlood flood-opacity="0.161"/><feComposite operator="in" in2="z"/><feComposite in="SourceGraphic"/></filter><filter id="aa" x="1350.214" y="297.861" width="68.291" height="68.291" filterUnits="userSpaceOnUse"><feOffset dy="3" input="SourceAlpha"/><feGaussianBlur stdDeviation="3" result="ab"/><feFlood flood-opacity="0.161"/><feComposite operator="in" in2="ab"/><feComposite in="SourceGraphic"/></filter><filter id="ac" x="1379.358" y="416.438" width="68.291" height="68.291" filterUnits="userSpaceOnUse"><feOffset dy="3" input="SourceAlpha"/><feGaussianBlur stdDeviation="3" result="ad"/><feFlood flood-opacity="0.161"/><feComposite operator="in" in2="ad"/><feComposite in="SourceGraphic"/></filter><filter id="ae" x="1303.165" y="447.406" width="68.291" height="68.291" filterUnits="userSpaceOnUse"><feOffset dy="3" input="SourceAlpha"/><feGaussianBlur stdDeviation="3" result="af"/><feFlood flood-opacity="0.161"/><feComposite operator="in" in2="af"/><feComposite in="SourceGraphic"/></filter><filter id="ag" x="1338.459" y="523.607" width="68.291" height="68.291" filterUnits="userSpaceOnUse"><feOffset dy="3" input="SourceAlpha"/><feGaussianBlur stdDeviation="3" result="ah"/><feFlood flood-opacity="0.161"/><feComposite operator="in" in2="ah"/><feComposite in="SourceGraphic"/></filter><filter id="ai" x="1225.927" y="557.957" width="68.291" height="68.291" filterUnits="userSpaceOnUse"><feOffset dy="3" input="SourceAlpha"/><feGaussianBlur stdDeviation="3" result="aj"/><feFlood flood-opacity="0.161"/><feComposite operator="in" in2="aj"/><feComposite in="SourceGraphic"/></filter><filter id="ak" x="306.641" y="305.404" width="321.45" height="107.045" filterUnits="userSpaceOnUse"><feOffset dx="8" dy="4" input="SourceAlpha"/><feGaussianBlur stdDeviation="4" result="al"/><feFlood flood-opacity="0.161"/><feComposite operator="in" in2="al"/><feComposite in="SourceGraphic"/></filter><filter id="am" x="377.846" y="327.449" width="186" height="71" filterUnits="userSpaceOnUse"><feOffset dx="4" dy="8" input="SourceAlpha"/><feGaussianBlur stdDeviation="4" result="an"/><feFlood flood-opacity="0.161"/><feComposite operator="in" in2="an"/><feComposite in="SourceGraphic"/></filter><filter id="ao" x="1426.735" y="44.252" width="38.112" height="39.061" filterUnits="userSpaceOnUse"><feOffset dy="3" input="SourceAlpha"/><feGaussianBlur stdDeviation="3" result="ap"/><feFlood flood-opacity="0.161"/><feComposite operator="in" in2="ap"/><feComposite in="SourceGraphic"/></filter><filter id="aq" x="1388.854" y="43.271" width="81.112" height="83.909" filterUnits="userSpaceOnUse"><feOffset dx="2" dy="5" input="SourceAlpha"/><feGaussianBlur stdDeviation="5" result="ar"/><feFlood flood-opacity="0.161"/><feComposite operator="in" in2="ar"/><feComposite in="SourceGraphic"/></filter></defs><g transform="translate(-1236.365 -14803.551)"><g transform="translate(4446.211 -6534)"><g transform="translate(-3619.846 20962.551)"><g transform="translate(413 375)"><path d="M40.762,0h1252.5a40.961,40.961,0,0,1,40.762,41.157V890.494a40.961,40.961,0,0,1-40.762,41.157H40.762A40.961,40.961,0,0,1,0,890.494V41.157A40.961,40.961,0,0,1,40.762,0Z" transform="translate(166.599)" fill="url(#a)"/><path d="M35.174-2.5h1252.5a37.858,37.858,0,0,1,37.674,38.039V884.876a37.859,37.859,0,0,1-37.674,38.039H35.174A37.858,37.858,0,0,1-2.5,884.876V35.539A37.859,37.859,0,0,1,35.174-2.5ZM3.676,35.539V884.876a31.649,31.649,0,0,0,31.5,31.8h1252.5a31.65,31.65,0,0,0,31.5-31.8V35.539a31.649,31.649,0,0,0-31.5-31.8H35.174A31.65,31.65,0,0,0,3.676,35.539Z" transform="translate(172.187 5.618)" fill="#191919"/><path d="M0,41.157A40.961,40.961,0,0,1,40.762,0h1252.5a40.961,40.961,0,0,1,40.762,41.157V890.494a40.961,40.961,0,0,1-40.762,41.157H40.762A40.961,40.961,0,0,1,0,890.494Zm6.176,0V890.494a34.751,34.751,0,0,0,34.586,34.921h1252.5a34.751,34.751,0,0,0,34.586-34.921V41.157a34.755,34.755,0,0,0-34.586-34.921H40.762A34.752,34.752,0,0,0,6.176,41.157Z" transform="translate(166.599)" fill="#707070"/><path d="M0,41.157A40.961,40.961,0,0,1,40.762,0h1252.5a40.961,40.961,0,0,1,40.762,41.157V890.494a40.961,40.961,0,0,1-40.762,41.157H40.762A40.961,40.961,0,0,1,0,890.494Zm.247,0V890.494A40.713,40.713,0,0,0,40.762,931.4h1252.5a40.712,40.712,0,0,0,40.515-40.908V41.157A40.71,40.71,0,0,0,1293.265.249H40.762A40.713,40.713,0,0,0,.247,41.157Z" transform="translate(166.599)" fill="#dedede"/><path d="M0,41.157A40.961,40.961,0,0,1,40.762,0h1252.5a40.961,40.961,0,0,1,40.762,41.157V890.494a40.961,40.961,0,0,1-40.762,41.157H40.762A40.961,40.961,0,0,1,0,890.494Zm.247,0V890.494A40.713,40.713,0,0,0,40.762,931.4h1252.5a40.712,40.712,0,0,0,40.515-40.908V41.157A40.71,40.71,0,0,0,1293.265.249H40.762A40.713,40.713,0,0,0,.247,41.157Z" transform="translate(166.599)" fill="#dedede"/><path d="M491.149,917.841l-66.024,18.844H2068.042l-59.882-18.844Z" transform="translate(-425.125 33.387)" fill="url(#b)"/><path d="M815.857,31.755c-23.635.03-715.42.885-749.708,0C31.266,30.852,0,8.656,0,8.656L13.677,0H630.748L815.857,8.628,1000.965,0h617.071l13.677,8.656s-31.266,22.2-66.15,23.1c-11.627.3-98.883.4-210.032.4C1138.911,32.155,831.477,31.775,815.857,31.755Z" transform="translate(17.138 922.994)" fill="none" stroke="#0c0c0c" stroke-width="0.2" opacity="0.36"/><g transform="translate(17.138 916.685)"><g transform="translate(0 0)"><path d="M643,490.716s31.266,22.2,66.149,23.1,750.325,0,750.325,0v-23.1l-185.726-8.657H656.677Z" transform="translate(-643 -475.75)" fill="url(#c)"/><path d="M2.47,0h659.6V14.966H0V2.494A2.482,2.482,0,0,1,2.47,0Z" fill="url(#d)"/><path d="M0,0H154.4V14.966H0Z" transform="translate(662.073)" fill="url(#e)"/></g><g transform="translate(815.239 0)"><path d="M1459.474,490.716s-31.266,22.2-66.15,23.1-750.325,0-750.325,0v-23.1l185.727-8.657H1445.8Z" transform="translate(-643 -475.75)" fill="url(#c)"/><path d="M0,0H659.6a2.483,2.483,0,0,1,2.471,2.494V14.966H0Z" transform="translate(154.401)" fill="url(#g)"/><path d="M154.4,0H0V14.966H154.4Z" transform="translate(0)" fill="url(#h)"/></g></g><g transform="translate(17.147 918.007)" fill="none" opacity="0.08"><path d="M970.226,15.085H662.473V0h967.754a2.493,2.493,0,0,1,2.472,2.514V15.085ZM0,15.085V2.514A2.493,2.493,0,0,1,2.472,0h660V15.085Z" stroke="none"/><path d="M 1632.59912109375 14.98471069335938 L 1632.59912109375 2.51391077041626 C 1632.59912109375 1.182910680770874 1631.53515625 0.09991071373224258 1630.227294921875 0.09991071373224258 L 970.2257690429688 0.09991071373224258 L 816.9669189453125 0.09991071373224258 L 662.5733642578125 0.09991071373224258 L 662.5733642578125 14.98471069335938 L 680.2721557617188 14.98471069335938 L 815.7311401367188 14.98471069335938 L 952.4269409179688 14.98471069335938 L 970.2257690429688 14.98471069335938 L 1632.59912109375 14.98471069335938 M 662.3733520507813 14.98471069335938 L 662.3733520507813 0.09991071373224258 L 2.471748352050781 0.09991071373224258 C 1.16394829750061 0.09991071373224258 0.09994833916425705 1.182910680770874 0.09994833916425705 2.51391077041626 L 0.09994833916425705 14.98471069335938 L 662.3733520507813 14.98471069335938 M 1632.699096679688 15.0847110748291 L 970.2257690429688 15.0847110748291 L 952.4269409179688 15.0847110748291 L 815.7311401367188 15.0847110748291 L 680.2721557617188 15.0847110748291 L 662.4733276367188 15.0847110748291 L 662.4733276367188 -8.928527677198872e-05 L 816.9669189453125 -8.928527677198872e-05 L 970.2257690429688 -8.928527677198872e-05 L 1630.227294921875 -8.928527677198872e-05 C 1631.592163085938 -8.928527677198872e-05 1632.699096679688 1.125710725784302 1632.699096679688 2.51391077041626 L 1632.699096679688 15.0847110748291 Z M 662.4733276367188 15.0847110748291 L -5.16601576237008e-05 15.0847110748291 L -5.16601576237008e-05 2.51391077041626 C -5.16601576237008e-05 1.125710725784302 1.106748342514038 -8.928527677198872e-05 2.471748352050781 -8.928527677198872e-05 L 662.4733276367188 -8.928527677198872e-05 L 662.4733276367188 15.0847110748291 Z" stroke="none" fill="#fff"/></g></g></g><g transform="translate(-3024 21356)"><rect width="1300" height="886" rx="31" fill="#8d70d2"/><g transform="matrix(1, 0, 0, 1, -185.85, -18.45)" filter="url(#i)"><text transform="translate(1134.85 89.45)" fill="#fff" font-size="41" font-family="SegoeUIBlack, Segoe UI" letter-spacing="0.03em"><tspan x="0" y="0">PhoneBook</tspan></text></g></g><g transform="translate(-2958 21494)"><g transform="matrix(1, 0, 0, 1, -251.85, -156.45)" filter="url(#k)"><text transform="translate(251.85 212.45)" fill="#212529" font-size="55" font-family="MicrosoftYaHeiUI-Bold, Microsoft YaHei UI" font-weight="700"><tspan x="0" y="0">Stay </tspan><tspan y="0" fill="#4fd66e">connected</tspan></text></g></g><g transform="translate(-2326 21598)"><g transform="matrix(1, 0, 0, 1, -883.85, -260.45)" filter="url(#m)"><g transform="translate(883.85 260.45)" fill="#fff" stroke="#707070" stroke-width="1"><rect width="415" height="417" rx="64" stroke="none"/><rect x="0.5" y="0.5" width="414" height="416" rx="63.5" fill="none"/></g></g><g transform="translate(51 56)" fill="#a2a2a2" stroke="#707070" stroke-width="1"><rect width="314" height="20" rx="10" stroke="none"/><rect x="0.5" y="0.5" width="313" height="19" rx="9.5" fill="none"/></g><g transform="translate(51 96)" fill="#a2a2a2" stroke="#707070" stroke-width="1"><rect width="110" height="20" rx="10" stroke="none"/><rect x="0.5" y="0.5" width="109" height="19" rx="9.5" fill="none"/></g><g transform="translate(51 136)" fill="#a2a2a2" stroke="#707070" stroke-width="1"><rect width="215" height="20" rx="10" stroke="none"/><rect x="0.5" y="0.5" width="214" height="19" rx="9.5" fill="none"/></g><g transform="translate(51 176)" fill="#28a745" stroke="#707070" stroke-width="1"><rect width="157" height="20" rx="10" stroke="none"/><rect x="0.5" y="0.5" width="156" height="19" rx="9.5" fill="none"/></g><g transform="translate(98 216)" fill="#a2a2a2" stroke="#707070" stroke-width="1"><rect width="110" height="20" rx="10" stroke="none"/><rect x="0.5" y="0.5" width="109" height="19" rx="9.5" fill="none"/></g><g transform="translate(51 256)" fill="#a2a2a2" stroke="#707070" stroke-width="1"><rect width="102" height="20" rx="10" stroke="none"/><rect x="0.5" y="0.5" width="101" height="19" rx="9.5" fill="none"/></g><g transform="translate(51 296)" fill="#a2a2a2" stroke="#707070" stroke-width="1"><rect width="314" height="20" rx="10" stroke="none"/><rect x="0.5" y="0.5" width="313" height="19" rx="9.5" fill="none"/></g><g transform="translate(51 336)" fill="#a2a2a2" stroke="#707070" stroke-width="1"><rect width="102" height="20" rx="10" stroke="none"/><rect x="0.5" y="0.5" width="101" height="19" rx="9.5" fill="none"/></g><g transform="translate(166 96)" fill="#28a745" stroke="#707070" stroke-width="1"><rect width="199" height="20" rx="10" stroke="none"/><rect x="0.5" y="0.5" width="198" height="19" rx="9.5" fill="none"/></g><g transform="translate(272 136)" fill="#a2a2a2" stroke="#707070" stroke-width="1"><rect width="93" height="20" rx="10" stroke="none"/><rect x="0.5" y="0.5" width="92" height="19" rx="9.5" fill="none"/></g><g transform="translate(215 216)" fill="#a2a2a2" stroke="#707070" stroke-width="1"><rect width="150" height="20" rx="10" stroke="none"/><rect x="0.5" y="0.5" width="149" height="19" rx="9.5" fill="none"/></g><g transform="translate(160 256)" fill="#28a745" stroke="#707070" stroke-width="1"><rect width="110" height="20" rx="10" stroke="none"/><rect x="0.5" y="0.5" width="109" height="19" rx="9.5" fill="none"/></g><g transform="translate(277 256)" fill="#a2a2a2" stroke="#707070" stroke-width="1"><rect width="88" height="20" rx="10" stroke="none"/><rect x="0.5" y="0.5" width="87" height="19" rx="9.5" fill="none"/></g><g transform="translate(161 336)" fill="#28a745" stroke="#707070" stroke-width="1"><rect width="204" height="20" rx="10" stroke="none"/><rect x="0.5" y="0.5" width="203" height="19" rx="9.5" fill="none"/></g></g><g transform="translate(-2726.39 21641.412)"><g transform="matrix(1, 0, 0, 1, -483.46, -303.86)" filter="url(#o)"><path d="M481.561,526.2c-.4-.4-9.968-10.087-18.076-33.07-7.438-21.086-14.944-57.857-8.458-113.289,12.288-105.013-50.722-171.938-51.361-172.6l1.865-1.791c.162.168,16.362,17.2,30.776,47.1a231.447,231.447,0,0,1,21.288,127.6C445.329,484.977,483,523.988,483.385,524.37Z" transform="translate(369.46 150.65)" fill="#f2f2f2"/></g><g transform="matrix(1, 0, 0, 1, -483.46, -303.86)" filter="url(#q)"><circle cx="16.803" cy="16.803" r="16.803" transform="translate(736.97 322.53)" fill="#f2f2f2"/></g><g transform="matrix(1, 0, 0, 1, -483.46, -303.86)" filter="url(#s)"><circle cx="16.803" cy="16.803" r="16.803" transform="translate(803.17 370.23)" fill="#f2f2f2"/></g><g transform="matrix(1, 0, 0, 1, -483.46, -303.86)" filter="url(#u)"><circle cx="16.803" cy="16.803" r="16.803" transform="translate(777.83 418.99)" fill="#f2f2f2"/></g><g transform="matrix(1, 0, 0, 1, -483.46, -303.86)" filter="url(#w)"><circle cx="16.803" cy="16.803" r="16.803" transform="translate(828.8 442.47)" fill="#f2f2f2"/></g><circle cx="16.803" cy="16.803" r="16.803" transform="translate(302.967 204.841)" fill="#f2f2f2"/><path d="M491.569,524.4s-26.135-36.2,15.478-78.289Z" transform="translate(-113.998 -153.208)" fill="#f2f2f2"/><path d="M471.316,528.568s-17.862-40.916-75.272-26.51Z" transform="translate(-113.998 -153.208)" fill="#f2f2f2"/><g transform="matrix(1, 0, 0, 1, -483.46, -303.86)" filter="url(#y)"><path d="M798.228,657.257c-.071-.847-1.571-21.163,11.49-55.216,11.984-31.24,39.107-80.417,100.277-137.283,115.884-107.726,109.025-245.108,108.941-246.485l3.863-.231c.021.349,1.957,35.47-10.627,83.518a346.353,346.353,0,0,1-99.542,166.033C796.944,575.135,802.019,656.134,802.084,656.94Z" transform="translate(369.46 150.65)" fill="#f2f2f2"/></g><g transform="matrix(1, 0, 0, 1, -483.46, -303.86)" filter="url(#aa)"><path d="M25.146,0A25.146,25.146,0,1,1,0,25.146,25.146,25.146,0,0,1,25.146,0Z" transform="translate(1359.21 303.86)" fill="#f2f2f2"/></g><g transform="matrix(1, 0, 0, 1, -483.46, -303.86)" filter="url(#ac)"><circle cx="25.146" cy="25.146" r="25.146" transform="translate(1388.36 422.44)" fill="#f2f2f2"/></g><g transform="matrix(1, 0, 0, 1, -483.46, -303.86)" filter="url(#ae)"><circle cx="25.146" cy="25.146" r="25.146" transform="translate(1312.16 453.41)" fill="#f2f2f2"/></g><g transform="matrix(1, 0, 0, 1, -483.46, -303.86)" filter="url(#ag)"><circle cx="25.146" cy="25.146" r="25.146" transform="translate(1347.46 529.61)" fill="#f2f2f2"/></g><g transform="matrix(1, 0, 0, 1, -483.46, -303.86)" filter="url(#ai)"><circle cx="25.146" cy="25.146" r="25.146" transform="translate(1234.93 563.96)" fill="#f2f2f2"/></g><path d="M811.384,664.909s5.341-66.6,93.591-74.182Z" transform="translate(-113.998 -153.208)" fill="#f2f2f2"/><path d="M784.26,650.013s19.345-63.947-60.042-103.234Z" transform="translate(-113.998 -153.208)" fill="#f2f2f2"/><path d="M235.418,593.579c-8.382,30.986-37.093,50.176-37.093,50.176s-15.121-31.047-6.738-62.033,37.093-50.176,37.093-50.176S243.8,562.593,235.418,593.579Z" transform="translate(-113.998 -153.208)" fill="#28a745"/><path d="M159.163,593.579c8.382,30.986,37.093,50.176,37.093,50.176s15.121-31.047,6.738-62.033S165.9,531.546,165.9,531.546,150.781,562.593,159.163,593.579Z" transform="translate(-113.998 -153.208)" fill="#28a745"/><path d="M171.481,586.919c23,22.39,25.81,56.81,25.81,56.81s-34.482-1.883-57.483-24.273S114,562.646,114,562.646,148.48,564.529,171.481,586.919Z" transform="translate(-113.998 -153.208)" fill="#3f3d56"/><path d="M223.1,586.919c-23,22.39-25.81,56.81-25.81,56.81s34.482-1.883,57.483-24.273,25.81-56.81,25.81-56.81S246.1,564.529,223.1,586.919Z" transform="translate(-113.998 -153.208)" fill="#3f3d56"/><rect width="963.51" height="2.241" transform="translate(8.495 557.125)" fill="#2f2e41"/><path d="M631.048,366.2s-10-10-33-8c0,0-222-23-227,18s-6,65,7,74c0,0,42.5,38.5,20.5,72.5l-12,20,471-4s5-73,20-87,20-88,0-90S625.548,348.7,631.048,366.2Z" transform="translate(-113.998 -153.208)" fill="#3f3d56"/><path d="M382.548,447.7s-141,33-85,95l9,9-4,138h650l7-135,8-16s49.819-59.75-94.091-81.375L847.548,522.7l-438-3S406.548,445.7,382.548,447.7Z" transform="translate(-113.998 -153.208)" fill="#3f3d56"/><rect width="41" height="31" transform="translate(200.55 527.495)" fill="#3f3d56"/><rect width="41" height="31" transform="translate(790.55 527.495)" fill="#3f3d56"/><path d="M623.441,523.2s-97.894-69.5-219.894.5l-36,52,7,43s253,4,256-23S623.441,523.2,623.441,523.2Z" transform="translate(-113.998 -153.208)" fill="#3f3d56"/><path d="M852.548,523.7s-171.752-55-223.376,0l6.376,79s251,19,255,6,6-36,6-36Z" transform="translate(-113.998 -153.208)" fill="#3f3d56"/><path d="M852.548,523.7s-171.752-55-223.376,0l.142,1.762c-.169-.818-.266-1.262-.266-1.262s-103.5-70.5-225.5-.5l-36,52,7,43s244.984,5.211,260.724-19.425l.276,3.425s251,19,255,6,6-36,6-36Z" transform="translate(-113.998 -153.208)" opacity="0.1"/><path d="M386.548,385.7c48.6-1.034,94.679-7.2,137-21,1.029,48.681,8.029,94.209,24,135-47.315-8.6-95.336-.09-144,24C412.288,479.7,404.731,433.435,386.548,385.7Z" transform="translate(-113.998 -153.208)" fill="#28a745"/><path d="M883.548,393.7c-48.6-1.034-94.679-7.2-137-21-1.029,48.681-8.029,94.209-24,135,47.315-8.6,95.336-.09,144,24C857.807,487.7,865.364,441.435,883.548,393.7Z" transform="translate(-113.998 -153.208)" fill="#28a745"/><path d="M571.42,380.928a33.84,33.84,0,0,1,9.263-4.645,236.2,236.2,0,0,1,65.268-14.208c19.407-1.376,40.442.258,55.6,12.456a19.117,19.117,0,0,1,5.64,6.571c1.907,4.115,1.329,8.9.712,13.392a15.132,15.132,0,0,1-1.3,5.042c-2.04,3.884-7.062,5.244-11.424,4.779s-8.455-2.311-12.758-3.167a57.03,57.03,0,0,0-8.058-.821l-26.985-1.461c-16.78-.908-33.781-1.8-50.241,1.585a50.045,50.045,0,0,0-14.516,5c-3.759,2.111-6.291,5.139-9.779,1.241C566.716,399.843,563.324,387.254,571.42,380.928Z" transform="translate(-113.998 -153.208)" fill="#2f2e41"/><path d="M613.235,392.861s36.3-16.27,50.063,2.5-7.509,11.264-7.509,11.264l-23.78,7.509-26.282-5.007Z" transform="translate(-113.998 -153.208)" fill="#f2f2f2"/><path d="M615.112,380.971s5.006,23.78,1.252,30.038,21.277,15.019,21.277,15.019l23.78-10.013s-6.258-38.8,0-46.308Z" transform="translate(-113.998 -153.208)" fill="#ffb9b9"/><path d="M615.112,380.971s5.006,23.78,1.252,30.038,21.277,15.019,21.277,15.019l23.78-10.013s-6.258-38.8,0-46.308Z" transform="translate(-113.998 -153.208)" opacity="0.1"/><path d="M591.66,666.906c3.581,6.865,5.9,14.3,8.271,21.674a1.763,1.763,0,0,0,2.191,1.457l22.262-.025c2.747,0,6.433-.886,6.4-3.633-.02-1.93-1.993-3.134-3.462-4.387-4.075-3.477-5.136-9.211-6.824-14.295a48.5,48.5,0,0,0-18.045-24.237,10.562,10.562,0,0,0-3.858-1.907,10.755,10.755,0,0,0-4.229.229c-3.908.788-18.5,3.486-15.744,9.17,1.187,2.447,5.586,5,7.43,7.282a52.3,52.3,0,0,1,5.6,8.67Z" transform="translate(-113.998 -153.208)" fill="#575a89"/><path d="M669.074,641.086a50.6,50.6,0,0,1-2.617,4.811c-3.225,5.319-7.031,10.281-10.034,15.729-1.873,3.4-3.45,7.07-3.657,10.945s1.158,8,4.249,10.344c3.232,2.452,7.662,2.566,11.679,1.994s8.009-1.722,12.055-1.419c-1.364-7.718,5.145-14.511,6.773-22.178.457-2.154.525-4.386,1.138-6.5a31.862,31.862,0,0,1,2.52-5.571,72.035,72.035,0,0,0,6.8-20.052c.153-.847-19.789-.985-21.659-.581C670.479,629.87,671.333,636.245,669.074,641.086Z" transform="translate(-113.998 -153.208)" fill="#575a89"/><path d="M515.368,519.83c-5.693,8.909-4.381,20.715-.383,30.5s10.362,18.44,14.718,28.073c2.777,6.142,4.724,12.654,7.851,18.625,3.872,7.394,9.525,13.911,12.123,21.843,1.656,5.056,2.036,10.6,4.719,15.192a46.561,46.561,0,0,0,5.528,6.858,63.373,63.373,0,0,1,12.741,22.757c2.452-7.3,9.795-12.094,17.336-13.674s15.356-.507,22.985.571c-4.256-6.593-8.553-13.27-11.09-20.7-2.454-7.182-3.178-14.823-4.83-22.231-3.389-15.19-10.63-29.2-17.8-43.017l36.842-2.922a143.643,143.643,0,0,1,18.1-.671c9.509.448,18.825,2.779,28.284,3.857s19.465.8,27.894-3.629a133.673,133.673,0,0,0-23.983,78.943,30.564,30.564,0,0,1,46.267,10.919c14.438-19.73,12.722-47.2,24.162-68.8,2.353-4.443,5.236-8.581,7.775-12.92,5.022-8.582,8.664-17.886,12.284-27.147,3.2-8.185,6.424-17.293,3.355-25.528a26.654,26.654,0,0,0-5.469-8.411c-6.6-7.278-15.789-12.661-25.612-12.885-15.079-.344-27.535,10.833-40.763,18.081-15.58,8.537-33.756,11.93-51.478,10.675-18.169-1.286-35.522-7.234-52.832-12.472a251.386,251.386,0,0,0-26.367-6.8c-7.423-1.392-14.493.15-21.808,2.048C527.957,509.034,519.952,512.656,515.368,519.83Z" transform="translate(-113.998 -153.208)" fill="#2f2e41"/><path d="M672.684,357.191a37.578,37.578,0,0,1-37.547,37.547,36.645,36.645,0,0,1-6.671-.6,37.545,37.545,0,1,1,44.218-36.946Z" transform="translate(-113.998 -153.208)" fill="#ffb9b9"/><path d="M613.235,392.861s6.884,3.129,9.387,5.632,10.013,16.27,22.528,7.509,13.767-13.767,17.522-13.767,8.761,7.509,8.761,7.509L705.851,503a144.147,144.147,0,0,1-31.915,26.909c-20.025,12.516-43.8,18.773-55.069,13.767s-32.541-8.761-36.3-18.773-10.013-40.05-10.013-40.05l17.522-76.345Z" transform="translate(-113.998 -153.208)" fill="#f2f2f2"/><path d="M608.4,497.289c2.729-5.894,3.125-12.565,3.356-19.056a115.519,115.519,0,0,0-.509-19.277c-1.109-8.372-3.835-16.437-5.557-24.705A104.445,104.445,0,0,1,603.5,412.2c.025-3.38.27-6.937,2.111-9.771,1.285-1.977,3.294-3.508,4.1-5.725,1.574-4.347-2.315-8.9-6.578-10.688-5.071-2.129-10.867-1.987-16.2-.65s-10.311,3.794-15.24,6.234c-3.56,1.763-7.2,3.58-9.957,6.437-3.885,4.02-5.593,9.62-6.973,15.037-1.1,4.336-2.085,8.858-1.245,13.253,1.364,7.137,7.182,12.505,10.284,19.076,3.6,7.63,3.359,16.523,1.927,24.838s-3.976,16.445-4.76,24.847.42,17.432,5.683,24.027c2.145,2.687,7.964,9.057,11.89,8.336,3.085-.566,7.557-7.357,10.042-9.509C595.763,511.724,604.28,506.193,608.4,497.289Z" transform="translate(-113.998 -153.208)" fill="#2f2e41"/><path d="M673.975,388.779c.11,6.98-2.967,13.615-6.586,19.586s-7.869,11.617-10.536,18.068a41.413,41.413,0,0,0-1.933,25.477,82.19,82.19,0,0,0,2.761,8.525l6.857,18.809a32.645,32.645,0,0,0,3.976,8.349,26.961,26.961,0,0,0,5.4,5.2,50.437,50.437,0,0,0,17.632,9.2c6.452,1.705,13.511,1.6,19.607-1.119a283.722,283.722,0,0,1,12.179-75.2c1.371-4.5,2.869-9.248,1.812-13.836-1.185-5.14-5.313-9-9.238-12.523-12-10.778-25.2-22.1-41.266-23.552C665.349,374.924,673.9,383.732,673.975,388.779Z" transform="translate(-113.998 -153.208)" fill="#2f2e41"/><path d="M591.842,534.291c.952,1.863,1.544,3.893,2.486,5.761a32.189,32.189,0,0,0,5.107,6.867c8.368,9.279,18.6,18.523,31.08,19.082a8.523,8.523,0,0,0,3.663-.461c2.184-.908,3.474-3.248,3.9-5.574.885-4.847-1.254-9.683-3.4-14.12-4.643-9.616-9.867-19.477-18.56-25.679-8.569-6.114-20.051-7.6-30.044-4.52-4.528,1.395-12.037,3.831-6.041,7.962C584.582,526.744,589.205,529.13,591.842,534.291Z" transform="translate(-113.998 -153.208)" fill="#ffb9b9"/><path d="M599.351,685.746c-3.731,5.071-2.983,12.319-6.288,17.677-2.865,4.644-8.264,7.08-11.848,11.2A30.013,30.013,0,0,0,578.169,719c-3.324,5.568-6.026,12.7-2.752,18.3,2.634,4.5,8.17,6.263,13.247,7.463,6.417,1.516,13.084,2.73,19.576,1.571s12.835-5.133,15.15-11.308a43.678,43.678,0,0,1,1.62-4.571c3.518-6.926,14.554-7,18.155-13.885,2.52-4.818.2-10.641-2.112-15.56l-7.072-15.024c-2.347-4.986-11.86-2.119-16.82-3.313C610.69,681.117,604,679.4,599.351,685.746Z" transform="translate(-113.998 -153.208)" fill="#2f2e41"/><path d="M654.049,672.84c-3,2.1-4.941,5.4-6.4,8.766-3.5,8.074-4.7,16.926-5.869,25.648-.468,3.494-.933,7.071-.2,10.52,1.508,7.123,7.963,12.369,14.911,14.547s14.4,1.843,21.673,1.486c2.336-.115,4.765-.254,6.813-1.383,3.655-2.015,5.083-6.753,4.456-10.879s-2.881-7.8-5.088-11.341-4.463-7.212-5.1-11.338c-1.063-6.94,1.937-17.127-2.327-23.405S659.751,668.843,654.049,672.84Z" transform="translate(-113.998 -153.208)" fill="#2f2e41"/><path d="M671.74,337.624a9.53,9.53,0,0,0-4.133-5.4,21.871,21.871,0,0,0-.873-7.12c-2.274-6.722-7.66-6.337-12.743-9.309-2.205-1.289-2.069-2.429-3.217-4.547a16.875,16.875,0,0,0-6.5-6.635c-3.261-2.077-6.7-4.217-10.56-4.48-8.106-.553-14.321,7.072-22.069,9.519-3.415,1.079-7.085,1.123-10.518,2.143s-6.858,3.454-7.37,7c-.236,1.636.18,3.315-.059,4.951-.476,3.252-3.329,5.529-5.239,8.2-4.223,5.914-3.74,14.269-.363,20.7a29.108,29.108,0,0,0,2.435,3.811,23.442,23.442,0,0,0,2.571,8.7c3.377,6.435,9.188,11.243,15.259,15.238a36.021,36.021,0,0,1-.9-6.5,4.482,4.482,0,0,1,.276-2.153c.676-1.413,2.462-1.789,3.824-2.563,2.821-1.6,3.927-5.151,4.009-8.395s-.606-6.493-.266-9.72a5.311,5.311,0,0,1,1.818-3.907,6.28,6.28,0,0,1,3.428-.817c5.78-.236,11.819-.342,16.918-3.075,1.739-.932,3.356-2.166,5.266-2.664,4.333-1.13,8.761,1.907,11.258,5.624s3.742,8.14,6.046,11.979,6.284,7.264,10.739,6.809a1.783,1.783,0,0,0,1.33-.592,1.994,1.994,0,0,0,.245-1.133l.249-17.027A25.735,25.735,0,0,0,671.74,337.624Z" transform="translate(-113.998 -153.208)" fill="#2f2e41"/><path d="M552.915,426.692c-3.582,5.285-7.713,10.367-9.682,16.44-1.157,3.57-1.517,7.344-2.355,11-2.791,12.184-10.854,23.006-11.664,35.479a16.868,16.868,0,0,0,1.185,8.146c2.313,5.031,7.849,7.683,13.129,9.351s10.951,2.87,15.166,6.461a46.472,46.472,0,0,1,5.747,6.662,55.665,55.665,0,0,0,26.589,18.192c-.827-5.695-1.214-12.559,3.338-16.079,2.464-1.905,5.757-2.245,8.86-2.513l14.664-1.267a188.444,188.444,0,0,0-32.146-25.042c-4.055-2.5-8.468-5.147-10.32-9.539-1.157-2.746-1.142-5.821-1.169-8.8a216.858,216.858,0,0,0-2.762-32.556c-1.207-7.476-2.806-14.886-4.634-22.235-.513-2.063-3.547-11.317-7.281-9.152-.88.51-1.7,6.38-2.216,7.6A46.084,46.084,0,0,1,552.915,426.692Z" transform="translate(-113.998 -153.208)" fill="#2f2e41"/><path d="M573.209,442.736a57.441,57.441,0,0,1-5.488,25.6,21.149,21.149,0,0,0-2.149,5.639c-.657,4.208,1.738,8.281,4.475,11.544a47.469,47.469,0,0,0,20.3,14.119" transform="translate(-113.998 -153.208)" opacity="0.1"/><path d="M666.641,397.887l.883.14a2.951,2.951,0,0,1-2.453-3.376l9.132-57.7a2.95,2.95,0,0,1,3.376-2.453l-.883-.14a4.739,4.739,0,0,1,3.94,5.421l-8.573,54.163a4.739,4.739,0,0,1-5.421,3.94Z" transform="translate(-113.998 -153.208)" fill="#2f2e41"/><path d="M1.744,0H3.1V64.315H1.744A1.744,1.744,0,0,1,0,62.571V1.744A1.744,1.744,0,0,1,1.744,0Z" transform="translate(560.663 180.834) rotate(8.995)" fill="#28a745"/><rect width="0.596" height="5.245" rx="0.168" transform="translate(562.138 189.451) rotate(8.995)" fill="#464353"/><path d="M699.27,386.789c1.381-3.478,2.784-7.074,2.689-10.815a21.79,21.79,0,0,0-3-9.6,49.061,49.061,0,0,0-7.829-10.747c-3.674-3.821-8.979-7.234-13.988-5.5-3.977,1.377-6.245,5.518-7.716,9.461a11.892,11.892,0,0,0-1,6.155c.488,2.715,2.585,4.8,4.1,7.1,2.382,3.61,3.4,7.923,4.381,12.136l2.454,10.567,4.216,18.15c-.111-.478,7.829-8,8.772-9.6C695.386,398.943,697.06,392.357,699.27,386.789Z" transform="translate(-113.998 -153.208)" fill="#ffb9b9"/><path d="M721.814,406.719l5.989,12.454a29.925,29.925,0,0,1,3.776,16.841l.355,37.36c.047,4.992.086,10.06-1.229,14.877a11.914,11.914,0,0,1-2.065,4.442,13.887,13.887,0,0,1-3.542,2.853c-11.334,7.082-26.03,11.107-38,5.172a52.589,52.589,0,0,1-7.792-5.086c-4.772-3.534-9.615-7.137-13.185-11.883-3.737-4.967,13.445-23.862,10.931-29.547-4.5-10.183-2.011-34.333-9-43-1.017-1.261,8.228-.125,8.191-1.745-.074-3.275,7.78-8.009,10.809-9.255,5.175-2.128,11.134-6.472,12-12,11.005,14.432-19.9,58.039-2.531,63.312a1.792,1.792,0,0,0,2.756-1.532c.986-4.125,1.334-8.372,2.055-12.551a71.487,71.487,0,0,1,7.542-21.75C710.927,411.873,717.587,397.928,721.814,406.719Z" transform="translate(-113.998 -153.208)" fill="#2f2e41"/><path d="M703.248,435.284c-.882,2.373-.081,5,.6,7.435a74.919,74.919,0,0,1,2.73,21.738.791.791,0,0,1-.925.948c-2.889.177-6.2.2-8.156-1.934" transform="translate(-113.998 -153.208)" opacity="0.1"/><path d="M239.048,710.2h-83l-14.438-49.22a20.118,20.118,0,0,1,19.3-25.78h72.609A20.118,20.118,0,0,1,252.9,660.745Z" transform="translate(-113.998 -153.208)" fill="#3f3d56"/><path d="M281.048,340.4a13,13,0,1,1,13-13A13,13,0,0,1,281.048,340.4Zm0-24a11,11,0,1,0,11,11A11,11,0,0,0,281.048,316.4Z" transform="translate(-113.998 -153.208)" fill="#3f3d56"/></g><g transform="matrix(1, 0, 0, 1, -3209.85, 21337.55)" filter="url(#ak)"><g transform="translate(310.64 313.4)" fill="#4fd66e"><path d="M 252.1012115478516 82.544921875 L 45.34898376464844 82.544921875 C 39.28890609741211 82.544921875 33.41071319580078 81.45841979980469 27.8776741027832 79.31561279296875 C 22.53575134277344 77.24684906005859 17.73882865905762 74.28569030761719 13.6200590133667 70.51449584960938 C 9.504482269287109 66.74619293212891 6.273789882659912 62.35911560058594 4.017674446105957 57.47519302368164 C 1.683520674705505 52.42230606079102 0.5000207424163818 47.05503845214844 0.5000207424163818 41.5224609375 C 0.5000207424163818 35.98988342285156 1.683520674705505 30.62261390686035 4.017674446105957 25.56973075866699 C 6.273789882659912 20.68580627441406 9.504482269287109 16.29873085021973 13.6200590133667 12.53042221069336 C 17.73882865905762 8.759230613708496 22.53575134277344 5.798076152801514 27.8776741027832 3.729307174682617 C 33.41071319580078 1.586499452590942 39.28890609741211 0.4999994039535522 45.34898376464844 0.4999994039535522 L 252.1012115478516 0.4999994039535522 C 258.1612854003906 0.4999994039535522 264.0394897460938 1.586499452590942 269.572509765625 3.729307174682617 C 274.9144287109375 5.798076152801514 279.7113952636719 8.759191513061523 283.8301391601563 12.53042221069336 C 287.9457397460938 16.29873085021973 291.1764526367188 20.68580627441406 293.4325561523438 25.56973075866699 C 295.7667236328125 30.62261390686035 296.9502258300781 35.98988342285156 296.9502258300781 41.5224609375 C 296.9502258300781 47.05503845214844 295.7667236328125 52.42230606079102 293.4325561523438 57.47519302368164 C 291.1764526367188 62.35911560058594 287.9457397460938 66.74619293212891 283.8301391601563 70.51449584960938 C 279.7113952636719 74.28572845458984 274.9144287109375 77.24684906005859 269.572509765625 79.31561279296875 C 264.0394897460938 81.45841979980469 258.1612854003906 82.544921875 252.1012115478516 82.544921875 Z" stroke="none"/><path d="M 45.34898376464844 1 C 39.35089111328125 1 33.533447265625 2.075149536132813 28.05825805664063 4.195541381835938 C 22.77450561523438 6.241806030273438 18.0303955078125 9.170112609863281 13.95770263671875 12.89919281005859 C 9.89129638671875 16.62245941162109 6.699676513671875 20.95600128173828 4.4715576171875 25.77938461303711 C 2.16796875 30.76607513427734 0.999969482421875 36.06280899047852 0.999969482421875 41.5224609375 C 0.999969482421875 46.98211288452148 2.16796875 52.27884674072266 4.4715576171875 57.26553726196289 C 6.699676513671875 62.08892059326172 9.89129638671875 66.42246246337891 13.95770263671875 70.14572906494141 C 18.0303955078125 73.87480926513672 22.77450561523438 76.80311584472656 28.05825805664063 78.84938049316406 C 33.533447265625 80.96977233886719 39.35089111328125 82.044921875 45.34898376464844 82.044921875 L 252.1012115478516 82.044921875 C 258.0993041992188 82.044921875 263.916748046875 80.96977233886719 269.3919372558594 78.84938049316406 C 274.6756591796875 76.80311584472656 279.4197998046875 73.87480926513672 283.4924926757813 70.14572906494141 C 287.5588989257813 66.42246246337891 290.75048828125 62.08892059326172 292.9786071777344 57.26553726196289 C 295.2821655273438 52.27884674072266 296.4501647949219 46.98211288452148 296.4501647949219 41.5224609375 C 296.4501647949219 36.06280899047852 295.2821655273438 30.76607513427734 292.9786071777344 25.77938461303711 C 290.75048828125 20.95600128173828 287.5588989257813 16.62245941162109 283.4924926757813 12.89919281005859 C 279.4197998046875 9.170112609863281 274.6756591796875 6.241806030273438 269.3919372558594 4.195541381835938 C 263.916748046875 2.075149536132813 258.0993041992188 1 252.1012115478516 1 L 45.34898376464844 1 M 45.34898376464844 0 L 252.1012115478516 0 C 277.1467895507813 0 297.4501647949219 18.59023284912109 297.4501647949219 41.5224609375 C 297.4501647949219 64.45468902587891 277.1467895507813 83.044921875 252.1012115478516 83.044921875 L 45.34898376464844 83.044921875 C 20.30340576171875 83.044921875 -3.0517578125e-05 64.45468902587891 -3.0517578125e-05 41.5224609375 C -3.0517578125e-05 18.59023284912109 20.30340576171875 0 45.34898376464844 0 Z" stroke="none" fill="#707070"/></g></g><g transform="matrix(1, 0, 0, 1, -3209.85, 21337.55)" filter="url(#am)"><text transform="translate(385.85 369.45)" font-size="35" font-family="LeelawadeeUI-Bold, Leelawadee UI" font-weight="700" letter-spacing="0.03em"><tspan x="0" y="0">Join Now</tspan></text></g><g transform="translate(-1806.99 21389.217)"><path d="M40.315,17.128V1.5H25.5" transform="translate(11.261 -1.5)" fill="none" stroke="#186a2b" stroke-linecap="round" stroke-linejoin="round" stroke-width="2"/><g transform="matrix(1, 0, 0, 1, -1402.86, -51.67)" filter="url(#ao)"><path d="M24,19.732,41.284,1.5" transform="translate(1413.15 50.17)" fill="#28a745" stroke="#186a2b" stroke-linecap="round" stroke-linejoin="round" stroke-width="2"/></g><g transform="matrix(1, 0, 0, 1, -1402.86, -51.67)" filter="url(#aq)"><path d="M52.275,41.861v7.814a5.345,5.345,0,0,1-1.6,3.86,4.781,4.781,0,0,1-3.783,1.35,47.26,47.26,0,0,1-21.309-8A49.555,49.555,0,0,1,10.768,31.26,53.4,53.4,0,0,1,3.188,8.678,5.391,5.391,0,0,1,4.459,4.7,4.826,4.826,0,0,1,8.1,3h7.408a5.029,5.029,0,0,1,4.938,4.48A34.954,34.954,0,0,0,22.176,14.8a5.418,5.418,0,0,1-1.111,5.5L17.929,23.6A40.659,40.659,0,0,0,32.744,39.23l3.136-3.308a4.754,4.754,0,0,1,5.21-1.172,30.362,30.362,0,0,0,6.938,1.823A5.135,5.135,0,0,1,52.275,41.861Z" transform="translate(1399.69 51.27)" fill="#28a745" stroke="#186a2b" stroke-linecap="round" stroke-linejoin="round" stroke-width="2"/></g></g></g></g></svg>