<svg xmlns="http://www.w3.org/2000/svg" width="1682.139" height="1111.791" viewBox="0 0 1682.139 1111.791"><g transform="translate(-1543.45 -17994)"><g transform="translate(2458.428 17889)"><g transform="translate(-21 -114)"><path d="M81.329,126.791c-42.11,0-76.247-34.646-76.247-77.386V-574.85A5.122,5.122,0,0,1,0-580.009v-69.648a5.121,5.121,0,0,1,5.083-5.159v-20.637A5.121,5.121,0,0,1,0-680.611V-750.26a5.122,5.122,0,0,1,5.083-5.16v-38.693A5.122,5.122,0,0,1,0-799.271v-30.955a5.122,5.122,0,0,1,5.083-5.16v-72.228C5.083-950.353,39.22-985,81.329-985h382.5c42.11,0,76.245,34.647,76.245,77.386v179.28a5.122,5.122,0,0,1,5.084,5.159v116.08a5.122,5.122,0,0,1-5.084,5.16V49.4c0,42.74-34.136,77.386-76.245,77.386Z" transform="translate(243 1204)" fill="#2d2d41"/><path d="M114-960a6,6,0,0,1,6-6,6,6,0,0,1,6,6,6,6,0,0,1-6,6A6,6,0,0,1,114-960Zm-64,3a3,3,0,0,1-3-3,3,3,0,0,1,3-3H97a3,3,0,0,1,3,3,3,3,0,0,1-3,3Z" transform="translate(446.395 1213)" fill="#424256"/></g></g><g transform="translate(-714.572 28.988)"><g transform="translate(3426 18015.012)"><g fill="#f3f3f3" stroke="#707070" stroke-width="1"><rect width="484" height="1038" rx="60" stroke="none"/><rect x="0.5" y="0.5" width="483" height="1037" rx="59.5" fill="none"/></g><g transform="translate(8.168 849.001)"><g transform="translate(-0.168)" fill="#fff" stroke="#707070" stroke-width="1"><rect width="469" height="147" rx="17" stroke="none"/><rect x="0.5" y="0.5" width="468" height="146" rx="16.5" fill="none"/></g><g transform="translate(11.832 12)" fill="none" stroke="#05f" stroke-width="3"><ellipse cx="22.5" cy="22" rx="22.5" ry="22" stroke="none"/><ellipse cx="22.5" cy="22" rx="21" ry="20.5" fill="none"/></g><text transform="translate(22.832 40)" fill="#05f" font-size="20" font-family="SegoeUI-Bold, Segoe UI" font-weight="700"><tspan x="0" y="0">90</tspan></text><g transform="translate(72.832 15)" fill="#827d7d" stroke="#707070" stroke-width="1"><rect width="51" height="15" rx="7.5" stroke="none"/><rect x="0.5" y="0.5" width="50" height="14" rx="7" fill="none"/></g><g transform="translate(75.832 36)" fill="#f3f3f3" stroke="#c9c7c7" stroke-width="1"><rect width="45" height="11" rx="5.5" stroke="none"/><rect x="0.5" y="0.5" width="44" height="10" rx="5" fill="none"/></g><g transform="translate(75.832 56)" fill="#f3f3f3" stroke="#c9c7c7" stroke-width="1"><rect width="125" height="10" rx="5" stroke="none"/><rect x="0.5" y="0.5" width="124" height="9" rx="4.5" fill="none"/></g><g transform="translate(75.832 75)" fill="#f3f3f3" stroke="#c9c7c7" stroke-width="1"><rect width="211" height="12" rx="6" stroke="none"/><rect x="0.5" y="0.5" width="210" height="11" rx="5.5" fill="none"/></g><g transform="translate(207.832 56)" fill="#f3f3f3" stroke="#c9c7c7" stroke-width="1"><rect width="126" height="10" rx="5" stroke="none"/><rect x="0.5" y="0.5" width="125" height="9" rx="4.5" fill="none"/></g><g transform="translate(293.832 75)" fill="#f3f3f3" stroke="#c9c7c7" stroke-width="1"><rect width="135" height="12" rx="6" stroke="none"/><rect x="0.5" y="0.5" width="134" height="11" rx="5.5" fill="none"/></g><g transform="translate(340.832 56)" fill="#f3f3f3" stroke="#c9c7c7" stroke-width="1"><rect width="88" height="10" rx="5" stroke="none"/><rect x="0.5" y="0.5" width="87" height="9" rx="4.5" fill="none"/></g><g transform="translate(75.832 95)" fill="#f3f3f3" stroke="#c9c7c7" stroke-width="1"><rect width="92" height="11" rx="5.5" stroke="none"/><rect x="0.5" y="0.5" width="91" height="10" rx="5" fill="none"/></g><g transform="translate(177.832 95)" fill="#f3f3f3" stroke="#c9c7c7" stroke-width="1"><rect width="166" height="11" rx="5.5" stroke="none"/><rect x="0.5" y="0.5" width="165" height="10" rx="5" fill="none"/></g><g transform="translate(351.832 95)" fill="#f3f3f3" stroke="#c9c7c7" stroke-width="1"><rect width="77" height="11" rx="5.5" stroke="none"/><rect x="0.5" y="0.5" width="76" height="10" rx="5" fill="none"/></g><g transform="translate(75.832 114)" fill="#f3f3f3" stroke="#c9c7c7" stroke-width="1"><rect width="141" height="12" rx="6" stroke="none"/><rect x="0.5" y="0.5" width="140" height="11" rx="5.5" fill="none"/></g><g transform="translate(224.832 114)" fill="#f3f3f3" stroke="#c9c7c7" stroke-width="1"><rect width="124" height="12" rx="6" stroke="none"/><rect x="0.5" y="0.5" width="123" height="11" rx="5.5" fill="none"/></g><g transform="translate(357.832 114)" fill="#f3f3f3" stroke="#c9c7c7" stroke-width="1"><rect width="71" height="12" rx="6" stroke="none"/><rect x="0.5" y="0.5" width="70" height="11" rx="5.5" fill="none"/></g></g><path d="M60,0H424a60,60,0,0,1,60,60v40a0,0,0,0,1,0,0H0a0,0,0,0,1,0,0V60A60,60,0,0,1,60,0Z" fill="#3d3c3c"/><text transform="translate(62 61)" fill="#fff" font-size="30" font-family="SegoeUI-Bold, Segoe UI" font-weight="700"><tspan x="0" y="0">Repos</tspan></text><text transform="translate(193 61)" fill="#fff" font-size="30" font-family="SegoeUI-Bold, Segoe UI" font-weight="700"><tspan x="0" y="0">Sign In</tspan></text><text transform="translate(337 62)" fill="#fff" font-size="30" font-family="SegoeUI-Bold, Segoe UI" font-weight="700"><tspan x="0" y="0">Sign Up</tspan></text><g transform="translate(484 1040) rotate(180)" fill="#efefef" stroke="#707070" stroke-width="1"><path d="M58,0H426a58,58,0,0,1,58,58v0a0,0,0,0,1,0,0H0a0,0,0,0,1,0,0v0A58,58,0,0,1,58,0Z" stroke="none"/><path d="M57.025.5h369.95A56.525,56.525,0,0,1,483.5,57.025v0a.475.475,0,0,1-.475.475H.975A.475.475,0,0,1,.5,57.025v0A56.525,56.525,0,0,1,57.025.5Z" fill="none"/></g><g transform="translate(228 997)" fill="none" stroke="#827d7d" stroke-width="1"><rect width="28" height="28" rx="9" stroke="none"/><rect x="0.5" y="0.5" width="27" height="27" rx="8.5" fill="none"/></g><g transform="translate(91.712 1000.244)"><line y2="22.758" transform="translate(0 0)" fill="none" stroke="#707070" stroke-width="2"/><line y2="22.758" transform="translate(6.427 0)" fill="none" stroke="#707070" stroke-width="2"/><line y2="22.758" transform="translate(12.855 0)" fill="none" stroke="#707070" stroke-width="2"/></g><g transform="translate(19.4 119)"><g transform="translate(-0.4)" fill="#fff" stroke="#707070" stroke-width="1"><rect width="446" height="185" rx="13" stroke="none"/><rect x="0.5" y="0.5" width="445" height="184" rx="12.5" fill="none"/></g><g transform="translate(18.6 15)" fill="#827d7d" stroke="#707070" stroke-width="1"><rect width="52" height="53" rx="10" stroke="none"/><rect x="0.5" y="0.5" width="51" height="52" rx="9.5" fill="none"/></g><g transform="translate(88.6 73)" fill="#05f" stroke="#05f" stroke-width="1"><rect width="93" height="31" rx="10" stroke="none"/><rect x="0.5" y="0.5" width="92" height="30" rx="9.5" fill="none"/></g><g transform="translate(90.6 47)" fill="#f3f3f3" stroke="#c9c7c7" stroke-width="1"><rect width="314" height="15" rx="7.5" stroke="none"/><rect x="0.5" y="0.5" width="313" height="14" rx="7" fill="none"/></g><g transform="translate(88.6 20)" fill="#827d7d" stroke="#707070" stroke-width="1"><rect width="132" height="16" rx="8" stroke="none"/><rect x="0.5" y="0.5" width="131" height="15" rx="7.5" fill="none"/></g><g transform="translate(33.6 130)" fill="#827d7d" stroke="#707070" stroke-width="1"><rect width="52" height="14" rx="7" stroke="none"/><rect x="0.5" y="0.5" width="51" height="13" rx="6.5" fill="none"/></g><g transform="translate(139.6 130)" fill="#827d7d" stroke="#707070" stroke-width="1"><rect width="52" height="14" rx="7" stroke="none"/><rect x="0.5" y="0.5" width="51" height="13" rx="6.5" fill="none"/></g><g transform="translate(245.6 130)" fill="#827d7d" stroke="#707070" stroke-width="1"><rect width="53" height="14" rx="7" stroke="none"/><rect x="0.5" y="0.5" width="52" height="13" rx="6.5" fill="none"/></g><g transform="translate(352.6 130)" fill="#827d7d" stroke="#707070" stroke-width="1"><rect width="51" height="14" rx="7" stroke="none"/><rect x="0.5" y="0.5" width="50" height="13" rx="6.5" fill="none"/></g><g transform="translate(37.6 154)" fill="#f3f3f3" stroke="#c9c7c7" stroke-width="1"><rect width="45" height="11" rx="5.5" stroke="none"/><rect x="0.5" y="0.5" width="44" height="10" rx="5" fill="none"/></g><g transform="translate(142.6 155)" fill="#f3f3f3" stroke="#c9c7c7" stroke-width="1"><rect width="46" height="11" rx="5.5" stroke="none"/><rect x="0.5" y="0.5" width="45" height="10" rx="5" fill="none"/></g><g transform="translate(249.6 155)" fill="#f3f3f3" stroke="#c9c7c7" stroke-width="1"><rect width="44" height="11" rx="5.5" stroke="none"/><rect x="0.5" y="0.5" width="43" height="10" rx="5" fill="none"/></g><g transform="translate(355.6 154)" fill="#f3f3f3" stroke="#c9c7c7" stroke-width="1"><rect width="45" height="11" rx="5.5" stroke="none"/><rect x="0.5" y="0.5" width="44" height="10" rx="5" fill="none"/></g><g transform="translate(139.6 130)" fill="#827d7d" stroke="#707070" stroke-width="1"><rect width="52" height="14" rx="7" stroke="none"/><rect x="0.5" y="0.5" width="51" height="13" rx="6.5" fill="none"/></g></g><g transform="translate(0 313)" fill="#069bff" stroke="#707070" stroke-width="1"><rect width="484" height="43" stroke="none"/><rect x="0.5" y="0.5" width="483" height="42" fill="none"/></g><g transform="translate(7.147 364.999)"><g transform="translate(-0.147)" fill="#fff" stroke="#707070" stroke-width="1"><rect width="469" height="147" rx="17" stroke="none"/><rect x="0.5" y="0.5" width="468" height="146" rx="16.5" fill="none"/></g><g transform="translate(11.853 11)" fill="none" stroke="#05f" stroke-width="3"><circle cx="22.5" cy="22.5" r="22.5" stroke="none"/><circle cx="22.5" cy="22.5" r="21" fill="none"/></g><text transform="translate(22.853 39)" fill="#05f" font-size="20" font-family="SegoeUI-Bold, Segoe UI" font-weight="700"><tspan x="0" y="0">90</tspan></text><g transform="translate(72.853 14)" fill="#827d7d" stroke="#707070" stroke-width="1"><rect width="51" height="16" rx="8" stroke="none"/><rect x="0.5" y="0.5" width="50" height="15" rx="7.5" fill="none"/></g><g transform="translate(75.853 36)" fill="#f3f3f3" stroke="#c9c7c7" stroke-width="1"><rect width="45" height="10" rx="5" stroke="none"/><rect x="0.5" y="0.5" width="44" height="9" rx="4.5" fill="none"/></g><g transform="translate(75.853 55)" fill="#f3f3f3" stroke="#c9c7c7" stroke-width="1"><rect width="125" height="12" rx="6" stroke="none"/><rect x="0.5" y="0.5" width="124" height="11" rx="5.5" fill="none"/></g><g transform="translate(75.853 75)" fill="#f3f3f3" stroke="#c9c7c7" stroke-width="1"><rect width="210" height="11" rx="5.5" stroke="none"/><rect x="0.5" y="0.5" width="209" height="10" rx="5" fill="none"/></g><g transform="translate(207.853 55)" fill="#f3f3f3" stroke="#c9c7c7" stroke-width="1"><rect width="126" height="12" rx="6" stroke="none"/><rect x="0.5" y="0.5" width="125" height="11" rx="5.5" fill="none"/></g><g transform="translate(293.853 75)" fill="#f3f3f3" stroke="#c9c7c7" stroke-width="1"><rect width="135" height="11" rx="5.5" stroke="none"/><rect x="0.5" y="0.5" width="134" height="10" rx="5" fill="none"/></g><g transform="translate(340.853 55)" fill="#f3f3f3" stroke="#c9c7c7" stroke-width="1"><rect width="88" height="12" rx="6" stroke="none"/><rect x="0.5" y="0.5" width="87" height="11" rx="5.5" fill="none"/></g><g transform="translate(75.853 94)" fill="#f3f3f3" stroke="#c9c7c7" stroke-width="1"><rect width="92" height="12" rx="6" stroke="none"/><rect x="0.5" y="0.5" width="91" height="11" rx="5.5" fill="none"/></g><g transform="translate(176.853 94)" fill="#f3f3f3" stroke="#c9c7c7" stroke-width="1"><rect width="167" height="12" rx="6" stroke="none"/><rect x="0.5" y="0.5" width="166" height="11" rx="5.5" fill="none"/></g><g transform="translate(350.853 94)" fill="#f3f3f3" stroke="#c9c7c7" stroke-width="1"><rect width="78" height="12" rx="6" stroke="none"/><rect x="0.5" y="0.5" width="77" height="11" rx="5.5" fill="none"/></g><g transform="translate(75.853 114)" fill="#f3f3f3" stroke="#c9c7c7" stroke-width="1"><rect width="141" height="11" rx="5.5" stroke="none"/><rect x="0.5" y="0.5" width="140" height="10" rx="5" fill="none"/></g><g transform="translate(224.853 114)" fill="#f3f3f3" stroke="#c9c7c7" stroke-width="1"><rect width="124" height="11" rx="5.5" stroke="none"/><rect x="0.5" y="0.5" width="123" height="10" rx="5" fill="none"/></g><g transform="translate(357.853 114)" fill="#f3f3f3" stroke="#c9c7c7" stroke-width="1"><rect width="71" height="11" rx="5.5" stroke="none"/><rect x="0.5" y="0.5" width="70" height="10" rx="5" fill="none"/></g></g><g transform="translate(8.168 524.999)"><g transform="translate(-0.168)" fill="#fff" stroke="#707070" stroke-width="1"><rect width="469" height="148" rx="17" stroke="none"/><rect x="0.5" y="0.5" width="468" height="147" rx="16.5" fill="none"/></g><g transform="translate(11.832 12)" fill="none" stroke="#05f" stroke-width="3"><ellipse cx="22.5" cy="23" rx="22.5" ry="23" stroke="none"/><ellipse cx="22.5" cy="23" rx="21" ry="21.5" fill="none"/></g><text transform="translate(22.832 41)" fill="#05f" font-size="20" font-family="SegoeUI-Bold, Segoe UI" font-weight="700"><tspan x="0" y="0">85</tspan></text><g transform="translate(72.832 16)" fill="#827d7d" stroke="#707070" stroke-width="1"><rect width="51" height="15" rx="7.5" stroke="none"/><rect x="0.5" y="0.5" width="50" height="14" rx="7" fill="none"/></g><g transform="translate(75.832 37)" fill="#f3f3f3" stroke="#c9c7c7" stroke-width="1"><rect width="45" height="11" rx="5.5" stroke="none"/><rect x="0.5" y="0.5" width="44" height="10" rx="5" fill="none"/></g><g transform="translate(75.832 57)" fill="#f3f3f3" stroke="#c9c7c7" stroke-width="1"><rect width="125" height="11" rx="5.5" stroke="none"/><rect x="0.5" y="0.5" width="124" height="10" rx="5" fill="none"/></g><g transform="translate(75.832 76)" fill="#f3f3f3" stroke="#c9c7c7" stroke-width="1"><rect width="211" height="11" rx="5.5" stroke="none"/><rect x="0.5" y="0.5" width="210" height="10" rx="5" fill="none"/></g><g transform="translate(207.832 57)" fill="#f3f3f3" stroke="#c9c7c7" stroke-width="1"><rect width="126" height="11" rx="5.5" stroke="none"/><rect x="0.5" y="0.5" width="125" height="10" rx="5" fill="none"/></g><g transform="translate(293.832 76)" fill="#f3f3f3" stroke="#c9c7c7" stroke-width="1"><rect width="135" height="11" rx="5.5" stroke="none"/><rect x="0.5" y="0.5" width="134" height="10" rx="5" fill="none"/></g><g transform="translate(340.832 57)" fill="#f3f3f3" stroke="#c9c7c7" stroke-width="1"><rect width="88" height="11" rx="5.5" stroke="none"/><rect x="0.5" y="0.5" width="87" height="10" rx="5" fill="none"/></g><g transform="translate(75.832 96)" fill="#f3f3f3" stroke="#c9c7c7" stroke-width="1"><rect width="92" height="11" rx="5.5" stroke="none"/><rect x="0.5" y="0.5" width="91" height="10" rx="5" fill="none"/></g><g transform="translate(177.832 96)" fill="#f3f3f3" stroke="#c9c7c7" stroke-width="1"><rect width="166" height="11" rx="5.5" stroke="none"/><rect x="0.5" y="0.5" width="165" height="10" rx="5" fill="none"/></g><g transform="translate(351.832 96)" fill="#f3f3f3" stroke="#c9c7c7" stroke-width="1"><rect width="77" height="11" rx="5.5" stroke="none"/><rect x="0.5" y="0.5" width="76" height="10" rx="5" fill="none"/></g><g transform="translate(75.832 115)" fill="#f3f3f3" stroke="#c9c7c7" stroke-width="1"><rect width="141" height="11" rx="5.5" stroke="none"/><rect x="0.5" y="0.5" width="140" height="10" rx="5" fill="none"/></g><g transform="translate(224.832 115)" fill="#f3f3f3" stroke="#c9c7c7" stroke-width="1"><rect width="124" height="11" rx="5.5" stroke="none"/><rect x="0.5" y="0.5" width="123" height="10" rx="5" fill="none"/></g><g transform="translate(357.832 115)" fill="#f3f3f3" stroke="#c9c7c7" stroke-width="1"><rect width="71" height="11" rx="5.5" stroke="none"/><rect x="0.5" y="0.5" width="70" height="10" rx="5" fill="none"/></g></g><g transform="translate(7.147 687.001)"><g transform="translate(0 0)"><g transform="translate(-0.147)" fill="#fff" stroke="#707070" stroke-width="1"><rect width="469" height="147" rx="17" stroke="none"/><rect x="0.5" y="0.5" width="468" height="146" rx="16.5" fill="none"/></g><g transform="translate(11.853 12)" fill="none" stroke="#05f" stroke-width="3"><ellipse cx="22.5" cy="23" rx="22.5" ry="23" stroke="none"/><ellipse cx="22.5" cy="23" rx="21" ry="21.5" fill="none"/></g><text transform="translate(22.853 41)" fill="#05f" font-size="20" font-family="SegoeUI-Bold, Segoe UI" font-weight="700"><tspan x="0" y="0">98</tspan></text><g transform="translate(72.853 15)" fill="#827d7d" stroke="#707070" stroke-width="1"><rect width="51" height="15" rx="7.5" stroke="none"/><rect x="0.5" y="0.5" width="50" height="14" rx="7" fill="none"/></g><g transform="translate(75.853 37)" fill="#f3f3f3" stroke="#c9c7c7" stroke-width="1"><rect width="45" height="11" rx="5.5" stroke="none"/><rect x="0.5" y="0.5" width="44" height="10" rx="5" fill="none"/></g><g transform="translate(75.853 57)" fill="#f3f3f3" stroke="#c9c7c7" stroke-width="1"><rect width="125" height="10" rx="5" stroke="none"/><rect x="0.5" y="0.5" width="124" height="9" rx="4.5" fill="none"/></g><g transform="translate(75.853 76)" fill="#f3f3f3" stroke="#c9c7c7" stroke-width="1"><rect width="210" height="11" rx="5.5" stroke="none"/><rect x="0.5" y="0.5" width="209" height="10" rx="5" fill="none"/></g><g transform="translate(207.853 57)" fill="#f3f3f3" stroke="#c9c7c7" stroke-width="1"><rect width="126" height="10" rx="5" stroke="none"/><rect x="0.5" y="0.5" width="125" height="9" rx="4.5" fill="none"/></g><g transform="translate(293.853 76)" fill="#f3f3f3" stroke="#c9c7c7" stroke-width="1"><rect width="135" height="11" rx="5.5" stroke="none"/><rect x="0.5" y="0.5" width="134" height="10" rx="5" fill="none"/></g><g transform="translate(340.853 57)" fill="#f3f3f3" stroke="#c9c7c7" stroke-width="1"><rect width="88" height="10" rx="5" stroke="none"/><rect x="0.5" y="0.5" width="87" height="9" rx="4.5" fill="none"/></g><g transform="translate(75.853 96)" fill="#f3f3f3" stroke="#c9c7c7" stroke-width="1"><rect width="92" height="10" rx="5" stroke="none"/><rect x="0.5" y="0.5" width="91" height="9" rx="4.5" fill="none"/></g><g transform="translate(176.853 96)" fill="#f3f3f3" stroke="#c9c7c7" stroke-width="1"><rect width="167" height="10" rx="5" stroke="none"/><rect x="0.5" y="0.5" width="166" height="9" rx="4.5" fill="none"/></g><g transform="translate(350.853 96)" fill="#f3f3f3" stroke="#c9c7c7" stroke-width="1"><rect width="78" height="10" rx="5" stroke="none"/><rect x="0.5" y="0.5" width="77" height="9" rx="4.5" fill="none"/></g><g transform="translate(75.853 115)" fill="#f3f3f3" stroke="#c9c7c7" stroke-width="1"><rect width="141" height="11" rx="5.5" stroke="none"/><rect x="0.5" y="0.5" width="140" height="10" rx="5" fill="none"/></g><g transform="translate(224.853 115)" fill="#f3f3f3" stroke="#c9c7c7" stroke-width="1"><rect width="124" height="11" rx="5.5" stroke="none"/><rect x="0.5" y="0.5" width="123" height="10" rx="5" fill="none"/></g><g transform="translate(357.853 115)" fill="#f3f3f3" stroke="#c9c7c7" stroke-width="1"><rect width="71" height="11" rx="5.5" stroke="none"/><rect x="0.5" y="0.5" width="70" height="10" rx="5" fill="none"/></g><g transform="translate(75.853 37)" fill="#f3f3f3" stroke="#c9c7c7" stroke-width="1"><rect width="45" height="11" rx="5.5" stroke="none"/><rect x="0.5" y="0.5" width="44" height="10" rx="5" fill="none"/></g></g></g></g></g><g transform="translate(1888.939 17889)"><g transform="translate(-21 -114)"><path d="M81.329,126.791c-42.11,0-76.247-34.646-76.247-77.386V-574.85A5.122,5.122,0,0,1,0-580.009v-69.648a5.121,5.121,0,0,1,5.083-5.159v-20.637A5.121,5.121,0,0,1,0-680.611V-750.26a5.122,5.122,0,0,1,5.083-5.16v-38.693A5.122,5.122,0,0,1,0-799.271v-30.955a5.122,5.122,0,0,1,5.083-5.16v-72.228C5.083-950.353,39.22-985,81.329-985h382.5c42.11,0,76.245,34.647,76.245,77.386v179.28a5.122,5.122,0,0,1,5.084,5.159v116.08a5.122,5.122,0,0,1-5.084,5.16V49.4c0,42.74-34.136,77.386-76.245,77.386Z" transform="translate(243 1204)" fill="#2d2d41"/><path d="M114-960a6,6,0,0,1,6-6,6,6,0,0,1,6,6,6,6,0,0,1-6,6A6,6,0,0,1,114-960Zm-64,3a3,3,0,0,1-3-3,3,3,0,0,1,3-3H97a3,3,0,0,1,3,3,3,3,0,0,1-3,3Z" transform="translate(446.395 1213)" fill="#424256"/></g></g><g transform="translate(-1768.797 27)"><g transform="translate(3905.897 18017)" fill="#f3f3f3" stroke="#707070" stroke-width="1"><rect width="494" height="1038" rx="60" stroke="none"/><rect x="0.5" y="0.5" width="493" height="1037" rx="59.5" fill="none"/></g><g transform="translate(3927.886 18935)"><g transform="translate(0)"><g transform="translate(0.011)" fill="#fff" stroke="#707070" stroke-width="1"><rect width="454" height="109" rx="13" stroke="none"/><rect x="0.5" y="0.5" width="453" height="108" rx="12.5" fill="none"/></g><g transform="translate(19.011 14)" fill="#827d7d" stroke="#707070" stroke-width="1"><rect width="53" height="54" rx="10" stroke="none"/><rect x="0.5" y="0.5" width="52" height="53" rx="9.5" fill="none"/></g><g transform="translate(91.011 72)" fill="#05f" stroke="#05f" stroke-width="1"><rect width="94" height="32" rx="10" stroke="none"/><rect x="0.5" y="0.5" width="93" height="31" rx="9.5" fill="none"/></g><g transform="translate(93.011 46)" fill="#f3f3f3" stroke="#c9c7c7" stroke-width="1"><rect width="321" height="15" rx="7.5" stroke="none"/><rect x="0.5" y="0.5" width="320" height="14" rx="7" fill="none"/></g><g transform="translate(91.011 20)" fill="#827d7d" stroke="#707070" stroke-width="1"><rect width="134" height="15" rx="7.5" stroke="none"/><rect x="0.5" y="0.5" width="133" height="14" rx="7" fill="none"/></g></g></g><path d="M60,0H434a60,60,0,0,1,60,60v41a0,0,0,0,1,0,0H0a0,0,0,0,1,0,0V60A60,60,0,0,1,60,0Z" transform="translate(3905.897 18017)" fill="#3d3c3c"/><text transform="translate(3969.897 18081)" fill="#fff" font-size="30" font-family="SegoeUI-Bold, Segoe UI" font-weight="700"><tspan x="0" y="0">Repos</tspan></text><text transform="translate(4105.897 18081)" fill="#fff" font-size="30" font-family="SegoeUI-Bold, Segoe UI" font-weight="700"><tspan x="0" y="0">Sign In</tspan></text><text transform="translate(4253.897 18081)" fill="#fff" font-size="30" font-family="SegoeUI-Bold, Segoe UI" font-weight="700"><tspan x="0" y="0">Sign Up</tspan></text><g transform="translate(3905.897 18118)" fill="#fff" stroke="#707070" stroke-width="1"><rect width="494" height="81" stroke="none"/><rect x="0.5" y="0.5" width="493" height="80" fill="none"/></g><path d="M27.933,22.92A13.98,13.98,0,0,0,30,15.6,14.283,14.283,0,1,0,15.727,29.747a14.29,14.29,0,0,0,7.386-2.054l9.715,9.627,4.818-4.777ZM15.725,24.356a8.754,8.754,0,1,1,8.837-8.748,8.808,8.808,0,0,1-8.837,8.748Z" transform="translate(3926.909 18138.994)" fill="#827d7d"/><text transform="translate(3993.897 18169)" fill="#827d7d" font-size="30" font-family="SegoeUI, Segoe UI"><tspan x="0" y="0">Search</tspan></text><text transform="translate(3917.897 18237)" fill="#827d7d" font-size="22" font-family="SegoeUI, Segoe UI"><tspan x="0" y="0">Select an item...</tspan></text><path d="M2.332,13.5H22.109a1.519,1.519,0,0,1,1.084,2.6l-9.885,9.8a1.55,1.55,0,0,1-2.175,0L1.248,16.1A1.519,1.519,0,0,1,2.332,13.5Z" transform="translate(4352.399 18209.41)" fill="#827d7d"/><g transform="translate(4399.897 19057) rotate(180)" fill="#efefef" stroke="#707070" stroke-width="1"><path d="M57,0H437a57,57,0,0,1,57,57v0a0,0,0,0,1,0,0H0a0,0,0,0,1,0,0v0A57,57,0,0,1,57,0Z" stroke="none"/><path d="M56.033.5H437.967A55.533,55.533,0,0,1,493.5,56.033v0a.467.467,0,0,1-.467.467H.967A.467.467,0,0,1,.5,56.033v0A55.533,55.533,0,0,1,56.033.5Z" fill="none"/></g><g transform="translate(4137.897 19014)" fill="none" stroke="#827d7d" stroke-width="1"><rect width="30" height="28" rx="9" stroke="none"/><rect x="0.5" y="0.5" width="29" height="27" rx="8.5" fill="none"/></g><g transform="translate(3999.595 19016.916)"><line y2="22.75" fill="none" stroke="#707070" stroke-width="2"/><line y2="22.75" transform="translate(6.559)" fill="none" stroke="#707070" stroke-width="2"/><line y2="22.75" transform="translate(13.118)" fill="none" stroke="#707070" stroke-width="2"/></g><g transform="translate(3927.886 18286)"><g transform="translate(0.011)" fill="#fff" stroke="#707070" stroke-width="1"><rect width="454" height="185" rx="13" stroke="none"/><rect x="0.5" y="0.5" width="453" height="184" rx="12.5" fill="none"/></g><g transform="translate(19.011 14)" fill="#827d7d" stroke="#707070" stroke-width="1"><rect width="53" height="54" rx="10" stroke="none"/><rect x="0.5" y="0.5" width="52" height="53" rx="9.5" fill="none"/></g><g transform="translate(91.011 72)" fill="#05f" stroke="#05f" stroke-width="1"><rect width="94" height="32" rx="10" stroke="none"/><rect x="0.5" y="0.5" width="93" height="31" rx="9.5" fill="none"/></g><g transform="translate(93.011 46)" fill="#f3f3f3" stroke="#c9c7c7" stroke-width="1"><rect width="321" height="15" rx="7.5" stroke="none"/><rect x="0.5" y="0.5" width="320" height="14" rx="7" fill="none"/></g><g transform="translate(91.011 20)" fill="#827d7d" stroke="#707070" stroke-width="1"><rect width="134" height="15" rx="7.5" stroke="none"/><rect x="0.5" y="0.5" width="133" height="14" rx="7" fill="none"/></g><g transform="translate(35.011 129)" fill="#827d7d" stroke="#707070" stroke-width="1"><rect width="53" height="15" rx="7.5" stroke="none"/><rect x="0.5" y="0.5" width="52" height="14" rx="7" fill="none"/></g><g transform="translate(143.011 129)" fill="#827d7d" stroke="#707070" stroke-width="1"><rect width="53" height="15" rx="7.5" stroke="none"/><rect x="0.5" y="0.5" width="52" height="14" rx="7" fill="none"/></g><g transform="translate(251.012 129)" fill="#827d7d" stroke="#707070" stroke-width="1"><rect width="53" height="15" rx="7.5" stroke="none"/><rect x="0.5" y="0.5" width="52" height="14" rx="7" fill="none"/></g><g transform="translate(359.012 129)" fill="#827d7d" stroke="#707070" stroke-width="1"><rect width="54" height="15" rx="7.5" stroke="none"/><rect x="0.5" y="0.5" width="53" height="14" rx="7" fill="none"/></g><g transform="translate(39.011 153)" fill="#f3f3f3" stroke="#c9c7c7" stroke-width="1"><rect width="45" height="11" rx="5.5" stroke="none"/><rect x="0.5" y="0.5" width="44" height="10" rx="5" fill="none"/></g><g transform="translate(147.011 155)" fill="#f3f3f3" stroke="#c9c7c7" stroke-width="1"><rect width="46" height="10" rx="5" stroke="none"/><rect x="0.5" y="0.5" width="45" height="9" rx="4.5" fill="none"/></g><g transform="translate(254.012 155)" fill="#f3f3f3" stroke="#c9c7c7" stroke-width="1"><rect width="46" height="10" rx="5" stroke="none"/><rect x="0.5" y="0.5" width="45" height="9" rx="4.5" fill="none"/></g><g transform="translate(363.012 153)" fill="#f3f3f3" stroke="#c9c7c7" stroke-width="1"><rect width="45" height="11" rx="5.5" stroke="none"/><rect x="0.5" y="0.5" width="44" height="10" rx="5" fill="none"/></g></g><g transform="translate(3927.886 18499)"><g transform="translate(0.011)" fill="#fff" stroke="#707070" stroke-width="1"><rect width="454" height="185" rx="13" stroke="none"/><rect x="0.5" y="0.5" width="453" height="184" rx="12.5" fill="none"/></g><g transform="translate(19.011 14)" fill="#827d7d" stroke="#707070" stroke-width="1"><rect width="53" height="54" rx="10" stroke="none"/><rect x="0.5" y="0.5" width="52" height="53" rx="9.5" fill="none"/></g><g transform="translate(91.011 73)" fill="#05f" stroke="#05f" stroke-width="1"><rect width="94" height="31" rx="10" stroke="none"/><rect x="0.5" y="0.5" width="93" height="30" rx="9.5" fill="none"/></g><g transform="translate(93.011 47)" fill="#f3f3f3" stroke="#c9c7c7" stroke-width="1"><rect width="321" height="15" rx="7.5" stroke="none"/><rect x="0.5" y="0.5" width="320" height="14" rx="7" fill="none"/></g><g transform="translate(91.011 21)" fill="#827d7d" stroke="#707070" stroke-width="1"><rect width="134" height="15" rx="7.5" stroke="none"/><rect x="0.5" y="0.5" width="133" height="14" rx="7" fill="none"/></g><g transform="translate(35.011 129)" fill="#827d7d" stroke="#707070" stroke-width="1"><rect width="53" height="15" rx="7.5" stroke="none"/><rect x="0.5" y="0.5" width="52" height="14" rx="7" fill="none"/></g><g transform="translate(143.011 129)" fill="#827d7d" stroke="#707070" stroke-width="1"><rect width="53" height="15" rx="7.5" stroke="none"/><rect x="0.5" y="0.5" width="52" height="14" rx="7" fill="none"/></g><g transform="translate(251.012 129)" fill="#827d7d" stroke="#707070" stroke-width="1"><rect width="53" height="15" rx="7.5" stroke="none"/><rect x="0.5" y="0.5" width="52" height="14" rx="7" fill="none"/></g><g transform="translate(359.012 129)" fill="#827d7d" stroke="#707070" stroke-width="1"><rect width="54" height="15" rx="7.5" stroke="none"/><rect x="0.5" y="0.5" width="53" height="14" rx="7" fill="none"/></g><g transform="translate(39.011 154)" fill="#f3f3f3" stroke="#c9c7c7" stroke-width="1"><rect width="45" height="11" rx="5.5" stroke="none"/><rect x="0.5" y="0.5" width="44" height="10" rx="5" fill="none"/></g><g transform="translate(147.011 155)" fill="#f3f3f3" stroke="#c9c7c7" stroke-width="1"><rect width="46" height="11" rx="5.5" stroke="none"/><rect x="0.5" y="0.5" width="45" height="10" rx="5" fill="none"/></g><g transform="translate(254.012 155)" fill="#f3f3f3" stroke="#c9c7c7" stroke-width="1"><rect width="46" height="11" rx="5.5" stroke="none"/><rect x="0.5" y="0.5" width="45" height="10" rx="5" fill="none"/></g><g transform="translate(363.012 154)" fill="#f3f3f3" stroke="#c9c7c7" stroke-width="1"><rect width="45" height="11" rx="5.5" stroke="none"/><rect x="0.5" y="0.5" width="44" height="10" rx="5" fill="none"/></g></g><g transform="translate(3927.886 18713)"><g transform="translate(0.011)" fill="#fff" stroke="#707070" stroke-width="1"><rect width="454" height="185" rx="13" stroke="none"/><rect x="0.5" y="0.5" width="453" height="184" rx="12.5" fill="none"/></g><g transform="translate(19.011 14)" fill="#827d7d" stroke="#707070" stroke-width="1"><rect width="53" height="54" rx="10" stroke="none"/><rect x="0.5" y="0.5" width="52" height="53" rx="9.5" fill="none"/></g><g transform="translate(91.011 72)" fill="#05f" stroke="#05f" stroke-width="1"><rect width="94" height="32" rx="10" stroke="none"/><rect x="0.5" y="0.5" width="93" height="31" rx="9.5" fill="none"/></g><g transform="translate(93.011 46)" fill="#f3f3f3" stroke="#c9c7c7" stroke-width="1"><rect width="321" height="15" rx="7.5" stroke="none"/><rect x="0.5" y="0.5" width="320" height="14" rx="7" fill="none"/></g><g transform="translate(91.011 20)" fill="#827d7d" stroke="#707070" stroke-width="1"><rect width="134" height="15" rx="7.5" stroke="none"/><rect x="0.5" y="0.5" width="133" height="14" rx="7" fill="none"/></g><g transform="translate(35.011 128)" fill="#827d7d" stroke="#707070" stroke-width="1"><rect width="53" height="16" rx="8" stroke="none"/><rect x="0.5" y="0.5" width="52" height="15" rx="7.5" fill="none"/></g><g transform="translate(143.011 128)" fill="#827d7d" stroke="#707070" stroke-width="1"><rect width="53" height="16" rx="8" stroke="none"/><rect x="0.5" y="0.5" width="52" height="15" rx="7.5" fill="none"/></g><g transform="translate(251.012 128)" fill="#827d7d" stroke="#707070" stroke-width="1"><rect width="53" height="16" rx="8" stroke="none"/><rect x="0.5" y="0.5" width="52" height="15" rx="7.5" fill="none"/></g><g transform="translate(359.012 128)" fill="#827d7d" stroke="#707070" stroke-width="1"><rect width="54" height="16" rx="8" stroke="none"/><rect x="0.5" y="0.5" width="53" height="15" rx="7.5" fill="none"/></g><g transform="translate(39.011 153)" fill="#f3f3f3" stroke="#c9c7c7" stroke-width="1"><rect width="45" height="11" rx="5.5" stroke="none"/><rect x="0.5" y="0.5" width="44" height="10" rx="5" fill="none"/></g><g transform="translate(147.011 154)" fill="#f3f3f3" stroke="#c9c7c7" stroke-width="1"><rect width="46" height="11" rx="5.5" stroke="none"/><rect x="0.5" y="0.5" width="45" height="10" rx="5" fill="none"/></g><g transform="translate(254.012 154)" fill="#f3f3f3" stroke="#c9c7c7" stroke-width="1"><rect width="46" height="11" rx="5.5" stroke="none"/><rect x="0.5" y="0.5" width="45" height="10" rx="5" fill="none"/></g><g transform="translate(363.012 153)" fill="#f3f3f3" stroke="#c9c7c7" stroke-width="1"><rect width="45" height="11" rx="5.5" stroke="none"/><rect x="0.5" y="0.5" width="44" height="10" rx="5" fill="none"/></g></g><path d="M14.6,9.071v19.6a1.539,1.539,0,0,1-2.624,1.077l-9.889-9.8a1.514,1.514,0,0,1,0-2.154l9.889-9.8A1.539,1.539,0,0,1,14.6,9.071Z" transform="translate(4291.766 19008.385)" fill="#827d7d"/></g><g transform="translate(1321.45 17889)"><g transform="translate(-21 -114)"><path d="M81.329,126.791c-42.11,0-76.247-34.646-76.247-77.386V-574.85A5.122,5.122,0,0,1,0-580.009v-69.648a5.121,5.121,0,0,1,5.083-5.159v-20.637A5.121,5.121,0,0,1,0-680.611V-750.26a5.122,5.122,0,0,1,5.083-5.16v-38.693A5.122,5.122,0,0,1,0-799.271v-30.955a5.122,5.122,0,0,1,5.083-5.16v-72.228C5.083-950.353,39.22-985,81.329-985h382.5c42.11,0,76.245,34.647,76.245,77.386v179.28a5.122,5.122,0,0,1,5.084,5.159v116.08a5.122,5.122,0,0,1-5.084,5.16V49.4c0,42.74-34.136,77.386-76.245,77.386Z" transform="translate(243 1204)" fill="#2d2d41"/><path d="M114-960a6,6,0,0,1,6-6,6,6,0,0,1,6,6,6,6,0,0,1-6,6A6,6,0,0,1,114-960Zm-64,3a3,3,0,0,1-3-3,3,3,0,0,1,3-3H97a3,3,0,0,1,3,3,3,3,0,0,1-3,3Z" transform="translate(446.395 1213)" fill="#424256"/></g></g><g transform="translate(-2842.389 23)"><g transform="translate(4412 18021)" fill="#f8f9fa" stroke="#707070" stroke-width="1"><rect width="492" height="1040" rx="58" stroke="none"/><rect x="0.5" y="0.5" width="491" height="1039" rx="57.5" fill="none"/></g><g transform="translate(4692.495 18568.598)"><circle cx="15" cy="15" r="15" transform="translate(12.464 144.402)" fill="#fff"/><path d="M507.87,355.2a15,15,0,1,0,15,15,15,15,0,0,0-15-15Zm-3.592,21.549a.423.423,0,0,1-.423.423h-3.38a.423.423,0,0,1-.423-.423v-8.028a.423.423,0,0,1,.423-.423h3.38a.423.423,0,0,1,.423.423Zm11.409-6.338a1.268,1.268,0,0,1-1.268,1.268v.021a1.056,1.056,0,0,1,0,2.07v.444a.845.845,0,1,1,0,1.69h-8.451a.423.423,0,0,1-.422-.422v-6.761c0-2.113,3.38-5.07,3.38-5.07v-1.03a1.279,1.279,0,0,1,2.522-.3l.013.063a6.4,6.4,0,0,1-1.026,4.237h2.6c.039,0,.076-.012.115-.012h1.268a2.834,2.834,0,0,0,1.268,3.8Z" transform="translate(-480.406 -210.799)" fill="#5e90ff"/><circle cx="21" cy="21" r="21" transform="translate(28.464 51.402)" fill="#fff"/><path d="M529.87,262.2a21,21,0,1,0,21,21A21,21,0,0,0,529.87,262.2Zm-5.028,30.169a.592.592,0,0,1-.591.592h-4.732a.592.592,0,0,1-.592-.592V281.13a.592.592,0,0,1,.592-.592h4.732a.592.592,0,0,1,.592.592Zm15.972-8.873a1.775,1.775,0,0,1-1.775,1.775v.03a1.479,1.479,0,0,1,0,2.9v.621a1.183,1.183,0,1,1,0,2.366H527.208a.592.592,0,0,1-.592-.592v-9.465c0-2.958,4.732-7.1,4.732-7.1V272.59a1.79,1.79,0,0,1,3.531-.42q.01.043.018.088c.592,2.958-1.437,5.932-1.437,5.932H537.1c.054,0,.106-.016.161-.016h1.775a1.775,1.775,0,1,1,0,3.549,1.775,1.775,0,0,1,1.775,1.775Z" transform="translate(-480.406 -210.799)" fill="#5e90ff"/><path d="M576.623,508.4a10.743,10.743,0,0,0,7.445-14.694l39.6-89.472-22.655-5.706-31.8,89.742a10.8,10.8,0,0,0,7.412,20.13Z" transform="translate(-480.406 -210.799)" fill="#a0616a"/><path d="M612.309,432.234,590.276,421.92A4.817,4.817,0,0,1,588.3,414.9l13.391-20.223a13.377,13.377,0,1,1,24.2,11.413l-6.924,23.163a4.817,4.817,0,0,1-6.657,2.982Z" transform="translate(-480.406 -210.799)" fill="#17a2b8"/><path d="M535.7,420.727l24.292,17.2a1.823,1.823,0,0,0,2.141,0L568.7,433a1.8,1.8,0,0,0,.118-2.812l-18.692-16.669a1.847,1.847,0,0,0-1.823-.353l-12.164,4.352a1.835,1.835,0,0,0-.435,3.211Z" transform="translate(-480.406 -210.799)" fill="#3f3d56"/><path d="M537.91,419.4,559.8,434.9a.643.643,0,0,0,.765.007l5.9-4.433a.627.627,0,0,0,.145-.878.638.638,0,0,0-.092-.1l-16.86-15.035a.656.656,0,0,0-.648-.12l-10.956,3.919a.654.654,0,0,0-.148,1.14Z" transform="translate(-480.406 -210.799)" fill="#fff"/><path d="M347.236,466.333h-12.26l-5.832-47.288h18.094Z" transform="translate(-203.406 0)" fill="#a0616a"/><path d="M627.363,689.016H587.832v-.5a15.386,15.386,0,0,1,15.387-15.386h24.145Z" transform="translate(-480.406 -210.799)" fill="#2f2e41"/><path d="M388.236,466.333h-12.26l-5.832-47.288h18.094Z" transform="translate(-203.406 0)" fill="#a0616a"/><path d="M668.363,689.016H628.832v-.5a15.386,15.386,0,0,1,15.387-15.386h24.145Z" transform="translate(-480.406 -210.799)" fill="#2f2e41"/><path d="M664.675,663.977q-.167,0-.333-.012l-14.1-1.044a4.527,4.527,0,0,1-4.064-3.53L621.7,525.019a1.5,1.5,0,0,0-2.961.438l8.692,132.393a4.5,4.5,0,0,1-4.486,4.853H612.208a4.5,4.5,0,0,1-4.192-2.86c-27-70.706-17.223-209.247-17.145-210.64l1-1h0l53.778,9.286.114.11c18.375,13.5,26.327,171.55,23.4,201.616a5.386,5.386,0,0,1-1.329,3.468,4.5,4.5,0,0,1-3.163,1.3Z" transform="translate(-480.406 -210.799)" fill="#2f2e41"/><circle cx="24.561" cy="24.561" r="24.561" transform="translate(92.107 107.235)" fill="#a0616a"/><path d="M653.4,480.3a3.731,3.731,0,0,1-.744-.075l-63.078-8.094c-2.259-.456-3.87-2.865-3.748-5.608L591.87,433.2c-8-10-.441-35.826,4.448-42.355l-1.89-5.116a6.35,6.35,0,0,1-.084-4.129,5.065,5.065,0,0,1,2.376-2.99l25.6-13.6c2.27-1.206,4.932.028,5.937,2.748l5.02,13.586-.077.04c12.021,6.443,22.671,12.817,14.671,46.817l10.03,46.956a5.821,5.821,0,0,1-1.668,3.949,4.072,4.072,0,0,1-2.828,1.2Z" transform="translate(-480.406 -210.799)" fill="#17a2b8"/><path d="M564.4,425.254a10.524,10.524,0,0,1,1.114,1.227l49.475-3.419,5.308-10.816,17.37,5.877-7.535,20.06a8,8,0,0,1-8.094,5.164l-56.26-4.267a10.5,10.5,0,1,1-1.378-13.827Z" transform="translate(-480.406 -210.799)" fill="#a0616a"/><path d="M614.1,420.678a4.5,4.5,0,0,1,.146-3.744l10.2-20.15a12.5,12.5,0,0,1,23.738,7.826l-3.93,22.315a4.5,4.5,0,0,1-5.853,3.489l-21.564-7.179a4.5,4.5,0,0,1-2.74-2.557Z" transform="translate(-480.406 -210.799)" fill="#17a2b8"/><path d="M536.885,404.225a1.1,1.1,0,0,1-1.5,0l-.574-.519c-4.7-4.31-7.411-7.111-7.411-10.6,0-2.848,1.8-5.049,4.628-5.049a5.4,5.4,0,0,1,4.106,1.927,5.4,5.4,0,0,1,4.1-1.927c2.83,0,4.628,2.194,4.628,5.049,0,3.484-2.713,6.285-7.411,10.6Z" transform="translate(-480.406 -210.799)" fill="#ff6584"/><path d="M502.57,344.5a2.1,2.1,0,0,1-2.865,0l-1.1-.995c-9-8.259-14.2-13.625-14.2-20.315,0-5.457,3.454-9.674,8.869-9.674a10.354,10.354,0,0,1,7.867,3.692,10.34,10.34,0,0,1,7.86-3.692c5.422,0,8.869,4.2,8.869,9.674,0,6.676-5.2,12.042-14.2,20.315Z" transform="translate(-480.406 -210.799)" fill="#ff6584"/><path d="M504,251.043a2.73,2.73,0,0,1-3.721,0l-1.428-1.292c-11.692-10.727-18.443-17.7-18.443-26.386,0-7.088,4.486-12.565,11.519-12.565a13.448,13.448,0,0,1,10.218,4.795,13.43,13.43,0,0,1,10.209-4.8c7.042,0,11.519,5.459,11.519,12.565,0,8.671-6.751,15.641-18.443,26.386Z" transform="translate(-480.406 -210.799)" fill="#ff6584"/><circle cx="20" cy="20" r="20" transform="translate(110.464 72.402)" fill="#2f2e41"/><path d="M573.823,345.632c-1.954.206-4.032.392-5.79-.485a6.876,6.876,0,0,1-3.437-5.186c-3.726-24.759,17.327-22.723,19.817-23.795,1.674-.721,2.907-2.172,4.4-3.213,3.272-2.277,7.517-2.444,11.5-2.53,4.732-.1,9.635-.172,13.977,1.709a20.937,20.937,0,0,1,9.291,8.564,43.238,43.238,0,0,1,4.607,11.933c1.2,4.787,2.023,9.851.784,14.628a18.09,18.09,0,0,1-16.419,13.158c1.616-5.706-1.911-12.033-7.143-14.825a20.642,20.642,0,0,0-13.617-1.621,59.943,59.943,0,0,1-9.032,1.125C579.789,345.2,576.214,345.379,573.823,345.632Z" transform="translate(-480.406 -210.799)" fill="#2f2e41"/></g><g transform="translate(4515.011 18146.887)"><path d="M196.686,40h6.606m-6.606,46.542h6.606M150.925,40h45.6m-87.493,0h7.251M56.02,179.625h8.54m18.852-46.388h50.434m62.841,0h6.606m-6.606,92.93h6.606m-31.581-92.93h24.975m-94.422,46.388h94.261M138.841,86.542h57.846m0,186.321h6.606m-22.558-46.7h15.791m-157.424,0h69.93m-26.1,46.7h9.023m31.743,0h72.992M27.5,40H59.726" transform="translate(-27.5 -28.133)" fill="#069bff" stroke="#069bff" stroke-linecap="round" stroke-linejoin="round" stroke-miterlimit="3" stroke-width="23" fill-rule="evenodd"/><path d="M132.5,277.03h0V265.163h.806a11.807,11.807,0,0,0,7.734-3.39,10.481,10.481,0,0,0,3.545-8.168,10.706,10.706,0,0,0-3.545-8.168,11.967,11.967,0,0,0-7.734-3.545H132.5v-11.4h0V218.775h.806a11.807,11.807,0,0,0,7.734-3.39,11.183,11.183,0,0,0,0-16.336,11.967,11.967,0,0,0-7.734-3.545H132.5V172.08h.806a12.609,12.609,0,0,0,7.734-3.39,11.031,11.031,0,0,0,3.545-8.322,10.706,10.706,0,0,0-3.545-8.168,11.109,11.109,0,0,0-7.734-3.39H132.5V137.4h0V125.538h.806a11.807,11.807,0,0,0,7.734-3.39,11.031,11.031,0,0,0,3.545-8.322,10.706,10.706,0,0,0-3.545-8.168,11.109,11.109,0,0,0-7.734-3.39H132.5V90.708h0V79h.806a11.807,11.807,0,0,0,7.734-3.39,10.481,10.481,0,0,0,3.545-8.168,10.706,10.706,0,0,0-3.545-8.168,11.967,11.967,0,0,0-7.734-3.545H132.5V44.167h0V32.3h23.042a97.922,97.922,0,0,1,36.9,7.551,94.184,94.184,0,0,1,29.648,19.572,90.149,90.149,0,0,1,20.141,28.665,88.609,88.609,0,0,1,7.251,32.826v4.623a88.724,88.724,0,0,1-7.251,32.98,87.482,87.482,0,0,1-20.141,28.819A90.765,90.765,0,0,1,192.44,206.6a100.173,100.173,0,0,1-36.9,7.4h-1.934l78.309,74.59H132.661V277.03Z" transform="translate(36.686 -32.3)" fill="#05f" stroke="#05f" stroke-miterlimit="10" stroke-width="1" fill-rule="evenodd"/></g></g></g></svg>